<ttFont>
    <TTGlyph name=".notdef" xMin="55" yMin="0" xMax="488" yMax="700">
      <contour>
        <pt x="116" y="700" on="1"/>
        <pt x="488" y="700" on="1"/>
        <pt x="427" y="0" on="1"/>
        <pt x="55" y="0" on="1"/>
      </contour>
      <contour>
        <pt x="358" y="72" on="1"/>
        <pt x="406" y="628" on="1"/>
        <pt x="184" y="628" on="1"/>
        <pt x="136" y="72" on="1"/>
      </contour>
    </TTGlyph>
    <TTGlyph name="A" xMin="15" yMin="0" xMax="465" yMax="700">
      <contour>
        <pt x="295" y="634" on="1"/>
        <pt x="181" y="252" on="1"/>
        <pt x="346" y="252" on="1"/>
      </contour>
      <contour>
        <pt x="378" y="0" on="1"/>
        <pt x="355" y="177" on="1"/>
        <pt x="158" y="177" on="1"/>
        <pt x="104" y="0" on="1"/>
        <pt x="15" y="0" on="1"/>
        <pt x="243" y="700" on="1"/>
        <pt x="358" y="700" on="1"/>
        <pt x="465" y="0" on="1"/>
      </contour>
    </TTGlyph>
    <TTGlyph name="AE" xMin="15" yMin="0" xMax="719" yMax="700">
      <contour>
        <pt x="380" y="0" on="1"/>
        <pt x="375" y="177" on="1"/>
        <pt x="177" y="177" on="1"/>
        <pt x="105" y="0" on="1"/>
        <pt x="15" y="0" on="1"/>
        <pt x="313" y="700" on="1"/>
        <pt x="719" y="700" on="1"/>
        <pt x="712" y="627" on="1"/>
        <pt x="443" y="627" on="1"/>
        <pt x="450" y="398" on="1"/>
        <pt x="687" y="398" on="1"/>
        <pt x="681" y="325" on="1"/>
        <pt x="453" y="325" on="1"/>
        <pt x="461" y="73" on="1"/>
        <pt x="684" y="73" on="1"/>
        <pt x="678" y="0" on="1"/>
      </contour>
      <contour>
        <pt x="208" y="254" on="1"/>
        <pt x="373" y="254" on="1"/>
        <pt x="364" y="627" on="1"/>
      </contour>
    </TTGlyph>
    <TTGlyph name="Aacute" xMin="15" yMin="0" xMax="465" yMax="841">
      <contour>
        <pt x="214" y="726" on="1"/>
        <pt x="328" y="841" on="1"/>
        <pt x="439" y="841" on="1"/>
        <pt x="297" y="726" on="1"/>
      </contour>
      <contour>
        <pt x="295" y="634" on="1"/>
        <pt x="181" y="252" on="1"/>
        <pt x="346" y="252" on="1"/>
      </contour>
      <contour>
        <pt x="378" y="0" on="1"/>
        <pt x="355" y="177" on="1"/>
        <pt x="158" y="177" on="1"/>
        <pt x="104" y="0" on="1"/>
        <pt x="15" y="0" on="1"/>
        <pt x="243" y="700" on="1"/>
        <pt x="358" y="700" on="1"/>
        <pt x="465" y="0" on="1"/>
      </contour>
    </TTGlyph>
    <TTGlyph name="Acircumflex" xMin="15" yMin="0" xMax="465" yMax="845">
      <contour>
        <pt x="362" y="730" on="1"/>
        <pt x="308" y="794" on="1"/>
        <pt x="242" y="730" on="1"/>
        <pt x="146" y="730" on="1"/>
        <pt x="266" y="845" on="1"/>
        <pt x="358" y="845" on="1"/>
        <pt x="459" y="730" on="1"/>
      </contour>
      <contour>
        <pt x="295" y="634" on="1"/>
        <pt x="181" y="252" on="1"/>
        <pt x="346" y="252" on="1"/>
      </contour>
      <contour>
        <pt x="378" y="0" on="1"/>
        <pt x="355" y="177" on="1"/>
        <pt x="158" y="177" on="1"/>
        <pt x="104" y="0" on="1"/>
        <pt x="15" y="0" on="1"/>
        <pt x="243" y="700" on="1"/>
        <pt x="358" y="700" on="1"/>
        <pt x="465" y="0" on="1"/>
      </contour>
    </TTGlyph>
    <TTGlyph name="Adieresis" xMin="15" yMin="0" xMax="465" yMax="815">
      <contour>
        <pt x="295" y="634" on="1"/>
        <pt x="181" y="252" on="1"/>
        <pt x="346" y="252" on="1"/>
      </contour>
      <contour>
        <pt x="378" y="0" on="1"/>
        <pt x="355" y="177" on="1"/>
        <pt x="158" y="177" on="1"/>
        <pt x="104" y="0" on="1"/>
        <pt x="15" y="0" on="1"/>
        <pt x="243" y="700" on="1"/>
        <pt x="358" y="700" on="1"/>
        <pt x="465" y="0" on="1"/>
      </contour>
      <contour>
        <pt x="361" y="735" on="1"/>
        <pt x="368" y="815" on="1"/>
        <pt x="453" y="815" on="1"/>
        <pt x="446" y="735" on="1"/>
      </contour>
      <contour>
        <pt x="161" y="735" on="1"/>
        <pt x="168" y="815" on="1"/>
        <pt x="253" y="815" on="1"/>
        <pt x="246" y="735" on="1"/>
      </contour>
    </TTGlyph>
    <TTGlyph name="Agrave" xMin="15" yMin="0" xMax="465" yMax="841">
      <contour>
        <pt x="307" y="726" on="1"/>
        <pt x="185" y="841" on="1"/>
        <pt x="296" y="841" on="1"/>
        <pt x="390" y="726" on="1"/>
      </contour>
      <contour>
        <pt x="295" y="634" on="1"/>
        <pt x="181" y="252" on="1"/>
        <pt x="346" y="252" on="1"/>
      </contour>
      <contour>
        <pt x="378" y="0" on="1"/>
        <pt x="355" y="177" on="1"/>
        <pt x="158" y="177" on="1"/>
        <pt x="104" y="0" on="1"/>
        <pt x="15" y="0" on="1"/>
        <pt x="243" y="700" on="1"/>
        <pt x="358" y="700" on="1"/>
        <pt x="465" y="0" on="1"/>
      </contour>
    </TTGlyph>
    <TTGlyph name="Aring" xMin="15" yMin="0" xMax="465" yMax="855">
      <contour>
        <pt x="401" y="753" on="1"/>
        <pt x="396" y="700" on="0"/>
        <pt x="362" y="672" on="1"/>
        <pt x="465" y="0" on="1"/>
        <pt x="378" y="0" on="1"/>
        <pt x="355" y="177" on="1"/>
        <pt x="158" y="177" on="1"/>
        <pt x="104" y="0" on="1"/>
        <pt x="15" y="0" on="1"/>
        <pt x="235" y="676" on="1"/>
        <pt x="211" y="703" on="0"/>
        <pt x="211" y="742" on="1"/>
        <pt x="211" y="790" on="0"/>
        <pt x="265" y="855" on="0"/>
        <pt x="314" y="855" on="1"/>
        <pt x="355" y="855" on="0"/>
        <pt x="402" y="805" on="0"/>
        <pt x="402" y="765" on="1"/>
        <pt x="402" y="762" on="0"/>
        <pt x="401" y="756" on="0"/>
      </contour>
      <contour>
        <pt x="295" y="634" on="1"/>
        <pt x="181" y="252" on="1"/>
        <pt x="346" y="252" on="1"/>
      </contour>
      <contour>
        <pt x="343" y="763" on="1"/>
        <pt x="343" y="780" on="0"/>
        <pt x="329" y="803" on="0"/>
        <pt x="309" y="803" on="1"/>
        <pt x="285" y="803" on="0"/>
        <pt x="268" y="767" on="0"/>
        <pt x="268" y="747" on="1"/>
        <pt x="268" y="731" on="0"/>
        <pt x="281" y="705" on="0"/>
        <pt x="301" y="705" on="1"/>
        <pt x="326" y="705" on="0"/>
        <pt x="341" y="735" on="0"/>
        <pt x="343" y="754" on="1"/>
      </contour>
    </TTGlyph>
    <TTGlyph name="Atilde" xMin="15" yMin="0" xMax="465" yMax="840">
      <contour>
        <pt x="295" y="634" on="1"/>
        <pt x="181" y="252" on="1"/>
        <pt x="346" y="252" on="1"/>
      </contour>
      <contour>
        <pt x="378" y="0" on="1"/>
        <pt x="355" y="177" on="1"/>
        <pt x="158" y="177" on="1"/>
        <pt x="104" y="0" on="1"/>
        <pt x="15" y="0" on="1"/>
        <pt x="243" y="700" on="1"/>
        <pt x="358" y="700" on="1"/>
        <pt x="465" y="0" on="1"/>
      </contour>
      <contour>
        <pt x="182" y="807" on="1"/>
        <pt x="206" y="826" on="0"/>
        <pt x="251" y="840" on="0"/>
        <pt x="271" y="840" on="1"/>
        <pt x="289" y="840" on="0"/>
        <pt x="316" y="828" on="0"/>
        <pt x="342" y="813" on="0"/>
        <pt x="366" y="801" on="0"/>
        <pt x="381" y="801" on="1"/>
        <pt x="407" y="801" on="0"/>
        <pt x="443" y="820" on="0"/>
        <pt x="464" y="837" on="1"/>
        <pt x="458" y="764" on="1"/>
        <pt x="437" y="745" on="0"/>
        <pt x="395" y="731" on="0"/>
        <pt x="369" y="731" on="1"/>
        <pt x="350" y="731" on="0"/>
        <pt x="323" y="743" on="0"/>
        <pt x="299" y="758" on="0"/>
        <pt x="275" y="770" on="0"/>
        <pt x="259" y="770" on="1"/>
        <pt x="233" y="770" on="0"/>
        <pt x="192" y="748" on="0"/>
        <pt x="175" y="734" on="1"/>
      </contour>
    </TTGlyph>
    <TTGlyph name="B" xMin="75" yMin="-7" xMax="471" yMax="707">
      <contour>
        <pt x="370" y="204" on="1"/>
        <pt x="371" y="213" on="0"/>
        <pt x="372" y="228" on="0"/>
        <pt x="372" y="236" on="1"/>
        <pt x="372" y="285" on="0"/>
        <pt x="332" y="332" on="0"/>
        <pt x="284" y="332" on="1"/>
        <pt x="191" y="332" on="1"/>
        <pt x="168" y="71" on="1"/>
        <pt x="182" y="70" on="0"/>
        <pt x="198" y="69" on="1"/>
        <pt x="212" y="68" on="0"/>
        <pt x="243" y="66" on="0"/>
        <pt x="259" y="66" on="1"/>
        <pt x="279" y="66" on="0"/>
        <pt x="316" y="76" on="0"/>
        <pt x="346" y="106" on="0"/>
        <pt x="366" y="160" on="0"/>
      </contour>
      <contour>
        <pt x="383" y="517" on="1"/>
        <pt x="384" y="526" on="0"/>
        <pt x="385" y="542" on="0"/>
        <pt x="385" y="550" on="1"/>
        <pt x="385" y="595" on="0"/>
        <pt x="348" y="635" on="0"/>
        <pt x="300" y="635" on="1"/>
        <pt x="264" y="635" on="0"/>
        <pt x="241" y="632" on="1"/>
        <pt x="228" y="630" on="0"/>
        <pt x="217" y="629" on="1"/>
        <pt x="197" y="404" on="1"/>
        <pt x="280" y="404" on="1"/>
        <pt x="295" y="404" on="0"/>
        <pt x="328" y="410" on="0"/>
        <pt x="357" y="432" on="0"/>
        <pt x="379" y="477" on="0"/>
      </contour>
      <contour>
        <pt x="459" y="201" on="1"/>
        <pt x="454" y="141" on="0"/>
        <pt x="422" y="61" on="0"/>
        <pt x="369" y="13" on="0"/>
        <pt x="293" y="-7" on="0"/>
        <pt x="244" y="-7" on="1"/>
        <pt x="212" y="-7" on="0"/>
        <pt x="152" y="-6" on="0"/>
        <pt x="128" y="-4" on="1"/>
        <pt x="100" y="-2" on="0"/>
        <pt x="75" y="0" on="1"/>
        <pt x="136" y="700" on="1"/>
        <pt x="164" y="702" on="0"/>
        <pt x="191" y="704" on="1"/>
        <pt x="214" y="706" on="0"/>
        <pt x="270" y="707" on="0"/>
        <pt x="294" y="707" on="1"/>
        <pt x="334" y="707" on="0"/>
        <pt x="399" y="689" on="0"/>
        <pt x="446" y="651" on="0"/>
        <pt x="471" y="592" on="0"/>
        <pt x="471" y="551" on="1"/>
        <pt x="471" y="508" on="0"/>
        <pt x="454" y="447" on="0"/>
        <pt x="427" y="405" on="0"/>
        <pt x="394" y="380" on="0"/>
        <pt x="377" y="373" on="1"/>
        <pt x="391" y="368" on="0"/>
        <pt x="420" y="349" on="0"/>
        <pt x="445" y="316" on="0"/>
        <pt x="461" y="267" on="0"/>
        <pt x="461" y="234" on="1"/>
        <pt x="461" y="229" on="0"/>
        <pt x="460" y="207" on="0"/>
      </contour>
    </TTGlyph>
    <TTGlyph name="C" xMin="80" yMin="-7" xMax="428" yMax="707">
      <contour>
        <pt x="368" y="10" on="1"/>
        <pt x="360" y="8" on="0"/>
        <pt x="332" y="2" on="0"/>
        <pt x="300" y="-3" on="0"/>
        <pt x="268" y="-7" on="0"/>
        <pt x="256" y="-7" on="1"/>
        <pt x="212" y="-7" on="0"/>
        <pt x="146" y="15" on="0"/>
        <pt x="102" y="70" on="0"/>
        <pt x="80" y="164" on="0"/>
        <pt x="80" y="237" on="1"/>
        <pt x="80" y="291" on="0"/>
        <pt x="86" y="361" on="1"/>
        <pt x="96" y="472" on="0"/>
        <pt x="131" y="607" on="0"/>
        <pt x="189" y="682" on="0"/>
        <pt x="272" y="707" on="0"/>
        <pt x="330" y="707" on="1"/>
        <pt x="340" y="707" on="0"/>
        <pt x="369" y="703" on="0"/>
        <pt x="398" y="698" on="0"/>
        <pt x="422" y="693" on="0"/>
        <pt x="428" y="691" on="1"/>
        <pt x="421" y="617" on="1"/>
        <pt x="397" y="623" on="0"/>
        <pt x="333" y="632" on="0"/>
        <pt x="306" y="632" on="1"/>
        <pt x="279" y="632" on="0"/>
        <pt x="237" y="613" on="0"/>
        <pt x="205" y="554" on="0"/>
        <pt x="182" y="445" on="0"/>
        <pt x="174" y="354" on="1"/>
        <pt x="174" y="348" on="0"/>
        <pt x="171" y="310" on="0"/>
        <pt x="169" y="267" on="0"/>
        <pt x="167" y="230" on="0"/>
        <pt x="167" y="226" on="1"/>
        <pt x="167" y="175" on="0"/>
        <pt x="179" y="113" on="0"/>
        <pt x="203" y="79" on="0"/>
        <pt x="237" y="68" on="0"/>
        <pt x="258" y="68" on="1"/>
        <pt x="289" y="68" on="0"/>
        <pt x="355" y="78" on="0"/>
        <pt x="375" y="83" on="1"/>
      </contour>
    </TTGlyph>
    <TTGlyph name="Ccedilla" xMin="80" yMin="-200" xMax="428" yMax="707">
      <contour>
        <pt x="158" y="-131" on="1"/>
        <pt x="172" y="-134" on="0"/>
        <pt x="201" y="-137" on="0"/>
        <pt x="212" y="-137" on="1"/>
        <pt x="233" y="-137" on="0"/>
        <pt x="255" y="-124" on="0"/>
        <pt x="255" y="-103" on="1"/>
        <pt x="255" y="-89" on="0"/>
        <pt x="224" y="-76" on="0"/>
        <pt x="177" y="-76" on="1"/>
        <pt x="195" y="-1" on="1"/>
        <pt x="167" y="6" on="0"/>
        <pt x="123" y="38" on="0"/>
        <pt x="95" y="94" on="0"/>
        <pt x="80" y="178" on="0"/>
        <pt x="80" y="237" on="1"/>
        <pt x="80" y="291" on="0"/>
        <pt x="86" y="361" on="1"/>
        <pt x="96" y="472" on="0"/>
        <pt x="131" y="607" on="0"/>
        <pt x="189" y="682" on="0"/>
        <pt x="272" y="707" on="0"/>
        <pt x="330" y="707" on="1"/>
        <pt x="340" y="707" on="0"/>
        <pt x="369" y="703" on="0"/>
        <pt x="398" y="698" on="0"/>
        <pt x="422" y="693" on="0"/>
        <pt x="428" y="691" on="1"/>
        <pt x="421" y="617" on="1"/>
        <pt x="397" y="623" on="0"/>
        <pt x="333" y="632" on="0"/>
        <pt x="306" y="632" on="1"/>
        <pt x="279" y="632" on="0"/>
        <pt x="237" y="613" on="0"/>
        <pt x="205" y="554" on="0"/>
        <pt x="182" y="445" on="0"/>
        <pt x="174" y="354" on="1"/>
        <pt x="174" y="348" on="0"/>
        <pt x="171" y="310" on="0"/>
        <pt x="169" y="267" on="0"/>
        <pt x="167" y="230" on="0"/>
        <pt x="167" y="226" on="1"/>
        <pt x="167" y="175" on="0"/>
        <pt x="179" y="113" on="0"/>
        <pt x="203" y="79" on="0"/>
        <pt x="237" y="68" on="0"/>
        <pt x="258" y="68" on="1"/>
        <pt x="289" y="68" on="0"/>
        <pt x="355" y="78" on="0"/>
        <pt x="375" y="83" on="1"/>
        <pt x="368" y="10" on="1"/>
        <pt x="351" y="5" on="0"/>
        <pt x="285" y="-6" on="0"/>
        <pt x="259" y="-7" on="1"/>
        <pt x="255" y="-27" on="1"/>
        <pt x="297" y="-32" on="0"/>
        <pt x="332" y="-65" on="0"/>
        <pt x="332" y="-97" on="1"/>
        <pt x="332" y="-151" on="0"/>
        <pt x="266" y="-200" on="0"/>
        <pt x="215" y="-200" on="1"/>
        <pt x="197" y="-200" on="0"/>
        <pt x="167" y="-196" on="0"/>
        <pt x="152" y="-193" on="1"/>
      </contour>
    </TTGlyph>
    <TTGlyph name="D" xMin="75" yMin="-7" xMax="487" yMax="707">
      <contour>
        <pt x="392" y="354" on="1"/>
        <pt x="398" y="422" on="0"/>
        <pt x="398" y="468" on="1"/>
        <pt x="398" y="520" on="0"/>
        <pt x="386" y="585" on="0"/>
        <pt x="363" y="621" on="0"/>
        <pt x="332" y="634" on="0"/>
        <pt x="314" y="634" on="1"/>
        <pt x="300" y="634" on="0"/>
        <pt x="267" y="633" on="0"/>
        <pt x="252" y="632" on="1"/>
        <pt x="234" y="631" on="0"/>
        <pt x="217" y="630" on="1"/>
        <pt x="168" y="70" on="1"/>
        <pt x="183" y="69" on="0"/>
        <pt x="200" y="68" on="1"/>
        <pt x="214" y="67" on="0"/>
        <pt x="247" y="66" on="0"/>
        <pt x="263" y="66" on="1"/>
        <pt x="286" y="66" on="0"/>
        <pt x="327" y="94" on="0"/>
        <pt x="360" y="161" on="0"/>
        <pt x="385" y="272" on="0"/>
      </contour>
      <contour>
        <pt x="482" y="361" on="1"/>
        <pt x="472" y="249" on="0"/>
        <pt x="436" y="106" on="0"/>
        <pt x="379" y="24" on="0"/>
        <pt x="300" y="-7" on="0"/>
        <pt x="248" y="-7" on="1"/>
        <pt x="219" y="-7" on="0"/>
        <pt x="158" y="-6" on="0"/>
        <pt x="132" y="-4" on="1"/>
        <pt x="102" y="-2" on="0"/>
        <pt x="75" y="0" on="1"/>
        <pt x="136" y="700" on="1"/>
        <pt x="163" y="702" on="0"/>
        <pt x="191" y="704" on="1"/>
        <pt x="215" y="706" on="0"/>
        <pt x="272" y="707" on="0"/>
        <pt x="298" y="707" on="1"/>
        <pt x="341" y="707" on="0"/>
        <pt x="411" y="688" on="0"/>
        <pt x="460" y="635" on="0"/>
        <pt x="487" y="540" on="0"/>
        <pt x="487" y="463" on="1"/>
        <pt x="487" y="440" on="0"/>
        <pt x="484" y="390" on="0"/>
      </contour>
    </TTGlyph>
    <TTGlyph name="Delta" xMin="15" yMin="0" xMax="475" yMax="700">
      <contour>
        <pt x="15" y="0" on="1"/>
        <pt x="254" y="700" on="1"/>
        <pt x="365" y="700" on="1"/>
        <pt x="475" y="0" on="1"/>
      </contour>
      <contour>
        <pt x="304" y="627" on="1"/>
        <pt x="129" y="73" on="1"/>
        <pt x="377" y="73" on="1"/>
      </contour>
    </TTGlyph>
    <TTGlyph name="E" xMin="75" yMin="0" xMax="464" yMax="700">
      <contour>
        <pt x="75" y="0" on="1"/>
        <pt x="136" y="700" on="1"/>
        <pt x="464" y="700" on="1"/>
        <pt x="457" y="627" on="1"/>
        <pt x="216" y="627" on="1"/>
        <pt x="196" y="398" on="1"/>
        <pt x="412" y="398" on="1"/>
        <pt x="406" y="325" on="1"/>
        <pt x="190" y="325" on="1"/>
        <pt x="168" y="73" on="1"/>
        <pt x="409" y="73" on="1"/>
        <pt x="403" y="0" on="1"/>
      </contour>
    </TTGlyph>
    <TTGlyph name="Eacute" xMin="75" yMin="0" xMax="464" yMax="841">
      <contour>
        <pt x="235" y="726" on="1"/>
        <pt x="349" y="841" on="1"/>
        <pt x="460" y="841" on="1"/>
        <pt x="318" y="726" on="1"/>
      </contour>
      <contour>
        <pt x="75" y="0" on="1"/>
        <pt x="136" y="700" on="1"/>
        <pt x="464" y="700" on="1"/>
        <pt x="457" y="627" on="1"/>
        <pt x="216" y="627" on="1"/>
        <pt x="196" y="398" on="1"/>
        <pt x="412" y="398" on="1"/>
        <pt x="406" y="325" on="1"/>
        <pt x="190" y="325" on="1"/>
        <pt x="168" y="73" on="1"/>
        <pt x="409" y="73" on="1"/>
        <pt x="403" y="0" on="1"/>
      </contour>
    </TTGlyph>
    <TTGlyph name="Ecircumflex" xMin="75" yMin="0" xMax="464" yMax="845">
      <contour>
        <pt x="362" y="730" on="1"/>
        <pt x="308" y="794" on="1"/>
        <pt x="242" y="730" on="1"/>
        <pt x="146" y="730" on="1"/>
        <pt x="266" y="845" on="1"/>
        <pt x="358" y="845" on="1"/>
        <pt x="459" y="730" on="1"/>
      </contour>
      <contour>
        <pt x="75" y="0" on="1"/>
        <pt x="136" y="700" on="1"/>
        <pt x="464" y="700" on="1"/>
        <pt x="457" y="627" on="1"/>
        <pt x="216" y="627" on="1"/>
        <pt x="196" y="398" on="1"/>
        <pt x="412" y="398" on="1"/>
        <pt x="406" y="325" on="1"/>
        <pt x="190" y="325" on="1"/>
        <pt x="168" y="73" on="1"/>
        <pt x="409" y="73" on="1"/>
        <pt x="403" y="0" on="1"/>
      </contour>
    </TTGlyph>
    <TTGlyph name="Edieresis" xMin="75" yMin="0" xMax="464" yMax="815">
      <contour>
        <pt x="75" y="0" on="1"/>
        <pt x="136" y="700" on="1"/>
        <pt x="464" y="700" on="1"/>
        <pt x="457" y="627" on="1"/>
        <pt x="216" y="627" on="1"/>
        <pt x="196" y="398" on="1"/>
        <pt x="412" y="398" on="1"/>
        <pt x="406" y="325" on="1"/>
        <pt x="190" y="325" on="1"/>
        <pt x="168" y="73" on="1"/>
        <pt x="409" y="73" on="1"/>
        <pt x="403" y="0" on="1"/>
      </contour>
      <contour>
        <pt x="363" y="735" on="1"/>
        <pt x="370" y="815" on="1"/>
        <pt x="455" y="815" on="1"/>
        <pt x="448" y="735" on="1"/>
      </contour>
      <contour>
        <pt x="163" y="735" on="1"/>
        <pt x="170" y="815" on="1"/>
        <pt x="255" y="815" on="1"/>
        <pt x="248" y="735" on="1"/>
      </contour>
    </TTGlyph>
    <TTGlyph name="Egrave" xMin="75" yMin="0" xMax="464" yMax="841">
      <contour>
        <pt x="297" y="726" on="1"/>
        <pt x="175" y="841" on="1"/>
        <pt x="286" y="841" on="1"/>
        <pt x="380" y="726" on="1"/>
      </contour>
      <contour>
        <pt x="75" y="0" on="1"/>
        <pt x="136" y="700" on="1"/>
        <pt x="464" y="700" on="1"/>
        <pt x="457" y="627" on="1"/>
        <pt x="216" y="627" on="1"/>
        <pt x="196" y="398" on="1"/>
        <pt x="412" y="398" on="1"/>
        <pt x="406" y="325" on="1"/>
        <pt x="190" y="325" on="1"/>
        <pt x="168" y="73" on="1"/>
        <pt x="409" y="73" on="1"/>
        <pt x="403" y="0" on="1"/>
      </contour>
    </TTGlyph>
    <TTGlyph name="Eth" xMin="43" yMin="-7" xMax="497" yMax="707">
      <contour>
        <pt x="492" y="361" on="1"/>
        <pt x="482" y="249" on="0"/>
        <pt x="446" y="106" on="0"/>
        <pt x="389" y="24" on="0"/>
        <pt x="310" y="-7" on="0"/>
        <pt x="258" y="-7" on="1"/>
        <pt x="229" y="-7" on="0"/>
        <pt x="168" y="-6" on="0"/>
        <pt x="142" y="-4" on="1"/>
        <pt x="112" y="-2" on="0"/>
        <pt x="85" y="0" on="1"/>
        <pt x="113" y="325" on="1"/>
        <pt x="43" y="325" on="1"/>
        <pt x="49" y="400" on="1"/>
        <pt x="120" y="400" on="1"/>
        <pt x="146" y="700" on="1"/>
        <pt x="173" y="702" on="0"/>
        <pt x="201" y="704" on="1"/>
        <pt x="225" y="706" on="0"/>
        <pt x="282" y="707" on="0"/>
        <pt x="308" y="707" on="1"/>
        <pt x="351" y="707" on="0"/>
        <pt x="421" y="688" on="0"/>
        <pt x="470" y="635" on="0"/>
        <pt x="497" y="540" on="0"/>
        <pt x="497" y="463" on="1"/>
        <pt x="497" y="440" on="0"/>
        <pt x="494" y="390" on="0"/>
      </contour>
      <contour>
        <pt x="402" y="354" on="1"/>
        <pt x="408" y="422" on="0"/>
        <pt x="408" y="468" on="1"/>
        <pt x="408" y="520" on="0"/>
        <pt x="396" y="585" on="0"/>
        <pt x="373" y="621" on="0"/>
        <pt x="342" y="634" on="0"/>
        <pt x="324" y="634" on="1"/>
        <pt x="310" y="634" on="0"/>
        <pt x="277" y="633" on="0"/>
        <pt x="262" y="632" on="1"/>
        <pt x="244" y="631" on="0"/>
        <pt x="227" y="630" on="1"/>
        <pt x="207" y="400" on="1"/>
        <pt x="319" y="400" on="1"/>
        <pt x="313" y="325" on="1"/>
        <pt x="200" y="325" on="1"/>
        <pt x="178" y="70" on="1"/>
        <pt x="193" y="69" on="0"/>
        <pt x="210" y="68" on="1"/>
        <pt x="224" y="67" on="0"/>
        <pt x="257" y="66" on="0"/>
        <pt x="273" y="66" on="1"/>
        <pt x="296" y="66" on="0"/>
        <pt x="337" y="94" on="0"/>
        <pt x="370" y="161" on="0"/>
        <pt x="395" y="272" on="0"/>
      </contour>
    </TTGlyph>
    <TTGlyph name="Euro" xMin="65" yMin="-7" xMax="476" yMax="707">
      <contour>
        <pt x="450" y="621" on="1"/>
        <pt x="423" y="627" on="0"/>
        <pt x="379" y="634" on="0"/>
        <pt x="354" y="634" on="1"/>
        <pt x="332" y="634" on="0"/>
        <pt x="297" y="622" on="0"/>
        <pt x="269" y="589" on="0"/>
        <pt x="248" y="529" on="0"/>
        <pt x="239" y="480" on="1"/>
        <pt x="402" y="480" on="1"/>
        <pt x="376" y="407" on="1"/>
        <pt x="229" y="407" on="1"/>
        <pt x="226" y="385" on="0"/>
        <pt x="222" y="333" on="0"/>
        <pt x="220" y="310" on="1"/>
        <pt x="358" y="310" on="1"/>
        <pt x="331" y="237" on="1"/>
        <pt x="217" y="237" on="1"/>
        <pt x="217" y="221" on="1"/>
        <pt x="217" y="172" on="0"/>
        <pt x="228" y="111" on="0"/>
        <pt x="251" y="77" on="0"/>
        <pt x="284" y="66" on="0"/>
        <pt x="305" y="66" on="1"/>
        <pt x="336" y="66" on="0"/>
        <pt x="383" y="75" on="0"/>
        <pt x="403" y="80" on="1"/>
        <pt x="396" y="9" on="1"/>
        <pt x="379" y="4" on="0"/>
        <pt x="329" y="-7" on="0"/>
        <pt x="304" y="-7" on="1"/>
        <pt x="261" y="-7" on="0"/>
        <pt x="196" y="15" on="0"/>
        <pt x="152" y="70" on="0"/>
        <pt x="130" y="164" on="0"/>
        <pt x="130" y="237" on="1"/>
        <pt x="65" y="237" on="1"/>
        <pt x="92" y="310" on="1"/>
        <pt x="132" y="310" on="1"/>
        <pt x="134" y="333" on="0"/>
        <pt x="138" y="384" on="0"/>
        <pt x="140" y="407" on="1"/>
        <pt x="80" y="407" on="1"/>
        <pt x="106" y="480" on="1"/>
        <pt x="151" y="480" on="1"/>
        <pt x="163" y="551" on="0"/>
        <pt x="202" y="640" on="0"/>
        <pt x="257" y="690" on="0"/>
        <pt x="330" y="707" on="0"/>
        <pt x="378" y="707" on="1"/>
        <pt x="398" y="707" on="0"/>
        <pt x="454" y="698" on="0"/>
        <pt x="476" y="691" on="1"/>
      </contour>
    </TTGlyph>
    <TTGlyph name="F" xMin="75" yMin="0" xMax="464" yMax="700">
      <contour>
        <pt x="216" y="627" on="1"/>
        <pt x="195" y="388" on="1"/>
        <pt x="411" y="388" on="1"/>
        <pt x="405" y="315" on="1"/>
        <pt x="189" y="315" on="1"/>
        <pt x="162" y="0" on="1"/>
        <pt x="75" y="0" on="1"/>
        <pt x="136" y="700" on="1"/>
        <pt x="464" y="700" on="1"/>
        <pt x="457" y="627" on="1"/>
      </contour>
    </TTGlyph>
    <TTGlyph name="G" xMin="80" yMin="-7" xMax="459" yMax="707">
      <contour>
        <pt x="420" y="10" on="1"/>
        <pt x="380" y="2" on="0"/>
        <pt x="303" y="-7" on="0"/>
        <pt x="262" y="-7" on="1"/>
        <pt x="216" y="-7" on="0"/>
        <pt x="147" y="15" on="0"/>
        <pt x="102" y="70" on="0"/>
        <pt x="80" y="164" on="0"/>
        <pt x="80" y="237" on="1"/>
        <pt x="80" y="291" on="0"/>
        <pt x="86" y="361" on="1"/>
        <pt x="96" y="472" on="0"/>
        <pt x="134" y="607" on="0"/>
        <pt x="197" y="682" on="0"/>
        <pt x="287" y="707" on="0"/>
        <pt x="348" y="707" on="1"/>
        <pt x="360" y="707" on="0"/>
        <pt x="391" y="704" on="0"/>
        <pt x="422" y="699" on="0"/>
        <pt x="450" y="693" on="0"/>
        <pt x="459" y="691" on="1"/>
        <pt x="453" y="619" on="1"/>
        <pt x="421" y="625" on="0"/>
        <pt x="356" y="634" on="0"/>
        <pt x="324" y="634" on="1"/>
        <pt x="292" y="634" on="0"/>
        <pt x="243" y="615" on="0"/>
        <pt x="207" y="555" on="0"/>
        <pt x="182" y="445" on="0"/>
        <pt x="174" y="354" on="1"/>
        <pt x="174" y="348" on="0"/>
        <pt x="171" y="309" on="0"/>
        <pt x="169" y="265" on="0"/>
        <pt x="167" y="228" on="0"/>
        <pt x="167" y="224" on="1"/>
        <pt x="167" y="173" on="0"/>
        <pt x="179" y="111" on="0"/>
        <pt x="203" y="77" on="0"/>
        <pt x="239" y="66" on="0"/>
        <pt x="263" y="66" on="1"/>
        <pt x="280" y="66" on="0"/>
        <pt x="322" y="70" on="0"/>
        <pt x="342" y="73" on="1"/>
        <pt x="362" y="295" on="1"/>
        <pt x="273" y="295" on="1"/>
        <pt x="280" y="368" on="1"/>
        <pt x="452" y="368" on="1"/>
      </contour>
    </TTGlyph>
    <TTGlyph name="H" xMin="75" yMin="0" xMax="516" yMax="700">
      <contour>
        <pt x="368" y="0" on="1"/>
        <pt x="396" y="322" on="1"/>
        <pt x="190" y="322" on="1"/>
        <pt x="162" y="0" on="1"/>
        <pt x="75" y="0" on="1"/>
        <pt x="136" y="700" on="1"/>
        <pt x="223" y="700" on="1"/>
        <pt x="196" y="396" on="1"/>
        <pt x="402" y="396" on="1"/>
        <pt x="429" y="700" on="1"/>
        <pt x="516" y="700" on="1"/>
        <pt x="455" y="0" on="1"/>
      </contour>
    </TTGlyph>
    <TTGlyph name="I" xMin="35" yMin="0" xMax="323" yMax="700">
      <contour>
        <pt x="35" y="0" on="1"/>
        <pt x="41" y="73" on="1"/>
        <pt x="111" y="73" on="1"/>
        <pt x="159" y="627" on="1"/>
        <pt x="89" y="627" on="1"/>
        <pt x="96" y="700" on="1"/>
        <pt x="323" y="700" on="1"/>
        <pt x="316" y="627" on="1"/>
        <pt x="246" y="627" on="1"/>
        <pt x="198" y="73" on="1"/>
        <pt x="268" y="73" on="1"/>
        <pt x="262" y="0" on="1"/>
      </contour>
    </TTGlyph>
    <TTGlyph name="Iacute" xMin="35" yMin="0" xMax="339" yMax="841">
      <contour>
        <pt x="114" y="726" on="1"/>
        <pt x="228" y="841" on="1"/>
        <pt x="339" y="841" on="1"/>
        <pt x="197" y="726" on="1"/>
      </contour>
      <contour>
        <pt x="35" y="0" on="1"/>
        <pt x="41" y="73" on="1"/>
        <pt x="111" y="73" on="1"/>
        <pt x="159" y="627" on="1"/>
        <pt x="89" y="627" on="1"/>
        <pt x="96" y="700" on="1"/>
        <pt x="323" y="700" on="1"/>
        <pt x="316" y="627" on="1"/>
        <pt x="246" y="627" on="1"/>
        <pt x="198" y="73" on="1"/>
        <pt x="268" y="73" on="1"/>
        <pt x="262" y="0" on="1"/>
      </contour>
    </TTGlyph>
    <TTGlyph name="Icircumflex" xMin="35" yMin="0" xMax="368" yMax="845">
      <contour>
        <pt x="273" y="730" on="1"/>
        <pt x="219" y="794" on="1"/>
        <pt x="153" y="730" on="1"/>
        <pt x="55" y="730" on="1"/>
        <pt x="175" y="845" on="1"/>
        <pt x="267" y="845" on="1"/>
        <pt x="368" y="730" on="1"/>
      </contour>
      <contour>
        <pt x="35" y="0" on="1"/>
        <pt x="41" y="73" on="1"/>
        <pt x="111" y="73" on="1"/>
        <pt x="159" y="627" on="1"/>
        <pt x="89" y="627" on="1"/>
        <pt x="96" y="700" on="1"/>
        <pt x="323" y="700" on="1"/>
        <pt x="316" y="627" on="1"/>
        <pt x="246" y="627" on="1"/>
        <pt x="198" y="73" on="1"/>
        <pt x="268" y="73" on="1"/>
        <pt x="262" y="0" on="1"/>
      </contour>
    </TTGlyph>
    <TTGlyph name="Idieresis" xMin="35" yMin="0" xMax="363" yMax="815">
      <contour>
        <pt x="35" y="0" on="1"/>
        <pt x="41" y="73" on="1"/>
        <pt x="111" y="73" on="1"/>
        <pt x="159" y="627" on="1"/>
        <pt x="89" y="627" on="1"/>
        <pt x="96" y="700" on="1"/>
        <pt x="323" y="700" on="1"/>
        <pt x="316" y="627" on="1"/>
        <pt x="246" y="627" on="1"/>
        <pt x="198" y="73" on="1"/>
        <pt x="268" y="73" on="1"/>
        <pt x="262" y="0" on="1"/>
      </contour>
      <contour>
        <pt x="271" y="735" on="1"/>
        <pt x="278" y="815" on="1"/>
        <pt x="363" y="815" on="1"/>
        <pt x="356" y="735" on="1"/>
      </contour>
      <contour>
        <pt x="71" y="735" on="1"/>
        <pt x="78" y="815" on="1"/>
        <pt x="163" y="815" on="1"/>
        <pt x="156" y="735" on="1"/>
      </contour>
    </TTGlyph>
    <TTGlyph name="Igrave" xMin="35" yMin="0" xMax="323" yMax="841">
      <contour>
        <pt x="223" y="726" on="1"/>
        <pt x="101" y="841" on="1"/>
        <pt x="212" y="841" on="1"/>
        <pt x="306" y="726" on="1"/>
      </contour>
      <contour>
        <pt x="35" y="0" on="1"/>
        <pt x="41" y="73" on="1"/>
        <pt x="111" y="73" on="1"/>
        <pt x="159" y="627" on="1"/>
        <pt x="89" y="627" on="1"/>
        <pt x="96" y="700" on="1"/>
        <pt x="323" y="700" on="1"/>
        <pt x="316" y="627" on="1"/>
        <pt x="246" y="627" on="1"/>
        <pt x="198" y="73" on="1"/>
        <pt x="268" y="73" on="1"/>
        <pt x="262" y="0" on="1"/>
      </contour>
    </TTGlyph>
    <TTGlyph name="J" xMin="25" yMin="-7" xMax="371" yMax="700">
      <contour>
        <pt x="331" y="251" on="1"/>
        <pt x="324" y="170" on="0"/>
        <pt x="297" y="69" on="0"/>
        <pt x="250" y="13" on="0"/>
        <pt x="181" y="-7" on="0"/>
        <pt x="131" y="-7" on="1"/>
        <pt x="122" y="-7" on="0"/>
        <pt x="96" y="-5" on="0"/>
        <pt x="67" y="-1" on="0"/>
        <pt x="37" y="3" on="0"/>
        <pt x="25" y="5" on="1"/>
        <pt x="31" y="78" on="1"/>
        <pt x="42" y="76" on="0"/>
        <pt x="71" y="73" on="0"/>
        <pt x="101" y="70" on="0"/>
        <pt x="126" y="68" on="0"/>
        <pt x="132" y="68" on="1"/>
        <pt x="159" y="68" on="0"/>
        <pt x="197" y="80" on="0"/>
        <pt x="223" y="117" on="0"/>
        <pt x="239" y="187" on="0"/>
        <pt x="244" y="244" on="1"/>
        <pt x="277" y="627" on="1"/>
        <pt x="116" y="627" on="1"/>
        <pt x="123" y="700" on="1"/>
        <pt x="371" y="700" on="1"/>
        <pt x="331" y="251" on="1"/>
      </contour>
    </TTGlyph>
    <TTGlyph name="K" xMin="75" yMin="0" xMax="503" yMax="700">
      <contour>
        <pt x="356" y="0" on="1"/>
        <pt x="226" y="321" on="1"/>
        <pt x="184" y="261" on="1"/>
        <pt x="162" y="0" on="1"/>
        <pt x="75" y="0" on="1"/>
        <pt x="136" y="700" on="1"/>
        <pt x="223" y="700" on="1"/>
        <pt x="196" y="393" on="1"/>
        <pt x="410" y="700" on="1"/>
        <pt x="503" y="700" on="1"/>
        <pt x="286" y="394" on="1"/>
        <pt x="452" y="0" on="1"/>
      </contour>
    </TTGlyph>
    <TTGlyph name="L" xMin="75" yMin="0" xMax="391" yMax="700">
      <contour>
        <pt x="75" y="0" on="1"/>
        <pt x="136" y="700" on="1"/>
        <pt x="223" y="700" on="1"/>
        <pt x="168" y="76" on="1"/>
        <pt x="391" y="76" on="1"/>
        <pt x="385" y="0" on="1"/>
      </contour>
    </TTGlyph>
    <TTGlyph name="Lslash" xMin="41" yMin="0" xMax="391" yMax="700">
      <contour>
        <pt x="75" y="0" on="1"/>
        <pt x="103" y="329" on="1"/>
        <pt x="41" y="300" on="1"/>
        <pt x="48" y="380" on="1"/>
        <pt x="110" y="409" on="1"/>
        <pt x="136" y="700" on="1"/>
        <pt x="223" y="700" on="1"/>
        <pt x="201" y="451" on="1"/>
        <pt x="329" y="510" on="1"/>
        <pt x="322" y="430" on="1"/>
        <pt x="194" y="371" on="1"/>
        <pt x="168" y="76" on="1"/>
        <pt x="391" y="76" on="1"/>
        <pt x="385" y="0" on="1"/>
      </contour>
    </TTGlyph>
    <TTGlyph name="M" xMin="75" yMin="0" xMax="596" yMax="700">
      <contour>
        <pt x="454" y="0" on="1"/>
        <pt x="508" y="628" on="1"/>
        <pt x="365" y="235" on="1"/>
        <pt x="282" y="235" on="1"/>
        <pt x="209" y="628" on="1"/>
        <pt x="155" y="0" on="1"/>
        <pt x="75" y="0" on="1"/>
        <pt x="136" y="700" on="1"/>
        <pt x="277" y="700" on="1"/>
        <pt x="336" y="342" on="1"/>
        <pt x="460" y="700" on="1"/>
        <pt x="596" y="700" on="1"/>
        <pt x="535" y="0" on="1"/>
      </contour>
    </TTGlyph>
    <TTGlyph name="N" xMin="75" yMin="0" xMax="513" yMax="700">
      <contour>
        <pt x="309" y="0" on="1"/>
        <pt x="210" y="626" on="1"/>
        <pt x="156" y="0" on="1"/>
        <pt x="75" y="0" on="1"/>
        <pt x="136" y="700" on="1"/>
        <pt x="278" y="700" on="1"/>
        <pt x="377" y="74" on="1"/>
        <pt x="432" y="700" on="1"/>
        <pt x="513" y="700" on="1"/>
        <pt x="452" y="0" on="1"/>
      </contour>
    </TTGlyph>
    <TTGlyph name="Ntilde" xMin="75" yMin="0" xMax="513" yMax="840">
      <contour>
        <pt x="309" y="0" on="1"/>
        <pt x="210" y="626" on="1"/>
        <pt x="156" y="0" on="1"/>
        <pt x="75" y="0" on="1"/>
        <pt x="136" y="700" on="1"/>
        <pt x="278" y="700" on="1"/>
        <pt x="377" y="74" on="1"/>
        <pt x="432" y="700" on="1"/>
        <pt x="513" y="700" on="1"/>
        <pt x="452" y="0" on="1"/>
      </contour>
      <contour>
        <pt x="197" y="807" on="1"/>
        <pt x="221" y="826" on="0"/>
        <pt x="266" y="840" on="0"/>
        <pt x="286" y="840" on="1"/>
        <pt x="304" y="840" on="0"/>
        <pt x="331" y="828" on="0"/>
        <pt x="357" y="813" on="0"/>
        <pt x="381" y="801" on="0"/>
        <pt x="396" y="801" on="1"/>
        <pt x="422" y="801" on="0"/>
        <pt x="458" y="820" on="0"/>
        <pt x="479" y="837" on="1"/>
        <pt x="473" y="764" on="1"/>
        <pt x="452" y="745" on="0"/>
        <pt x="410" y="731" on="0"/>
        <pt x="384" y="731" on="1"/>
        <pt x="365" y="731" on="0"/>
        <pt x="338" y="743" on="0"/>
        <pt x="314" y="758" on="0"/>
        <pt x="290" y="770" on="0"/>
        <pt x="274" y="770" on="1"/>
        <pt x="248" y="770" on="0"/>
        <pt x="207" y="748" on="0"/>
        <pt x="190" y="734" on="1"/>
      </contour>
    </TTGlyph>
    <TTGlyph name="O" xMin="81" yMin="-7" xMax="509" yMax="707">
      <contour>
        <pt x="414" y="353" on="1"/>
        <pt x="417" y="388" on="0"/>
        <pt x="421" y="447" on="0"/>
        <pt x="421" y="473" on="1"/>
        <pt x="421" y="519" on="0"/>
        <pt x="409" y="581" on="0"/>
        <pt x="384" y="618" on="0"/>
        <pt x="346" y="634" on="0"/>
        <pt x="319" y="634" on="1"/>
        <pt x="286" y="634" on="0"/>
        <pt x="238" y="608" on="0"/>
        <pt x="204" y="544" on="0"/>
        <pt x="182" y="436" on="0"/>
        <pt x="174" y="353" on="1"/>
        <pt x="174" y="347" on="0"/>
        <pt x="172" y="313" on="0"/>
        <pt x="170" y="275" on="0"/>
        <pt x="168" y="243" on="0"/>
        <pt x="168" y="238" on="1"/>
        <pt x="168" y="144" on="0"/>
        <pt x="216" y="66" on="0"/>
        <pt x="269" y="66" on="1"/>
        <pt x="303" y="66" on="0"/>
        <pt x="351" y="95" on="0"/>
        <pt x="386" y="163" on="0"/>
        <pt x="407" y="272" on="0"/>
      </contour>
      <contour>
        <pt x="504" y="358" on="1"/>
        <pt x="496" y="266" on="0"/>
        <pt x="466" y="129" on="0"/>
        <pt x="412" y="38" on="0"/>
        <pt x="327" y="-7" on="0"/>
        <pt x="263" y="-7" on="1"/>
        <pt x="211" y="-7" on="0"/>
        <pt x="141" y="26" on="0"/>
        <pt x="99" y="93" on="0"/>
        <pt x="81" y="194" on="0"/>
        <pt x="81" y="261" on="1"/>
        <pt x="81" y="266" on="0"/>
        <pt x="82" y="293" on="0"/>
        <pt x="84" y="325" on="0"/>
        <pt x="86" y="353" on="0"/>
        <pt x="86" y="358" on="1"/>
        <pt x="94" y="446" on="0"/>
        <pt x="122" y="577" on="0"/>
        <pt x="176" y="664" on="0"/>
        <pt x="261" y="707" on="0"/>
        <pt x="325" y="707" on="1"/>
        <pt x="427" y="707" on="0"/>
        <pt x="509" y="585" on="0"/>
        <pt x="509" y="461" on="1"/>
        <pt x="509" y="437" on="0"/>
        <pt x="506" y="386" on="0"/>
      </contour>
    </TTGlyph>
    <TTGlyph name="OE" xMin="81" yMin="-7" xMax="757" yMax="707">
      <contour>
        <pt x="317" y="0" on="1"/>
        <pt x="304" y="-2" on="0"/>
        <pt x="277" y="-7" on="0"/>
        <pt x="263" y="-7" on="1"/>
        <pt x="165" y="-7" on="0"/>
        <pt x="81" y="121" on="0"/>
        <pt x="81" y="250" on="1"/>
        <pt x="81" y="275" on="0"/>
        <pt x="84" y="329" on="0"/>
        <pt x="86" y="358" on="1"/>
        <pt x="94" y="446" on="0"/>
        <pt x="122" y="577" on="0"/>
        <pt x="176" y="664" on="0"/>
        <pt x="261" y="707" on="0"/>
        <pt x="325" y="707" on="1"/>
        <pt x="339" y="707" on="0"/>
        <pt x="366" y="702" on="0"/>
        <pt x="378" y="700" on="1"/>
        <pt x="757" y="700" on="1"/>
        <pt x="750" y="627" on="1"/>
        <pt x="473" y="627" on="1"/>
        <pt x="502" y="570" on="0"/>
        <pt x="502" y="467" on="1"/>
        <pt x="502" y="434" on="0"/>
        <pt x="499" y="398" on="1"/>
        <pt x="705" y="398" on="1"/>
        <pt x="699" y="325" on="1"/>
        <pt x="494" y="325" on="1"/>
        <pt x="485" y="239" on="0"/>
        <pt x="455" y="114" on="0"/>
        <pt x="427" y="73" on="1"/>
        <pt x="702" y="73" on="1"/>
        <pt x="696" y="0" on="1"/>
      </contour>
      <contour>
        <pt x="409" y="353" on="1"/>
        <pt x="413" y="391" on="0"/>
        <pt x="416" y="455" on="0"/>
        <pt x="416" y="481" on="1"/>
        <pt x="416" y="525" on="0"/>
        <pt x="405" y="584" on="0"/>
        <pt x="382" y="619" on="0"/>
        <pt x="345" y="634" on="0"/>
        <pt x="319" y="634" on="1"/>
        <pt x="285" y="634" on="0"/>
        <pt x="237" y="608" on="0"/>
        <pt x="203" y="544" on="0"/>
        <pt x="182" y="436" on="0"/>
        <pt x="174" y="353" on="1"/>
        <pt x="168" y="287" on="0"/>
        <pt x="168" y="238" on="1"/>
        <pt x="168" y="144" on="0"/>
        <pt x="216" y="66" on="0"/>
        <pt x="269" y="66" on="1"/>
        <pt x="303" y="66" on="0"/>
        <pt x="350" y="95" on="0"/>
        <pt x="382" y="163" on="0"/>
        <pt x="402" y="272" on="0"/>
      </contour>
    </TTGlyph>
    <TTGlyph name="Oacute" xMin="81" yMin="-7" xMax="509" yMax="841">
      <contour>
        <pt x="259" y="726" on="1"/>
        <pt x="373" y="841" on="1"/>
        <pt x="484" y="841" on="1"/>
        <pt x="342" y="726" on="1"/>
      </contour>
      <contour>
        <pt x="414" y="353" on="1"/>
        <pt x="417" y="388" on="0"/>
        <pt x="421" y="447" on="0"/>
        <pt x="421" y="473" on="1"/>
        <pt x="421" y="519" on="0"/>
        <pt x="409" y="581" on="0"/>
        <pt x="384" y="618" on="0"/>
        <pt x="346" y="634" on="0"/>
        <pt x="319" y="634" on="1"/>
        <pt x="286" y="634" on="0"/>
        <pt x="238" y="608" on="0"/>
        <pt x="204" y="544" on="0"/>
        <pt x="182" y="436" on="0"/>
        <pt x="174" y="353" on="1"/>
        <pt x="174" y="347" on="0"/>
        <pt x="172" y="313" on="0"/>
        <pt x="170" y="275" on="0"/>
        <pt x="168" y="243" on="0"/>
        <pt x="168" y="238" on="1"/>
        <pt x="168" y="144" on="0"/>
        <pt x="216" y="66" on="0"/>
        <pt x="269" y="66" on="1"/>
        <pt x="303" y="66" on="0"/>
        <pt x="351" y="95" on="0"/>
        <pt x="386" y="163" on="0"/>
        <pt x="407" y="272" on="0"/>
      </contour>
      <contour>
        <pt x="504" y="358" on="1"/>
        <pt x="496" y="266" on="0"/>
        <pt x="466" y="129" on="0"/>
        <pt x="412" y="38" on="0"/>
        <pt x="327" y="-7" on="0"/>
        <pt x="263" y="-7" on="1"/>
        <pt x="211" y="-7" on="0"/>
        <pt x="141" y="26" on="0"/>
        <pt x="99" y="93" on="0"/>
        <pt x="81" y="194" on="0"/>
        <pt x="81" y="261" on="1"/>
        <pt x="81" y="266" on="0"/>
        <pt x="82" y="293" on="0"/>
        <pt x="84" y="325" on="0"/>
        <pt x="86" y="353" on="0"/>
        <pt x="86" y="358" on="1"/>
        <pt x="94" y="446" on="0"/>
        <pt x="122" y="577" on="0"/>
        <pt x="176" y="664" on="0"/>
        <pt x="261" y="707" on="0"/>
        <pt x="325" y="707" on="1"/>
        <pt x="427" y="707" on="0"/>
        <pt x="509" y="585" on="0"/>
        <pt x="509" y="461" on="1"/>
        <pt x="509" y="437" on="0"/>
        <pt x="506" y="386" on="0"/>
      </contour>
    </TTGlyph>
    <TTGlyph name="Ocircumflex" xMin="81" yMin="-7" xMax="509" yMax="845">
      <contour>
        <pt x="387" y="730" on="1"/>
        <pt x="333" y="794" on="1"/>
        <pt x="267" y="730" on="1"/>
        <pt x="171" y="730" on="1"/>
        <pt x="291" y="845" on="1"/>
        <pt x="383" y="845" on="1"/>
        <pt x="484" y="730" on="1"/>
      </contour>
      <contour>
        <pt x="414" y="353" on="1"/>
        <pt x="417" y="388" on="0"/>
        <pt x="421" y="447" on="0"/>
        <pt x="421" y="473" on="1"/>
        <pt x="421" y="519" on="0"/>
        <pt x="409" y="581" on="0"/>
        <pt x="384" y="618" on="0"/>
        <pt x="346" y="634" on="0"/>
        <pt x="319" y="634" on="1"/>
        <pt x="286" y="634" on="0"/>
        <pt x="238" y="608" on="0"/>
        <pt x="204" y="544" on="0"/>
        <pt x="182" y="436" on="0"/>
        <pt x="174" y="353" on="1"/>
        <pt x="174" y="347" on="0"/>
        <pt x="172" y="313" on="0"/>
        <pt x="170" y="275" on="0"/>
        <pt x="168" y="243" on="0"/>
        <pt x="168" y="238" on="1"/>
        <pt x="168" y="144" on="0"/>
        <pt x="216" y="66" on="0"/>
        <pt x="269" y="66" on="1"/>
        <pt x="303" y="66" on="0"/>
        <pt x="351" y="95" on="0"/>
        <pt x="386" y="163" on="0"/>
        <pt x="407" y="272" on="0"/>
      </contour>
      <contour>
        <pt x="504" y="358" on="1"/>
        <pt x="496" y="266" on="0"/>
        <pt x="466" y="129" on="0"/>
        <pt x="412" y="38" on="0"/>
        <pt x="327" y="-7" on="0"/>
        <pt x="263" y="-7" on="1"/>
        <pt x="211" y="-7" on="0"/>
        <pt x="141" y="26" on="0"/>
        <pt x="99" y="93" on="0"/>
        <pt x="81" y="194" on="0"/>
        <pt x="81" y="261" on="1"/>
        <pt x="81" y="266" on="0"/>
        <pt x="82" y="293" on="0"/>
        <pt x="84" y="325" on="0"/>
        <pt x="86" y="353" on="0"/>
        <pt x="86" y="358" on="1"/>
        <pt x="94" y="446" on="0"/>
        <pt x="122" y="577" on="0"/>
        <pt x="176" y="664" on="0"/>
        <pt x="261" y="707" on="0"/>
        <pt x="325" y="707" on="1"/>
        <pt x="427" y="707" on="0"/>
        <pt x="509" y="585" on="0"/>
        <pt x="509" y="461" on="1"/>
        <pt x="509" y="437" on="0"/>
        <pt x="506" y="386" on="0"/>
      </contour>
    </TTGlyph>
    <TTGlyph name="Odieresis" xMin="81" yMin="-7" xMax="509" yMax="815">
      <contour>
        <pt x="386" y="735" on="1"/>
        <pt x="393" y="815" on="1"/>
        <pt x="478" y="815" on="1"/>
        <pt x="471" y="735" on="1"/>
      </contour>
      <contour>
        <pt x="186" y="735" on="1"/>
        <pt x="193" y="815" on="1"/>
        <pt x="278" y="815" on="1"/>
        <pt x="271" y="735" on="1"/>
      </contour>
      <contour>
        <pt x="414" y="353" on="1"/>
        <pt x="417" y="388" on="0"/>
        <pt x="421" y="447" on="0"/>
        <pt x="421" y="473" on="1"/>
        <pt x="421" y="519" on="0"/>
        <pt x="409" y="581" on="0"/>
        <pt x="384" y="618" on="0"/>
        <pt x="346" y="634" on="0"/>
        <pt x="319" y="634" on="1"/>
        <pt x="286" y="634" on="0"/>
        <pt x="238" y="608" on="0"/>
        <pt x="204" y="544" on="0"/>
        <pt x="182" y="436" on="0"/>
        <pt x="174" y="353" on="1"/>
        <pt x="174" y="347" on="0"/>
        <pt x="172" y="313" on="0"/>
        <pt x="170" y="275" on="0"/>
        <pt x="168" y="243" on="0"/>
        <pt x="168" y="238" on="1"/>
        <pt x="168" y="144" on="0"/>
        <pt x="216" y="66" on="0"/>
        <pt x="269" y="66" on="1"/>
        <pt x="303" y="66" on="0"/>
        <pt x="351" y="95" on="0"/>
        <pt x="386" y="163" on="0"/>
        <pt x="407" y="272" on="0"/>
      </contour>
      <contour>
        <pt x="504" y="358" on="1"/>
        <pt x="496" y="266" on="0"/>
        <pt x="466" y="129" on="0"/>
        <pt x="412" y="38" on="0"/>
        <pt x="327" y="-7" on="0"/>
        <pt x="263" y="-7" on="1"/>
        <pt x="211" y="-7" on="0"/>
        <pt x="141" y="26" on="0"/>
        <pt x="99" y="93" on="0"/>
        <pt x="81" y="194" on="0"/>
        <pt x="81" y="261" on="1"/>
        <pt x="81" y="266" on="0"/>
        <pt x="82" y="293" on="0"/>
        <pt x="84" y="325" on="0"/>
        <pt x="86" y="353" on="0"/>
        <pt x="86" y="358" on="1"/>
        <pt x="94" y="446" on="0"/>
        <pt x="122" y="577" on="0"/>
        <pt x="176" y="664" on="0"/>
        <pt x="261" y="707" on="0"/>
        <pt x="325" y="707" on="1"/>
        <pt x="427" y="707" on="0"/>
        <pt x="509" y="585" on="0"/>
        <pt x="509" y="461" on="1"/>
        <pt x="509" y="437" on="0"/>
        <pt x="506" y="386" on="0"/>
      </contour>
    </TTGlyph>
    <TTGlyph name="Ograve" xMin="81" yMin="-7" xMax="509" yMax="841">
      <contour>
        <pt x="316" y="726" on="1"/>
        <pt x="194" y="841" on="1"/>
        <pt x="305" y="841" on="1"/>
        <pt x="399" y="726" on="1"/>
      </contour>
      <contour>
        <pt x="414" y="353" on="1"/>
        <pt x="417" y="388" on="0"/>
        <pt x="421" y="447" on="0"/>
        <pt x="421" y="473" on="1"/>
        <pt x="421" y="519" on="0"/>
        <pt x="409" y="581" on="0"/>
        <pt x="384" y="618" on="0"/>
        <pt x="346" y="634" on="0"/>
        <pt x="319" y="634" on="1"/>
        <pt x="286" y="634" on="0"/>
        <pt x="238" y="608" on="0"/>
        <pt x="204" y="544" on="0"/>
        <pt x="182" y="436" on="0"/>
        <pt x="174" y="353" on="1"/>
        <pt x="174" y="347" on="0"/>
        <pt x="172" y="313" on="0"/>
        <pt x="170" y="275" on="0"/>
        <pt x="168" y="243" on="0"/>
        <pt x="168" y="238" on="1"/>
        <pt x="168" y="144" on="0"/>
        <pt x="216" y="66" on="0"/>
        <pt x="269" y="66" on="1"/>
        <pt x="303" y="66" on="0"/>
        <pt x="351" y="95" on="0"/>
        <pt x="386" y="163" on="0"/>
        <pt x="407" y="272" on="0"/>
      </contour>
      <contour>
        <pt x="504" y="358" on="1"/>
        <pt x="496" y="266" on="0"/>
        <pt x="466" y="129" on="0"/>
        <pt x="412" y="38" on="0"/>
        <pt x="327" y="-7" on="0"/>
        <pt x="263" y="-7" on="1"/>
        <pt x="211" y="-7" on="0"/>
        <pt x="141" y="26" on="0"/>
        <pt x="99" y="93" on="0"/>
        <pt x="81" y="194" on="0"/>
        <pt x="81" y="261" on="1"/>
        <pt x="81" y="266" on="0"/>
        <pt x="82" y="293" on="0"/>
        <pt x="84" y="325" on="0"/>
        <pt x="86" y="353" on="0"/>
        <pt x="86" y="358" on="1"/>
        <pt x="94" y="446" on="0"/>
        <pt x="122" y="577" on="0"/>
        <pt x="176" y="664" on="0"/>
        <pt x="261" y="707" on="0"/>
        <pt x="325" y="707" on="1"/>
        <pt x="427" y="707" on="0"/>
        <pt x="509" y="585" on="0"/>
        <pt x="509" y="461" on="1"/>
        <pt x="509" y="437" on="0"/>
        <pt x="506" y="386" on="0"/>
      </contour>
    </TTGlyph>
    <TTGlyph name="Omega" xMin="60" yMin="0" xMax="509" yMax="707">
      <contour>
        <pt x="60" y="0" on="1"/>
        <pt x="66" y="72" on="1"/>
        <pt x="123" y="72" on="1"/>
        <pt x="100" y="98" on="0"/>
        <pt x="80" y="183" on="0"/>
        <pt x="80" y="245" on="1"/>
        <pt x="80" y="250" on="0"/>
        <pt x="82" y="282" on="0"/>
        <pt x="84" y="319" on="0"/>
        <pt x="86" y="352" on="0"/>
        <pt x="86" y="358" on="1"/>
        <pt x="94" y="446" on="0"/>
        <pt x="123" y="577" on="0"/>
        <pt x="177" y="664" on="0"/>
        <pt x="262" y="707" on="0"/>
        <pt x="325" y="707" on="1"/>
        <pt x="427" y="707" on="0"/>
        <pt x="509" y="586" on="0"/>
        <pt x="509" y="461" on="1"/>
        <pt x="509" y="457" on="0"/>
        <pt x="508" y="427" on="0"/>
        <pt x="506" y="394" on="0"/>
        <pt x="504" y="364" on="0"/>
        <pt x="504" y="358" on="1"/>
        <pt x="494" y="248" on="0"/>
        <pt x="455" y="110" on="0"/>
        <pt x="416" y="72" on="1"/>
        <pt x="476" y="72" on="1"/>
        <pt x="470" y="0" on="1"/>
        <pt x="307" y="0" on="1"/>
        <pt x="313" y="75" on="1"/>
        <pt x="335" y="84" on="0"/>
        <pt x="368" y="123" on="0"/>
        <pt x="392" y="190" on="0"/>
        <pt x="408" y="287" on="0"/>
        <pt x="414" y="353" on="1"/>
        <pt x="420" y="424" on="0"/>
        <pt x="420" y="473" on="1"/>
        <pt x="420" y="520" on="0"/>
        <pt x="408" y="581" on="0"/>
        <pt x="384" y="619" on="0"/>
        <pt x="346" y="634" on="0"/>
        <pt x="319" y="634" on="1"/>
        <pt x="285" y="634" on="0"/>
        <pt x="237" y="608" on="0"/>
        <pt x="203" y="544" on="0"/>
        <pt x="182" y="436" on="0"/>
        <pt x="174" y="353" on="1"/>
        <pt x="168" y="286" on="0"/>
        <pt x="168" y="237" on="1"/>
        <pt x="168" y="163" on="0"/>
        <pt x="197" y="87" on="0"/>
        <pt x="229" y="74" on="1"/>
        <pt x="223" y="0" on="1"/>
      </contour>
    </TTGlyph>
    <TTGlyph name="Oslash" xMin="81" yMin="-91" xMax="509" yMax="791">
      <contour>
        <pt x="504" y="358" on="1"/>
        <pt x="496" y="266" on="0"/>
        <pt x="466" y="129" on="0"/>
        <pt x="412" y="38" on="0"/>
        <pt x="327" y="-7" on="0"/>
        <pt x="263" y="-7" on="1"/>
        <pt x="228" y="-7" on="0"/>
        <pt x="198" y="1" on="1"/>
        <pt x="162" y="-91" on="1"/>
        <pt x="87" y="-91" on="1"/>
        <pt x="137" y="38" on="1"/>
        <pt x="106" y="70" on="0"/>
        <pt x="81" y="181" on="0"/>
        <pt x="81" y="261" on="1"/>
        <pt x="81" y="266" on="0"/>
        <pt x="82" y="293" on="0"/>
        <pt x="84" y="325" on="0"/>
        <pt x="86" y="353" on="0"/>
        <pt x="86" y="358" on="1"/>
        <pt x="94" y="446" on="0"/>
        <pt x="122" y="577" on="0"/>
        <pt x="176" y="664" on="0"/>
        <pt x="261" y="707" on="0"/>
        <pt x="325" y="707" on="1"/>
        <pt x="362" y="707" on="0"/>
        <pt x="392" y="698" on="1"/>
        <pt x="428" y="791" on="1"/>
        <pt x="504" y="791" on="1"/>
        <pt x="454" y="662" on="1"/>
        <pt x="483" y="632" on="0"/>
        <pt x="509" y="532" on="0"/>
        <pt x="509" y="461" on="1"/>
        <pt x="509" y="437" on="0"/>
        <pt x="506" y="386" on="0"/>
      </contour>
      <contour>
        <pt x="168" y="238" on="1"/>
        <pt x="168" y="180" on="0"/>
        <pt x="177" y="142" on="1"/>
        <pt x="364" y="626" on="1"/>
        <pt x="343" y="634" on="0"/>
        <pt x="319" y="634" on="1"/>
        <pt x="286" y="634" on="0"/>
        <pt x="238" y="608" on="0"/>
        <pt x="204" y="544" on="0"/>
        <pt x="182" y="436" on="0"/>
        <pt x="174" y="353" on="1"/>
        <pt x="174" y="347" on="0"/>
        <pt x="172" y="313" on="0"/>
        <pt x="170" y="275" on="0"/>
        <pt x="168" y="243" on="0"/>
      </contour>
      <contour>
        <pt x="414" y="353" on="1"/>
        <pt x="417" y="388" on="0"/>
        <pt x="421" y="447" on="0"/>
        <pt x="421" y="473" on="1"/>
        <pt x="421" y="522" on="0"/>
        <pt x="413" y="557" on="1"/>
        <pt x="226" y="74" on="1"/>
        <pt x="242" y="66" on="0"/>
        <pt x="269" y="66" on="1"/>
        <pt x="303" y="66" on="0"/>
        <pt x="351" y="95" on="0"/>
        <pt x="386" y="163" on="0"/>
        <pt x="407" y="272" on="0"/>
      </contour>
    </TTGlyph>
    <TTGlyph name="Otilde" xMin="81" yMin="-7" xMax="509" yMax="840">
      <contour>
        <pt x="414" y="353" on="1"/>
        <pt x="417" y="388" on="0"/>
        <pt x="421" y="447" on="0"/>
        <pt x="421" y="473" on="1"/>
        <pt x="421" y="519" on="0"/>
        <pt x="409" y="581" on="0"/>
        <pt x="384" y="618" on="0"/>
        <pt x="346" y="634" on="0"/>
        <pt x="319" y="634" on="1"/>
        <pt x="286" y="634" on="0"/>
        <pt x="238" y="608" on="0"/>
        <pt x="204" y="544" on="0"/>
        <pt x="182" y="436" on="0"/>
        <pt x="174" y="353" on="1"/>
        <pt x="174" y="347" on="0"/>
        <pt x="172" y="313" on="0"/>
        <pt x="170" y="275" on="0"/>
        <pt x="168" y="243" on="0"/>
        <pt x="168" y="238" on="1"/>
        <pt x="168" y="144" on="0"/>
        <pt x="216" y="66" on="0"/>
        <pt x="269" y="66" on="1"/>
        <pt x="303" y="66" on="0"/>
        <pt x="351" y="95" on="0"/>
        <pt x="386" y="163" on="0"/>
        <pt x="407" y="272" on="0"/>
      </contour>
      <contour>
        <pt x="504" y="358" on="1"/>
        <pt x="496" y="266" on="0"/>
        <pt x="466" y="129" on="0"/>
        <pt x="412" y="38" on="0"/>
        <pt x="327" y="-7" on="0"/>
        <pt x="263" y="-7" on="1"/>
        <pt x="211" y="-7" on="0"/>
        <pt x="141" y="26" on="0"/>
        <pt x="99" y="93" on="0"/>
        <pt x="81" y="194" on="0"/>
        <pt x="81" y="261" on="1"/>
        <pt x="81" y="266" on="0"/>
        <pt x="82" y="293" on="0"/>
        <pt x="84" y="325" on="0"/>
        <pt x="86" y="353" on="0"/>
        <pt x="86" y="358" on="1"/>
        <pt x="94" y="446" on="0"/>
        <pt x="122" y="577" on="0"/>
        <pt x="176" y="664" on="0"/>
        <pt x="261" y="707" on="0"/>
        <pt x="325" y="707" on="1"/>
        <pt x="427" y="707" on="0"/>
        <pt x="509" y="585" on="0"/>
        <pt x="509" y="461" on="1"/>
        <pt x="509" y="437" on="0"/>
        <pt x="506" y="386" on="0"/>
      </contour>
      <contour>
        <pt x="198" y="807" on="1"/>
        <pt x="222" y="826" on="0"/>
        <pt x="267" y="840" on="0"/>
        <pt x="287" y="840" on="1"/>
        <pt x="305" y="840" on="0"/>
        <pt x="332" y="828" on="0"/>
        <pt x="358" y="813" on="0"/>
        <pt x="382" y="801" on="0"/>
        <pt x="397" y="801" on="1"/>
        <pt x="423" y="801" on="0"/>
        <pt x="459" y="820" on="0"/>
        <pt x="480" y="837" on="1"/>
        <pt x="474" y="764" on="1"/>
        <pt x="453" y="745" on="0"/>
        <pt x="411" y="731" on="0"/>
        <pt x="385" y="731" on="1"/>
        <pt x="366" y="731" on="0"/>
        <pt x="339" y="743" on="0"/>
        <pt x="315" y="758" on="0"/>
        <pt x="291" y="770" on="0"/>
        <pt x="275" y="770" on="1"/>
        <pt x="249" y="770" on="0"/>
        <pt x="208" y="748" on="0"/>
        <pt x="191" y="734" on="1"/>
      </contour>
    </TTGlyph>
    <TTGlyph name="P" xMin="75" yMin="0" xMax="485" yMax="707">
      <contour>
        <pt x="393" y="488" on="1"/>
        <pt x="394" y="499" on="0"/>
        <pt x="395" y="519" on="0"/>
        <pt x="395" y="529" on="1"/>
        <pt x="395" y="583" on="0"/>
        <pt x="357" y="635" on="0"/>
        <pt x="311" y="635" on="1"/>
        <pt x="269" y="635" on="0"/>
        <pt x="243" y="632" on="1"/>
        <pt x="228" y="630" on="0"/>
        <pt x="217" y="629" on="1"/>
        <pt x="192" y="347" on="1"/>
        <pt x="286" y="347" on="1"/>
        <pt x="307" y="347" on="0"/>
        <pt x="343" y="360" on="0"/>
        <pt x="371" y="393" on="0"/>
        <pt x="390" y="447" on="0"/>
      </contour>
      <contour>
        <pt x="485" y="529" on="1"/>
        <pt x="485" y="521" on="0"/>
        <pt x="483" y="491" on="0"/>
        <pt x="482" y="482" on="1"/>
        <pt x="478" y="430" on="0"/>
        <pt x="451" y="351" on="0"/>
        <pt x="400" y="300" on="0"/>
        <pt x="323" y="274" on="0"/>
        <pt x="269" y="274" on="1"/>
        <pt x="185" y="274" on="1"/>
        <pt x="162" y="0" on="1"/>
        <pt x="75" y="0" on="1"/>
        <pt x="136" y="700" on="1"/>
        <pt x="161" y="702" on="0"/>
        <pt x="189" y="704" on="1"/>
        <pt x="213" y="706" on="0"/>
        <pt x="274" y="707" on="0"/>
        <pt x="305" y="707" on="1"/>
        <pt x="354" y="707" on="0"/>
        <pt x="422" y="681" on="0"/>
        <pt x="465" y="634" on="0"/>
        <pt x="485" y="568" on="0"/>
      </contour>
    </TTGlyph>
    <TTGlyph name="Q" xMin="81" yMin="-84" xMax="509" yMax="707">
      <contour>
        <pt x="504" y="358" on="1"/>
        <pt x="492" y="226" on="0"/>
        <pt x="436" y="60" on="0"/>
        <pt x="378" y="22" on="1"/>
        <pt x="493" y="0" on="1"/>
        <pt x="485" y="-84" on="1"/>
        <pt x="263" y="-7" on="1"/>
        <pt x="211" y="-7" on="0"/>
        <pt x="141" y="26" on="0"/>
        <pt x="99" y="93" on="0"/>
        <pt x="81" y="194" on="0"/>
        <pt x="81" y="261" on="1"/>
        <pt x="81" y="266" on="0"/>
        <pt x="82" y="293" on="0"/>
        <pt x="84" y="325" on="0"/>
        <pt x="86" y="353" on="0"/>
        <pt x="86" y="358" on="1"/>
        <pt x="94" y="446" on="0"/>
        <pt x="122" y="577" on="0"/>
        <pt x="176" y="664" on="0"/>
        <pt x="261" y="707" on="0"/>
        <pt x="325" y="707" on="1"/>
        <pt x="427" y="707" on="0"/>
        <pt x="509" y="585" on="0"/>
        <pt x="509" y="461" on="1"/>
        <pt x="509" y="437" on="0"/>
        <pt x="506" y="386" on="0"/>
      </contour>
      <contour>
        <pt x="414" y="353" on="1"/>
        <pt x="417" y="388" on="0"/>
        <pt x="421" y="447" on="0"/>
        <pt x="421" y="473" on="1"/>
        <pt x="421" y="519" on="0"/>
        <pt x="409" y="581" on="0"/>
        <pt x="384" y="618" on="0"/>
        <pt x="346" y="634" on="0"/>
        <pt x="319" y="634" on="1"/>
        <pt x="286" y="634" on="0"/>
        <pt x="238" y="608" on="0"/>
        <pt x="204" y="544" on="0"/>
        <pt x="182" y="436" on="0"/>
        <pt x="174" y="353" on="1"/>
        <pt x="174" y="347" on="0"/>
        <pt x="172" y="313" on="0"/>
        <pt x="170" y="275" on="0"/>
        <pt x="168" y="243" on="0"/>
        <pt x="168" y="238" on="1"/>
        <pt x="168" y="144" on="0"/>
        <pt x="216" y="66" on="0"/>
        <pt x="269" y="66" on="1"/>
        <pt x="303" y="66" on="0"/>
        <pt x="351" y="95" on="0"/>
        <pt x="386" y="163" on="0"/>
        <pt x="407" y="272" on="0"/>
      </contour>
    </TTGlyph>
    <TTGlyph name="R" xMin="75" yMin="0" xMax="484" yMax="707">
      <contour>
        <pt x="482" y="503" on="1"/>
        <pt x="474" y="425" on="0"/>
        <pt x="422" y="323" on="0"/>
        <pt x="365" y="303" on="1"/>
        <pt x="475" y="0" on="1"/>
        <pt x="381" y="0" on="1"/>
        <pt x="280" y="290" on="1"/>
        <pt x="187" y="290" on="1"/>
        <pt x="162" y="0" on="1"/>
        <pt x="75" y="0" on="1"/>
        <pt x="136" y="700" on="1"/>
        <pt x="161" y="702" on="0"/>
        <pt x="189" y="704" on="1"/>
        <pt x="213" y="706" on="0"/>
        <pt x="274" y="707" on="0"/>
        <pt x="305" y="707" on="1"/>
        <pt x="354" y="707" on="0"/>
        <pt x="422" y="683" on="0"/>
        <pt x="465" y="638" on="0"/>
        <pt x="484" y="575" on="0"/>
        <pt x="484" y="536" on="1"/>
        <pt x="484" y="528" on="0"/>
        <pt x="483" y="511" on="0"/>
      </contour>
      <contour>
        <pt x="392" y="496" on="1"/>
        <pt x="393" y="507" on="0"/>
        <pt x="394" y="526" on="0"/>
        <pt x="394" y="534" on="1"/>
        <pt x="394" y="587" on="0"/>
        <pt x="357" y="635" on="0"/>
        <pt x="311" y="635" on="1"/>
        <pt x="269" y="635" on="0"/>
        <pt x="243" y="632" on="1"/>
        <pt x="228" y="630" on="0"/>
        <pt x="217" y="629" on="1"/>
        <pt x="193" y="363" on="1"/>
        <pt x="287" y="363" on="1"/>
        <pt x="308" y="363" on="0"/>
        <pt x="343" y="374" on="0"/>
        <pt x="370" y="403" on="0"/>
        <pt x="388" y="455" on="0"/>
      </contour>
    </TTGlyph>
    <TTGlyph name="S" xMin="57" yMin="-7" xMax="411" yMax="707">
      <contour>
        <pt x="390" y="237" on="1"/>
        <pt x="390" y="170" on="0"/>
        <pt x="364" y="76" on="0"/>
        <pt x="311" y="19" on="0"/>
        <pt x="230" y="-7" on="0"/>
        <pt x="175" y="-7" on="1"/>
        <pt x="145" y="-7" on="0"/>
        <pt x="83" y="2" on="0"/>
        <pt x="57" y="9" on="1"/>
        <pt x="64" y="83" on="1"/>
        <pt x="87" y="77" on="0"/>
        <pt x="147" y="66" on="0"/>
        <pt x="188" y="66" on="1"/>
        <pt x="247" y="66" on="0"/>
        <pt x="300" y="144" on="0"/>
        <pt x="300" y="225" on="1"/>
        <pt x="300" y="251" on="0"/>
        <pt x="291" y="286" on="0"/>
        <pt x="273" y="308" on="0"/>
        <pt x="246" y="321" on="0"/>
        <pt x="229" y="325" on="1"/>
        <pt x="159" y="340" on="0"/>
        <pt x="91" y="412" on="0"/>
        <pt x="91" y="484" on="1"/>
        <pt x="91" y="546" on="0"/>
        <pt x="122" y="632" on="0"/>
        <pt x="178" y="684" on="0"/>
        <pt x="256" y="707" on="0"/>
        <pt x="303" y="707" on="1"/>
        <pt x="332" y="707" on="0"/>
        <pt x="390" y="696" on="0"/>
        <pt x="411" y="690" on="1"/>
        <pt x="404" y="617" on="1"/>
        <pt x="379" y="623" on="0"/>
        <pt x="320" y="634" on="0"/>
        <pt x="290" y="634" on="1"/>
        <pt x="268" y="634" on="0"/>
        <pt x="228" y="619" on="0"/>
        <pt x="198" y="584" on="0"/>
        <pt x="180" y="529" on="0"/>
        <pt x="180" y="490" on="1"/>
        <pt x="180" y="450" on="0"/>
        <pt x="210" y="416" on="0"/>
        <pt x="249" y="408" on="1"/>
        <pt x="281" y="401" on="0"/>
        <pt x="333" y="378" on="0"/>
        <pt x="370" y="339" on="0"/>
        <pt x="390" y="280" on="0"/>
      </contour>
    </TTGlyph>
    <TTGlyph name="Scaron" xMin="57" yMin="-7" xMax="455" yMax="844">
      <contour>
        <pt x="239" y="844" on="1"/>
        <pt x="293" y="777" on="1"/>
        <pt x="359" y="844" on="1"/>
        <pt x="455" y="844" on="1"/>
        <pt x="333" y="729" on="1"/>
        <pt x="245" y="729" on="1"/>
        <pt x="142" y="844" on="1"/>
      </contour>
      <contour>
        <pt x="390" y="237" on="1"/>
        <pt x="390" y="170" on="0"/>
        <pt x="364" y="76" on="0"/>
        <pt x="311" y="19" on="0"/>
        <pt x="230" y="-7" on="0"/>
        <pt x="175" y="-7" on="1"/>
        <pt x="145" y="-7" on="0"/>
        <pt x="83" y="2" on="0"/>
        <pt x="57" y="9" on="1"/>
        <pt x="64" y="83" on="1"/>
        <pt x="87" y="77" on="0"/>
        <pt x="147" y="66" on="0"/>
        <pt x="188" y="66" on="1"/>
        <pt x="247" y="66" on="0"/>
        <pt x="300" y="144" on="0"/>
        <pt x="300" y="225" on="1"/>
        <pt x="300" y="251" on="0"/>
        <pt x="291" y="286" on="0"/>
        <pt x="273" y="308" on="0"/>
        <pt x="246" y="321" on="0"/>
        <pt x="229" y="325" on="1"/>
        <pt x="159" y="340" on="0"/>
        <pt x="91" y="412" on="0"/>
        <pt x="91" y="484" on="1"/>
        <pt x="91" y="546" on="0"/>
        <pt x="122" y="632" on="0"/>
        <pt x="178" y="684" on="0"/>
        <pt x="256" y="707" on="0"/>
        <pt x="303" y="707" on="1"/>
        <pt x="332" y="707" on="0"/>
        <pt x="390" y="696" on="0"/>
        <pt x="411" y="690" on="1"/>
        <pt x="404" y="617" on="1"/>
        <pt x="379" y="623" on="0"/>
        <pt x="320" y="634" on="0"/>
        <pt x="290" y="634" on="1"/>
        <pt x="268" y="634" on="0"/>
        <pt x="228" y="619" on="0"/>
        <pt x="198" y="584" on="0"/>
        <pt x="180" y="529" on="0"/>
        <pt x="180" y="490" on="1"/>
        <pt x="180" y="450" on="0"/>
        <pt x="210" y="416" on="0"/>
        <pt x="249" y="408" on="1"/>
        <pt x="281" y="401" on="0"/>
        <pt x="333" y="378" on="0"/>
        <pt x="370" y="339" on="0"/>
        <pt x="390" y="280" on="0"/>
      </contour>
    </TTGlyph>
    <TTGlyph name="T" xMin="59" yMin="0" xMax="461" yMax="700">
      <contour>
        <pt x="300" y="624" on="1"/>
        <pt x="246" y="0" on="1"/>
        <pt x="159" y="0" on="1"/>
        <pt x="213" y="624" on="1"/>
        <pt x="59" y="624" on="1"/>
        <pt x="66" y="700" on="1"/>
        <pt x="461" y="700" on="1"/>
        <pt x="454" y="624" on="1"/>
      </contour>
    </TTGlyph>
    <TTGlyph name="Thorn" xMin="75" yMin="0" xMax="473" yMax="700">
      <contour>
        <pt x="470" y="350" on="1"/>
        <pt x="466" y="299" on="0"/>
        <pt x="441" y="221" on="0"/>
        <pt x="391" y="168" on="0"/>
        <pt x="314" y="141" on="0"/>
        <pt x="258" y="141" on="1"/>
        <pt x="174" y="141" on="1"/>
        <pt x="162" y="0" on="1"/>
        <pt x="75" y="0" on="1"/>
        <pt x="136" y="700" on="1"/>
        <pt x="223" y="700" on="1"/>
        <pt x="211" y="570" on="1"/>
        <pt x="230" y="571" on="0"/>
        <pt x="271" y="574" on="0"/>
        <pt x="294" y="574" on="1"/>
        <pt x="344" y="574" on="0"/>
        <pt x="412" y="548" on="0"/>
        <pt x="454" y="501" on="0"/>
        <pt x="473" y="436" on="0"/>
        <pt x="473" y="397" on="1"/>
        <pt x="473" y="389" on="0"/>
        <pt x="471" y="359" on="0"/>
      </contour>
      <contour>
        <pt x="382" y="355" on="1"/>
        <pt x="383" y="366" on="0"/>
        <pt x="384" y="384" on="0"/>
        <pt x="384" y="393" on="1"/>
        <pt x="384" y="449" on="0"/>
        <pt x="345" y="502" on="0"/>
        <pt x="299" y="502" on="1"/>
        <pt x="257" y="502" on="0"/>
        <pt x="231" y="499" on="1"/>
        <pt x="216" y="497" on="0"/>
        <pt x="205" y="496" on="1"/>
        <pt x="180" y="214" on="1"/>
        <pt x="274" y="214" on="1"/>
        <pt x="295" y="214" on="0"/>
        <pt x="331" y="227" on="0"/>
        <pt x="359" y="260" on="0"/>
        <pt x="378" y="314" on="0"/>
      </contour>
    </TTGlyph>
    <TTGlyph name="U" xMin="85" yMin="-7" xMax="506" yMax="700">
      <contour>
        <pt x="461" y="185" on="1"/>
        <pt x="452" y="83" on="0"/>
        <pt x="348" y="-7" on="0"/>
        <pt x="257" y="-7" on="1"/>
        <pt x="220" y="-7" on="0"/>
        <pt x="157" y="12" on="0"/>
        <pt x="111" y="53" on="0"/>
        <pt x="85" y="115" on="0"/>
        <pt x="85" y="158" on="1"/>
        <pt x="85" y="166" on="0"/>
        <pt x="86" y="188" on="0"/>
        <pt x="87" y="195" on="1"/>
        <pt x="131" y="700" on="1"/>
        <pt x="218" y="700" on="1"/>
        <pt x="173" y="187" on="1"/>
        <pt x="172" y="175" on="0"/>
        <pt x="171" y="156" on="0"/>
        <pt x="171" y="152" on="1"/>
        <pt x="171" y="107" on="0"/>
        <pt x="221" y="66" on="0"/>
        <pt x="263" y="66" on="1"/>
        <pt x="308" y="66" on="0"/>
        <pt x="367" y="113" on="0"/>
        <pt x="372" y="166" on="1"/>
        <pt x="419" y="700" on="1"/>
        <pt x="506" y="700" on="1"/>
      </contour>
    </TTGlyph>
    <TTGlyph name="Uacute" xMin="85" yMin="-7" xMax="506" yMax="841">
      <contour>
        <pt x="259" y="726" on="1"/>
        <pt x="373" y="841" on="1"/>
        <pt x="484" y="841" on="1"/>
        <pt x="342" y="726" on="1"/>
      </contour>
      <contour>
        <pt x="461" y="185" on="1"/>
        <pt x="452" y="83" on="0"/>
        <pt x="348" y="-7" on="0"/>
        <pt x="257" y="-7" on="1"/>
        <pt x="220" y="-7" on="0"/>
        <pt x="157" y="12" on="0"/>
        <pt x="111" y="53" on="0"/>
        <pt x="85" y="115" on="0"/>
        <pt x="85" y="158" on="1"/>
        <pt x="85" y="166" on="0"/>
        <pt x="86" y="188" on="0"/>
        <pt x="87" y="195" on="1"/>
        <pt x="131" y="700" on="1"/>
        <pt x="218" y="700" on="1"/>
        <pt x="173" y="187" on="1"/>
        <pt x="172" y="175" on="0"/>
        <pt x="171" y="156" on="0"/>
        <pt x="171" y="152" on="1"/>
        <pt x="171" y="107" on="0"/>
        <pt x="221" y="66" on="0"/>
        <pt x="263" y="66" on="1"/>
        <pt x="308" y="66" on="0"/>
        <pt x="367" y="113" on="0"/>
        <pt x="372" y="166" on="1"/>
        <pt x="419" y="700" on="1"/>
        <pt x="506" y="700" on="1"/>
      </contour>
    </TTGlyph>
    <TTGlyph name="Ucircumflex" xMin="85" yMin="-7" xMax="506" yMax="845">
      <contour>
        <pt x="382" y="730" on="1"/>
        <pt x="328" y="794" on="1"/>
        <pt x="262" y="730" on="1"/>
        <pt x="166" y="730" on="1"/>
        <pt x="286" y="845" on="1"/>
        <pt x="378" y="845" on="1"/>
        <pt x="479" y="730" on="1"/>
      </contour>
      <contour>
        <pt x="461" y="185" on="1"/>
        <pt x="452" y="83" on="0"/>
        <pt x="348" y="-7" on="0"/>
        <pt x="257" y="-7" on="1"/>
        <pt x="220" y="-7" on="0"/>
        <pt x="157" y="12" on="0"/>
        <pt x="111" y="53" on="0"/>
        <pt x="85" y="115" on="0"/>
        <pt x="85" y="158" on="1"/>
        <pt x="85" y="166" on="0"/>
        <pt x="86" y="188" on="0"/>
        <pt x="87" y="195" on="1"/>
        <pt x="131" y="700" on="1"/>
        <pt x="218" y="700" on="1"/>
        <pt x="173" y="187" on="1"/>
        <pt x="172" y="175" on="0"/>
        <pt x="171" y="156" on="0"/>
        <pt x="171" y="152" on="1"/>
        <pt x="171" y="107" on="0"/>
        <pt x="221" y="66" on="0"/>
        <pt x="263" y="66" on="1"/>
        <pt x="308" y="66" on="0"/>
        <pt x="367" y="113" on="0"/>
        <pt x="372" y="166" on="1"/>
        <pt x="419" y="700" on="1"/>
        <pt x="506" y="700" on="1"/>
      </contour>
    </TTGlyph>
    <TTGlyph name="Udieresis" xMin="85" yMin="-7" xMax="506" yMax="815">
      <contour>
        <pt x="381" y="735" on="1"/>
        <pt x="388" y="815" on="1"/>
        <pt x="473" y="815" on="1"/>
        <pt x="466" y="735" on="1"/>
      </contour>
      <contour>
        <pt x="181" y="735" on="1"/>
        <pt x="188" y="815" on="1"/>
        <pt x="273" y="815" on="1"/>
        <pt x="266" y="735" on="1"/>
      </contour>
      <contour>
        <pt x="461" y="185" on="1"/>
        <pt x="452" y="83" on="0"/>
        <pt x="348" y="-7" on="0"/>
        <pt x="257" y="-7" on="1"/>
        <pt x="220" y="-7" on="0"/>
        <pt x="157" y="12" on="0"/>
        <pt x="111" y="53" on="0"/>
        <pt x="85" y="115" on="0"/>
        <pt x="85" y="158" on="1"/>
        <pt x="85" y="166" on="0"/>
        <pt x="86" y="188" on="0"/>
        <pt x="87" y="195" on="1"/>
        <pt x="131" y="700" on="1"/>
        <pt x="218" y="700" on="1"/>
        <pt x="173" y="187" on="1"/>
        <pt x="172" y="175" on="0"/>
        <pt x="171" y="156" on="0"/>
        <pt x="171" y="152" on="1"/>
        <pt x="171" y="107" on="0"/>
        <pt x="221" y="66" on="0"/>
        <pt x="263" y="66" on="1"/>
        <pt x="308" y="66" on="0"/>
        <pt x="367" y="113" on="0"/>
        <pt x="372" y="166" on="1"/>
        <pt x="419" y="700" on="1"/>
        <pt x="506" y="700" on="1"/>
      </contour>
    </TTGlyph>
    <TTGlyph name="Ugrave" xMin="85" yMin="-7" xMax="506" yMax="841">
      <contour>
        <pt x="306" y="726" on="1"/>
        <pt x="184" y="841" on="1"/>
        <pt x="295" y="841" on="1"/>
        <pt x="389" y="726" on="1"/>
      </contour>
      <contour>
        <pt x="461" y="185" on="1"/>
        <pt x="452" y="83" on="0"/>
        <pt x="348" y="-7" on="0"/>
        <pt x="257" y="-7" on="1"/>
        <pt x="220" y="-7" on="0"/>
        <pt x="157" y="12" on="0"/>
        <pt x="111" y="53" on="0"/>
        <pt x="85" y="115" on="0"/>
        <pt x="85" y="158" on="1"/>
        <pt x="85" y="166" on="0"/>
        <pt x="86" y="188" on="0"/>
        <pt x="87" y="195" on="1"/>
        <pt x="131" y="700" on="1"/>
        <pt x="218" y="700" on="1"/>
        <pt x="173" y="187" on="1"/>
        <pt x="172" y="175" on="0"/>
        <pt x="171" y="156" on="0"/>
        <pt x="171" y="152" on="1"/>
        <pt x="171" y="107" on="0"/>
        <pt x="221" y="66" on="0"/>
        <pt x="263" y="66" on="1"/>
        <pt x="308" y="66" on="0"/>
        <pt x="367" y="113" on="0"/>
        <pt x="372" y="166" on="1"/>
        <pt x="419" y="700" on="1"/>
        <pt x="506" y="700" on="1"/>
      </contour>
    </TTGlyph>
    <TTGlyph name="V" xMin="86" yMin="0" xMax="489" yMax="700">
      <contour>
        <pt x="281" y="0" on="1"/>
        <pt x="162" y="0" on="1"/>
        <pt x="86" y="700" on="1"/>
        <pt x="174" y="700" on="1"/>
        <pt x="230" y="88" on="1"/>
        <pt x="403" y="700" on="1"/>
        <pt x="489" y="700" on="1"/>
      </contour>
    </TTGlyph>
    <TTGlyph name="W" xMin="89" yMin="0" xMax="590" yMax="700">
      <contour>
        <pt x="495" y="0" on="1"/>
        <pt x="359" y="0" on="1"/>
        <pt x="318" y="304" on="1"/>
        <pt x="219" y="0" on="1"/>
        <pt x="89" y="0" on="1"/>
        <pt x="116" y="700" on="1"/>
        <pt x="193" y="700" on="1"/>
        <pt x="166" y="55" on="1"/>
        <pt x="285" y="405" on="1"/>
        <pt x="367" y="405" on="1"/>
        <pt x="429" y="55" on="1"/>
        <pt x="517" y="700" on="1"/>
        <pt x="590" y="700" on="1"/>
      </contour>
    </TTGlyph>
    <TTGlyph name="X" xMin="25" yMin="0" xMax="502" yMax="700">
      <contour>
        <pt x="355" y="0" on="1"/>
        <pt x="263" y="270" on="1"/>
        <pt x="121" y="0" on="1"/>
        <pt x="25" y="0" on="1"/>
        <pt x="226" y="362" on="1"/>
        <pt x="101" y="700" on="1"/>
        <pt x="194" y="700" on="1"/>
        <pt x="279" y="457" on="1"/>
        <pt x="407" y="700" on="1"/>
        <pt x="502" y="700" on="1"/>
        <pt x="314" y="363" on="1"/>
        <pt x="451" y="0" on="1"/>
      </contour>
    </TTGlyph>
    <TTGlyph name="Y" xMin="71" yMin="0" xMax="522" yMax="700">
      <contour>
        <pt x="307" y="325" on="1"/>
        <pt x="279" y="0" on="1"/>
        <pt x="189" y="0" on="1"/>
        <pt x="217" y="325" on="1"/>
        <pt x="71" y="700" on="1"/>
        <pt x="165" y="700" on="1"/>
        <pt x="271" y="409" on="1"/>
        <pt x="429" y="700" on="1"/>
        <pt x="522" y="700" on="1"/>
      </contour>
    </TTGlyph>
    <TTGlyph name="Yacute" xMin="71" yMin="0" xMax="522" yMax="841">
      <contour>
        <pt x="239" y="726" on="1"/>
        <pt x="353" y="841" on="1"/>
        <pt x="464" y="841" on="1"/>
        <pt x="322" y="726" on="1"/>
      </contour>
      <contour>
        <pt x="307" y="325" on="1"/>
        <pt x="279" y="0" on="1"/>
        <pt x="189" y="0" on="1"/>
        <pt x="217" y="325" on="1"/>
        <pt x="71" y="700" on="1"/>
        <pt x="165" y="700" on="1"/>
        <pt x="271" y="409" on="1"/>
        <pt x="429" y="700" on="1"/>
        <pt x="522" y="700" on="1"/>
      </contour>
    </TTGlyph>
    <TTGlyph name="Ydieresis" xMin="71" yMin="0" xMax="522" yMax="815">
      <contour>
        <pt x="307" y="325" on="1"/>
        <pt x="279" y="0" on="1"/>
        <pt x="189" y="0" on="1"/>
        <pt x="217" y="325" on="1"/>
        <pt x="71" y="700" on="1"/>
        <pt x="165" y="700" on="1"/>
        <pt x="271" y="409" on="1"/>
        <pt x="429" y="700" on="1"/>
        <pt x="522" y="700" on="1"/>
      </contour>
      <contour>
        <pt x="361" y="735" on="1"/>
        <pt x="368" y="815" on="1"/>
        <pt x="453" y="815" on="1"/>
        <pt x="446" y="735" on="1"/>
      </contour>
      <contour>
        <pt x="161" y="735" on="1"/>
        <pt x="168" y="815" on="1"/>
        <pt x="253" y="815" on="1"/>
        <pt x="246" y="735" on="1"/>
      </contour>
    </TTGlyph>
    <TTGlyph name="Z" xMin="35" yMin="0" xMax="442" yMax="700">
      <contour>
        <pt x="131" y="74" on="1"/>
        <pt x="377" y="74" on="1"/>
        <pt x="371" y="0" on="1"/>
        <pt x="35" y="0" on="1"/>
        <pt x="42" y="88" on="1"/>
        <pt x="346" y="626" on="1"/>
        <pt x="112" y="626" on="1"/>
        <pt x="119" y="700" on="1"/>
        <pt x="442" y="700" on="1"/>
        <pt x="434" y="612" on="1"/>
      </contour>
    </TTGlyph>
    <TTGlyph name="Zcaron" xMin="35" yMin="0" xMax="448" yMax="844">
      <contour>
        <pt x="232" y="844" on="1"/>
        <pt x="286" y="777" on="1"/>
        <pt x="352" y="844" on="1"/>
        <pt x="448" y="844" on="1"/>
        <pt x="326" y="729" on="1"/>
        <pt x="238" y="729" on="1"/>
        <pt x="135" y="844" on="1"/>
      </contour>
      <contour>
        <pt x="131" y="74" on="1"/>
        <pt x="377" y="74" on="1"/>
        <pt x="371" y="0" on="1"/>
        <pt x="35" y="0" on="1"/>
        <pt x="42" y="88" on="1"/>
        <pt x="346" y="626" on="1"/>
        <pt x="112" y="626" on="1"/>
        <pt x="119" y="700" on="1"/>
        <pt x="442" y="700" on="1"/>
        <pt x="434" y="612" on="1"/>
      </contour>
    </TTGlyph>
    <TTGlyph name="a" xMin="71" yMin="-7" xMax="447" yMax="507">
      <contour>
        <pt x="74" y="228" on="1"/>
        <pt x="81" y="302" on="0"/>
        <pt x="115" y="408" on="0"/>
        <pt x="173" y="475" on="0"/>
        <pt x="257" y="507" on="0"/>
        <pt x="314" y="507" on="1"/>
        <pt x="328" y="507" on="0"/>
        <pt x="363" y="503" on="0"/>
        <pt x="398" y="497" on="0"/>
        <pt x="430" y="489" on="0"/>
        <pt x="442" y="485" on="1"/>
        <pt x="410" y="136" on="1"/>
        <pt x="410" y="134" on="0"/>
        <pt x="408" y="117" on="0"/>
        <pt x="408" y="103" on="1"/>
        <pt x="408" y="65" on="0"/>
        <pt x="447" y="65" on="1"/>
        <pt x="442" y="0" on="1"/>
        <pt x="423" y="0" on="1"/>
        <pt x="391" y="0" on="0"/>
        <pt x="346" y="30" on="0"/>
        <pt x="337" y="62" on="1"/>
        <pt x="317" y="32" on="0"/>
        <pt x="251" y="-7" on="0"/>
        <pt x="199" y="-7" on="1"/>
        <pt x="129" y="-7" on="0"/>
        <pt x="71" y="85" on="0"/>
        <pt x="71" y="170" on="1"/>
        <pt x="71" y="198" on="0"/>
      </contour>
      <contour>
        <pt x="221" y="65" on="1"/>
        <pt x="247" y="65" on="0"/>
        <pt x="285" y="84" on="0"/>
        <pt x="312" y="114" on="0"/>
        <pt x="326" y="152" on="0"/>
        <pt x="328" y="172" on="1"/>
        <pt x="351" y="431" on="1"/>
        <pt x="341" y="433" on="0"/>
        <pt x="315" y="435" on="0"/>
        <pt x="297" y="435" on="1"/>
        <pt x="158" y="435" on="0"/>
        <pt x="158" y="163" on="1"/>
        <pt x="158" y="113" on="0"/>
        <pt x="186" y="65" on="0"/>
      </contour>
    </TTGlyph>
    <TTGlyph name="aacute" xMin="71" yMin="-7" xMax="481" yMax="715">
      <contour>
        <pt x="74" y="228" on="1"/>
        <pt x="81" y="302" on="0"/>
        <pt x="115" y="408" on="0"/>
        <pt x="173" y="475" on="0"/>
        <pt x="257" y="507" on="0"/>
        <pt x="314" y="507" on="1"/>
        <pt x="328" y="507" on="0"/>
        <pt x="363" y="503" on="0"/>
        <pt x="398" y="497" on="0"/>
        <pt x="430" y="489" on="0"/>
        <pt x="442" y="485" on="1"/>
        <pt x="410" y="136" on="1"/>
        <pt x="410" y="134" on="0"/>
        <pt x="408" y="117" on="0"/>
        <pt x="408" y="103" on="1"/>
        <pt x="408" y="65" on="0"/>
        <pt x="447" y="65" on="1"/>
        <pt x="442" y="0" on="1"/>
        <pt x="423" y="0" on="1"/>
        <pt x="391" y="0" on="0"/>
        <pt x="346" y="30" on="0"/>
        <pt x="337" y="62" on="1"/>
        <pt x="317" y="32" on="0"/>
        <pt x="251" y="-7" on="0"/>
        <pt x="199" y="-7" on="1"/>
        <pt x="129" y="-7" on="0"/>
        <pt x="71" y="85" on="0"/>
        <pt x="71" y="170" on="1"/>
        <pt x="71" y="198" on="0"/>
      </contour>
      <contour>
        <pt x="221" y="65" on="1"/>
        <pt x="247" y="65" on="0"/>
        <pt x="285" y="84" on="0"/>
        <pt x="312" y="114" on="0"/>
        <pt x="326" y="152" on="0"/>
        <pt x="328" y="172" on="1"/>
        <pt x="351" y="431" on="1"/>
        <pt x="341" y="433" on="0"/>
        <pt x="315" y="435" on="0"/>
        <pt x="297" y="435" on="1"/>
        <pt x="158" y="435" on="0"/>
        <pt x="158" y="163" on="1"/>
        <pt x="158" y="113" on="0"/>
        <pt x="186" y="65" on="0"/>
      </contour>
      <contour>
        <pt x="256" y="580" on="1"/>
        <pt x="372" y="715" on="1"/>
        <pt x="481" y="715" on="1"/>
        <pt x="342" y="580" on="1"/>
      </contour>
    </TTGlyph>
    <TTGlyph name="acircumflex" xMin="71" yMin="-7" xMax="476" yMax="715">
      <contour>
        <pt x="74" y="228" on="1"/>
        <pt x="81" y="302" on="0"/>
        <pt x="115" y="408" on="0"/>
        <pt x="173" y="475" on="0"/>
        <pt x="257" y="507" on="0"/>
        <pt x="314" y="507" on="1"/>
        <pt x="328" y="507" on="0"/>
        <pt x="363" y="503" on="0"/>
        <pt x="398" y="497" on="0"/>
        <pt x="430" y="489" on="0"/>
        <pt x="442" y="485" on="1"/>
        <pt x="410" y="136" on="1"/>
        <pt x="410" y="134" on="0"/>
        <pt x="408" y="117" on="0"/>
        <pt x="408" y="103" on="1"/>
        <pt x="408" y="65" on="0"/>
        <pt x="447" y="65" on="1"/>
        <pt x="442" y="0" on="1"/>
        <pt x="423" y="0" on="1"/>
        <pt x="391" y="0" on="0"/>
        <pt x="346" y="30" on="0"/>
        <pt x="337" y="62" on="1"/>
        <pt x="317" y="32" on="0"/>
        <pt x="251" y="-7" on="0"/>
        <pt x="199" y="-7" on="1"/>
        <pt x="129" y="-7" on="0"/>
        <pt x="71" y="85" on="0"/>
        <pt x="71" y="170" on="1"/>
        <pt x="71" y="198" on="0"/>
      </contour>
      <contour>
        <pt x="221" y="65" on="1"/>
        <pt x="247" y="65" on="0"/>
        <pt x="285" y="84" on="0"/>
        <pt x="312" y="114" on="0"/>
        <pt x="326" y="152" on="0"/>
        <pt x="328" y="172" on="1"/>
        <pt x="351" y="431" on="1"/>
        <pt x="341" y="433" on="0"/>
        <pt x="315" y="435" on="0"/>
        <pt x="297" y="435" on="1"/>
        <pt x="158" y="435" on="0"/>
        <pt x="158" y="163" on="1"/>
        <pt x="158" y="113" on="0"/>
        <pt x="186" y="65" on="0"/>
      </contour>
      <contour>
        <pt x="379" y="580" on="1"/>
        <pt x="327" y="664" on="1"/>
        <pt x="259" y="580" on="1"/>
        <pt x="163" y="580" on="1"/>
        <pt x="287" y="715" on="1"/>
        <pt x="375" y="715" on="1"/>
        <pt x="476" y="580" on="1"/>
      </contour>
    </TTGlyph>
    <TTGlyph name="acute" xMin="85" yMin="580" xMax="310" yMax="715">
      <contour>
        <pt x="85" y="580" on="1"/>
        <pt x="201" y="715" on="1"/>
        <pt x="310" y="715" on="1"/>
        <pt x="171" y="580" on="1"/>
      </contour>
    </TTGlyph>
    <TTGlyph name="adieresis" xMin="71" yMin="-7" xMax="465" yMax="675">
      <contour>
        <pt x="74" y="228" on="1"/>
        <pt x="81" y="302" on="0"/>
        <pt x="115" y="408" on="0"/>
        <pt x="173" y="475" on="0"/>
        <pt x="257" y="507" on="0"/>
        <pt x="314" y="507" on="1"/>
        <pt x="328" y="507" on="0"/>
        <pt x="363" y="503" on="0"/>
        <pt x="398" y="497" on="0"/>
        <pt x="430" y="489" on="0"/>
        <pt x="442" y="485" on="1"/>
        <pt x="410" y="136" on="1"/>
        <pt x="410" y="134" on="0"/>
        <pt x="408" y="117" on="0"/>
        <pt x="408" y="103" on="1"/>
        <pt x="408" y="65" on="0"/>
        <pt x="447" y="65" on="1"/>
        <pt x="442" y="0" on="1"/>
        <pt x="423" y="0" on="1"/>
        <pt x="391" y="0" on="0"/>
        <pt x="346" y="30" on="0"/>
        <pt x="337" y="62" on="1"/>
        <pt x="317" y="32" on="0"/>
        <pt x="251" y="-7" on="0"/>
        <pt x="199" y="-7" on="1"/>
        <pt x="129" y="-7" on="0"/>
        <pt x="71" y="85" on="0"/>
        <pt x="71" y="170" on="1"/>
        <pt x="71" y="198" on="0"/>
      </contour>
      <contour>
        <pt x="221" y="65" on="1"/>
        <pt x="247" y="65" on="0"/>
        <pt x="285" y="84" on="0"/>
        <pt x="312" y="114" on="0"/>
        <pt x="326" y="152" on="0"/>
        <pt x="328" y="172" on="1"/>
        <pt x="351" y="431" on="1"/>
        <pt x="341" y="433" on="0"/>
        <pt x="315" y="435" on="0"/>
        <pt x="297" y="435" on="1"/>
        <pt x="158" y="435" on="0"/>
        <pt x="158" y="163" on="1"/>
        <pt x="158" y="113" on="0"/>
        <pt x="186" y="65" on="0"/>
      </contour>
      <contour>
        <pt x="373" y="595" on="1"/>
        <pt x="380" y="675" on="1"/>
        <pt x="465" y="675" on="1"/>
        <pt x="458" y="595" on="1"/>
      </contour>
      <contour>
        <pt x="173" y="595" on="1"/>
        <pt x="180" y="675" on="1"/>
        <pt x="265" y="675" on="1"/>
        <pt x="258" y="595" on="1"/>
      </contour>
    </TTGlyph>
    <TTGlyph name="ae" xMin="51" yMin="-7" xMax="668" yMax="507">
      <contour>
        <pt x="668" y="370" on="1"/>
        <pt x="668" y="324" on="0"/>
        <pt x="639" y="263" on="0"/>
        <pt x="587" y="225" on="0"/>
        <pt x="515" y="209" on="0"/>
        <pt x="473" y="209" on="1"/>
        <pt x="453" y="209" on="0"/>
        <pt x="419" y="211" on="0"/>
        <pt x="397" y="213" on="1"/>
        <pt x="397" y="177" on="1"/>
        <pt x="397" y="143" on="0"/>
        <pt x="410" y="99" on="0"/>
        <pt x="432" y="74" on="0"/>
        <pt x="459" y="65" on="0"/>
        <pt x="473" y="65" on="1"/>
        <pt x="522" y="65" on="0"/>
        <pt x="586" y="77" on="0"/>
        <pt x="609" y="82" on="1"/>
        <pt x="602" y="10" on="1"/>
        <pt x="590" y="7" on="0"/>
        <pt x="558" y="0" on="0"/>
        <pt x="524" y="-4" on="0"/>
        <pt x="491" y="-7" on="0"/>
        <pt x="477" y="-7" on="1"/>
        <pt x="429" y="-7" on="0"/>
        <pt x="357" y="19" on="0"/>
        <pt x="338" y="62" on="1"/>
        <pt x="317" y="30" on="0"/>
        <pt x="247" y="-7" on="0"/>
        <pt x="188" y="-7" on="1"/>
        <pt x="166" y="-7" on="0"/>
        <pt x="118" y="5" on="0"/>
        <pt x="77" y="34" on="0"/>
        <pt x="51" y="84" on="0"/>
        <pt x="51" y="122" on="1"/>
        <pt x="51" y="169" on="0"/>
        <pt x="78" y="236" on="0"/>
        <pt x="127" y="278" on="0"/>
        <pt x="199" y="298" on="0"/>
        <pt x="244" y="298" on="1"/>
        <pt x="263" y="298" on="0"/>
        <pt x="303" y="295" on="0"/>
        <pt x="323" y="293" on="1"/>
        <pt x="324" y="312" on="0"/>
        <pt x="326" y="328" on="1"/>
        <pt x="328" y="342" on="0"/>
        <pt x="329" y="367" on="0"/>
        <pt x="329" y="371" on="1"/>
        <pt x="329" y="398" on="0"/>
        <pt x="294" y="435" on="0"/>
        <pt x="259" y="435" on="1"/>
        <pt x="216" y="435" on="0"/>
        <pt x="151" y="424" on="0"/>
        <pt x="113" y="413" on="1"/>
        <pt x="119" y="487" on="1"/>
        <pt x="148" y="495" on="0"/>
        <pt x="219" y="507" on="0"/>
        <pt x="256" y="507" on="1"/>
        <pt x="307" y="507" on="0"/>
        <pt x="369" y="478" on="0"/>
        <pt x="385" y="454" on="1"/>
        <pt x="410" y="482" on="0"/>
        <pt x="474" y="507" on="0"/>
        <pt x="516" y="507" on="1"/>
        <pt x="558" y="507" on="0"/>
        <pt x="616" y="484" on="0"/>
        <pt x="652" y="446" on="0"/>
        <pt x="668" y="396" on="0"/>
      </contour>
      <contour>
        <pt x="214" y="65" on="1"/>
        <pt x="238" y="65" on="0"/>
        <pt x="273" y="80" on="0"/>
        <pt x="296" y="101" on="0"/>
        <pt x="307" y="124" on="0"/>
        <pt x="308" y="132" on="1"/>
        <pt x="317" y="225" on="1"/>
        <pt x="297" y="227" on="0"/>
        <pt x="254" y="230" on="0"/>
        <pt x="233" y="230" on="1"/>
        <pt x="216" y="230" on="0"/>
        <pt x="182" y="221" on="0"/>
        <pt x="155" y="198" on="0"/>
        <pt x="139" y="161" on="0"/>
        <pt x="139" y="133" on="1"/>
        <pt x="139" y="95" on="0"/>
        <pt x="177" y="65" on="0"/>
      </contour>
      <contour>
        <pt x="515" y="436" on="1"/>
        <pt x="493" y="436" on="0"/>
        <pt x="456" y="421" on="0"/>
        <pt x="427" y="386" on="0"/>
        <pt x="407" y="327" on="0"/>
        <pt x="402" y="282" on="1"/>
        <pt x="418" y="280" on="0"/>
        <pt x="443" y="279" on="0"/>
        <pt x="458" y="279" on="1"/>
        <pt x="529" y="279" on="0"/>
        <pt x="588" y="316" on="0"/>
        <pt x="588" y="366" on="1"/>
        <pt x="588" y="380" on="0"/>
        <pt x="582" y="406" on="0"/>
        <pt x="566" y="425" on="0"/>
        <pt x="538" y="436" on="0"/>
      </contour>
    </TTGlyph>
    <TTGlyph name="agrave" xMin="71" yMin="-7" xMax="447" yMax="715">
      <contour>
        <pt x="74" y="228" on="1"/>
        <pt x="81" y="302" on="0"/>
        <pt x="115" y="408" on="0"/>
        <pt x="173" y="475" on="0"/>
        <pt x="257" y="507" on="0"/>
        <pt x="314" y="507" on="1"/>
        <pt x="328" y="507" on="0"/>
        <pt x="363" y="503" on="0"/>
        <pt x="398" y="497" on="0"/>
        <pt x="430" y="489" on="0"/>
        <pt x="442" y="485" on="1"/>
        <pt x="410" y="136" on="1"/>
        <pt x="410" y="134" on="0"/>
        <pt x="408" y="117" on="0"/>
        <pt x="408" y="103" on="1"/>
        <pt x="408" y="65" on="0"/>
        <pt x="447" y="65" on="1"/>
        <pt x="442" y="0" on="1"/>
        <pt x="423" y="0" on="1"/>
        <pt x="391" y="0" on="0"/>
        <pt x="346" y="30" on="0"/>
        <pt x="337" y="62" on="1"/>
        <pt x="317" y="32" on="0"/>
        <pt x="251" y="-7" on="0"/>
        <pt x="199" y="-7" on="1"/>
        <pt x="129" y="-7" on="0"/>
        <pt x="71" y="85" on="0"/>
        <pt x="71" y="170" on="1"/>
        <pt x="71" y="198" on="0"/>
      </contour>
      <contour>
        <pt x="221" y="65" on="1"/>
        <pt x="247" y="65" on="0"/>
        <pt x="285" y="84" on="0"/>
        <pt x="312" y="114" on="0"/>
        <pt x="326" y="152" on="0"/>
        <pt x="328" y="172" on="1"/>
        <pt x="351" y="431" on="1"/>
        <pt x="341" y="433" on="0"/>
        <pt x="315" y="435" on="0"/>
        <pt x="297" y="435" on="1"/>
        <pt x="158" y="435" on="0"/>
        <pt x="158" y="163" on="1"/>
        <pt x="158" y="113" on="0"/>
        <pt x="186" y="65" on="0"/>
      </contour>
      <contour>
        <pt x="319" y="580" on="1"/>
        <pt x="194" y="715" on="1"/>
        <pt x="303" y="715" on="1"/>
        <pt x="395" y="580" on="1"/>
      </contour>
    </TTGlyph>
    <TTGlyph name="ampersand" xMin="70" yMin="-7" xMax="510" yMax="707">
      <contour>
        <pt x="70" y="158" on="1"/>
        <pt x="70" y="202" on="0"/>
        <pt x="80" y="284" on="0"/>
        <pt x="104" y="352" on="0"/>
        <pt x="142" y="399" on="0"/>
        <pt x="170" y="407" on="1"/>
        <pt x="140" y="429" on="0"/>
        <pt x="114" y="492" on="0"/>
        <pt x="114" y="521" on="1"/>
        <pt x="114" y="582" on="0"/>
        <pt x="147" y="655" on="0"/>
        <pt x="201" y="694" on="0"/>
        <pt x="272" y="707" on="0"/>
        <pt x="311" y="707" on="1"/>
        <pt x="343" y="707" on="0"/>
        <pt x="401" y="695" on="0"/>
        <pt x="410" y="692" on="1"/>
        <pt x="403" y="619" on="1"/>
        <pt x="399" y="620" on="0"/>
        <pt x="375" y="625" on="0"/>
        <pt x="345" y="630" on="0"/>
        <pt x="314" y="634" on="0"/>
        <pt x="303" y="634" on="1"/>
        <pt x="283" y="634" on="0"/>
        <pt x="246" y="627" on="0"/>
        <pt x="217" y="604" on="0"/>
        <pt x="199" y="561" on="0"/>
        <pt x="199" y="525" on="1"/>
        <pt x="199" y="489" on="0"/>
        <pt x="232" y="440" on="0"/>
        <pt x="275" y="440" on="1"/>
        <pt x="510" y="440" on="1"/>
        <pt x="504" y="367" on="1"/>
        <pt x="420" y="367" on="1"/>
        <pt x="389" y="5" on="1"/>
        <pt x="350" y="-1" on="0"/>
        <pt x="272" y="-7" on="0"/>
        <pt x="225" y="-7" on="1"/>
        <pt x="151" y="-7" on="0"/>
        <pt x="70" y="69" on="0"/>
      </contour>
      <contour>
        <pt x="232" y="66" on="1"/>
        <pt x="263" y="66" on="0"/>
        <pt x="305" y="72" on="0"/>
        <pt x="316" y="74" on="1"/>
        <pt x="341" y="367" on="1"/>
        <pt x="254" y="367" on="1"/>
        <pt x="227" y="367" on="0"/>
        <pt x="190" y="332" on="0"/>
        <pt x="167" y="275" on="0"/>
        <pt x="156" y="204" on="0"/>
        <pt x="156" y="167" on="1"/>
        <pt x="156" y="119" on="0"/>
        <pt x="197" y="66" on="0"/>
      </contour>
    </TTGlyph>
    <TTGlyph name="approxequal" xMin="90" yMin="169" xMax="454" yMax="453">
      <contour>
        <pt x="96" y="250" on="1"/>
        <pt x="133" y="271" on="0"/>
        <pt x="179" y="283" on="0"/>
        <pt x="201" y="283" on="1"/>
        <pt x="221" y="283" on="0"/>
        <pt x="256" y="271" on="0"/>
        <pt x="289" y="256" on="0"/>
        <pt x="324" y="244" on="0"/>
        <pt x="343" y="244" on="1"/>
        <pt x="369" y="244" on="0"/>
        <pt x="416" y="266" on="0"/>
        <pt x="439" y="280" on="1"/>
        <pt x="432" y="202" on="1"/>
        <pt x="408" y="187" on="0"/>
        <pt x="355" y="169" on="0"/>
        <pt x="327" y="169" on="1"/>
        <pt x="306" y="169" on="0"/>
        <pt x="272" y="181" on="0"/>
        <pt x="241" y="196" on="0"/>
        <pt x="207" y="208" on="0"/>
        <pt x="186" y="208" on="1"/>
        <pt x="160" y="208" on="0"/>
        <pt x="112" y="186" on="0"/>
        <pt x="90" y="172" on="1"/>
      </contour>
      <contour>
        <pt x="111" y="420" on="1"/>
        <pt x="148" y="441" on="0"/>
        <pt x="194" y="453" on="0"/>
        <pt x="216" y="453" on="1"/>
        <pt x="236" y="453" on="0"/>
        <pt x="271" y="441" on="0"/>
        <pt x="304" y="426" on="0"/>
        <pt x="339" y="414" on="0"/>
        <pt x="358" y="414" on="1"/>
        <pt x="384" y="414" on="0"/>
        <pt x="431" y="436" on="0"/>
        <pt x="454" y="450" on="1"/>
        <pt x="447" y="372" on="1"/>
        <pt x="423" y="357" on="0"/>
        <pt x="370" y="339" on="0"/>
        <pt x="342" y="339" on="1"/>
        <pt x="321" y="339" on="0"/>
        <pt x="287" y="351" on="0"/>
        <pt x="256" y="366" on="0"/>
        <pt x="222" y="378" on="0"/>
        <pt x="201" y="378" on="1"/>
        <pt x="175" y="378" on="0"/>
        <pt x="127" y="356" on="0"/>
        <pt x="104" y="342" on="1"/>
      </contour>
    </TTGlyph>
    <TTGlyph name="aring" xMin="71" yMin="-7" xMax="447" yMax="747">
      <contour>
        <pt x="74" y="228" on="1"/>
        <pt x="81" y="302" on="0"/>
        <pt x="115" y="408" on="0"/>
        <pt x="173" y="475" on="0"/>
        <pt x="257" y="507" on="0"/>
        <pt x="314" y="507" on="1"/>
        <pt x="328" y="507" on="0"/>
        <pt x="363" y="503" on="0"/>
        <pt x="398" y="497" on="0"/>
        <pt x="430" y="489" on="0"/>
        <pt x="442" y="485" on="1"/>
        <pt x="410" y="136" on="1"/>
        <pt x="410" y="134" on="0"/>
        <pt x="408" y="117" on="0"/>
        <pt x="408" y="103" on="1"/>
        <pt x="408" y="65" on="0"/>
        <pt x="447" y="65" on="1"/>
        <pt x="442" y="0" on="1"/>
        <pt x="423" y="0" on="1"/>
        <pt x="391" y="0" on="0"/>
        <pt x="346" y="30" on="0"/>
        <pt x="337" y="62" on="1"/>
        <pt x="317" y="32" on="0"/>
        <pt x="251" y="-7" on="0"/>
        <pt x="199" y="-7" on="1"/>
        <pt x="129" y="-7" on="0"/>
        <pt x="71" y="85" on="0"/>
        <pt x="71" y="170" on="1"/>
        <pt x="71" y="198" on="0"/>
      </contour>
      <contour>
        <pt x="221" y="65" on="1"/>
        <pt x="247" y="65" on="0"/>
        <pt x="285" y="84" on="0"/>
        <pt x="312" y="114" on="0"/>
        <pt x="326" y="152" on="0"/>
        <pt x="328" y="172" on="1"/>
        <pt x="351" y="431" on="1"/>
        <pt x="341" y="433" on="0"/>
        <pt x="315" y="435" on="0"/>
        <pt x="297" y="435" on="1"/>
        <pt x="158" y="435" on="0"/>
        <pt x="158" y="163" on="1"/>
        <pt x="158" y="113" on="0"/>
        <pt x="186" y="65" on="0"/>
      </contour>
      <contour>
        <pt x="405" y="645" on="1"/>
        <pt x="401" y="601" on="0"/>
        <pt x="348" y="543" on="0"/>
        <pt x="300" y="543" on="1"/>
        <pt x="262" y="543" on="0"/>
        <pt x="215" y="596" on="0"/>
        <pt x="215" y="634" on="1"/>
        <pt x="215" y="682" on="0"/>
        <pt x="269" y="747" on="0"/>
        <pt x="318" y="747" on="1"/>
        <pt x="359" y="747" on="0"/>
        <pt x="406" y="697" on="0"/>
        <pt x="406" y="657" on="1"/>
        <pt x="406" y="654" on="0"/>
        <pt x="405" y="648" on="0"/>
      </contour>
      <contour>
        <pt x="347" y="655" on="1"/>
        <pt x="347" y="672" on="0"/>
        <pt x="333" y="695" on="0"/>
        <pt x="313" y="695" on="1"/>
        <pt x="289" y="695" on="0"/>
        <pt x="272" y="659" on="0"/>
        <pt x="272" y="639" on="1"/>
        <pt x="272" y="623" on="0"/>
        <pt x="285" y="597" on="0"/>
        <pt x="305" y="597" on="1"/>
        <pt x="330" y="597" on="0"/>
        <pt x="345" y="627" on="0"/>
        <pt x="347" y="646" on="1"/>
      </contour>
    </TTGlyph>
    <TTGlyph name="asciicircum" xMin="71" yMin="420" xMax="468" yMax="760">
      <contour>
        <pt x="379" y="420" on="1"/>
        <pt x="300" y="700" on="1"/>
        <pt x="161" y="420" on="1"/>
        <pt x="71" y="420" on="1"/>
        <pt x="245" y="760" on="1"/>
        <pt x="359" y="760" on="1"/>
        <pt x="468" y="420" on="1"/>
      </contour>
    </TTGlyph>
    <TTGlyph name="asciitilde" xMin="98" yMin="263" xMax="447" yMax="377">
      <contour>
        <pt x="105" y="344" on="1"/>
        <pt x="141" y="365" on="0"/>
        <pt x="187" y="377" on="0"/>
        <pt x="209" y="377" on="1"/>
        <pt x="229" y="377" on="0"/>
        <pt x="264" y="365" on="0"/>
        <pt x="297" y="350" on="0"/>
        <pt x="332" y="338" on="0"/>
        <pt x="351" y="338" on="1"/>
        <pt x="377" y="338" on="0"/>
        <pt x="425" y="360" on="0"/>
        <pt x="447" y="374" on="1"/>
        <pt x="440" y="296" on="1"/>
        <pt x="417" y="281" on="0"/>
        <pt x="364" y="263" on="0"/>
        <pt x="336" y="263" on="1"/>
        <pt x="315" y="263" on="0"/>
        <pt x="281" y="275" on="0"/>
        <pt x="249" y="290" on="0"/>
        <pt x="215" y="302" on="0"/>
        <pt x="194" y="302" on="1"/>
        <pt x="168" y="302" on="0"/>
        <pt x="120" y="280" on="0"/>
        <pt x="98" y="266" on="1"/>
      </contour>
    </TTGlyph>
    <TTGlyph name="asterisk" xMin="65" yMin="326" xMax="457" yMax="705">
      <contour>
        <pt x="314" y="500" on="1"/>
        <pt x="417" y="377" on="1"/>
        <pt x="346" y="327" on="1"/>
        <pt x="260" y="469" on="1"/>
        <pt x="172" y="326" on="1"/>
        <pt x="103" y="378" on="1"/>
        <pt x="206" y="500" on="1"/>
        <pt x="65" y="530" on="1"/>
        <pt x="92" y="610" on="1"/>
        <pt x="229" y="555" on="1"/>
        <pt x="216" y="705" on="1"/>
        <pt x="306" y="705" on="1"/>
        <pt x="293" y="555" on="1"/>
        <pt x="432" y="608" on="1"/>
        <pt x="457" y="529" on="1"/>
      </contour>
    </TTGlyph>
    <TTGlyph name="at" xMin="101" yMin="-7" xMax="758" yMax="707">
      <contour>
        <pt x="503" y="472" on="1"/>
        <pt x="497" y="474" on="0"/>
        <pt x="477" y="477" on="0"/>
        <pt x="466" y="477" on="1"/>
        <pt x="441" y="477" on="0"/>
        <pt x="394" y="465" on="0"/>
        <pt x="358" y="427" on="0"/>
        <pt x="336" y="358" on="0"/>
        <pt x="336" y="302" on="1"/>
        <pt x="336" y="274" on="0"/>
        <pt x="346" y="239" on="0"/>
        <pt x="363" y="220" on="0"/>
        <pt x="387" y="214" on="0"/>
        <pt x="402" y="214" on="1"/>
        <pt x="425" y="214" on="0"/>
        <pt x="456" y="227" on="0"/>
        <pt x="476" y="246" on="0"/>
        <pt x="485" y="270" on="0"/>
        <pt x="486" y="281" on="1"/>
      </contour>
      <contour>
        <pt x="755" y="401" on="1"/>
        <pt x="749" y="335" on="0"/>
        <pt x="730" y="230" on="0"/>
        <pt x="693" y="156" on="0"/>
        <pt x="633" y="116" on="0"/>
        <pt x="585" y="116" on="1"/>
        <pt x="573" y="116" on="0"/>
        <pt x="543" y="125" on="0"/>
        <pt x="518" y="143" on="0"/>
        <pt x="499" y="172" on="0"/>
        <pt x="497" y="191" on="1"/>
        <pt x="481" y="171" on="0"/>
        <pt x="417" y="144" on="0"/>
        <pt x="375" y="144" on="1"/>
        <pt x="353" y="144" on="0"/>
        <pt x="311" y="157" on="0"/>
        <pt x="277" y="192" on="0"/>
        <pt x="256" y="252" on="0"/>
        <pt x="256" y="298" on="1"/>
        <pt x="256" y="375" on="0"/>
        <pt x="292" y="471" on="0"/>
        <pt x="354" y="525" on="0"/>
        <pt x="438" y="544" on="0"/>
        <pt x="485" y="544" on="1"/>
        <pt x="507" y="544" on="0"/>
        <pt x="563" y="535" on="0"/>
        <pt x="586" y="530" on="1"/>
        <pt x="562" y="251" on="1"/>
        <pt x="561" y="242" on="0"/>
        <pt x="559" y="218" on="0"/>
        <pt x="559" y="217" on="1"/>
        <pt x="559" y="203" on="0"/>
        <pt x="575" y="181" on="0"/>
        <pt x="592" y="181" on="1"/>
        <pt x="612" y="181" on="0"/>
        <pt x="638" y="212" on="0"/>
        <pt x="656" y="269" on="0"/>
        <pt x="668" y="350" on="0"/>
        <pt x="672" y="401" on="1"/>
        <pt x="674" y="424" on="0"/>
        <pt x="676" y="462" on="0"/>
        <pt x="676" y="479" on="1"/>
        <pt x="676" y="527" on="0"/>
        <pt x="656" y="589" on="0"/>
        <pt x="605" y="623" on="0"/>
        <pt x="519" y="636" on="0"/>
        <pt x="453" y="636" on="1"/>
        <pt x="378" y="636" on="0"/>
        <pt x="282" y="609" on="0"/>
        <pt x="224" y="543" on="0"/>
        <pt x="196" y="431" on="0"/>
        <pt x="188" y="345" on="1"/>
        <pt x="186" y="319" on="0"/>
        <pt x="183" y="273" on="0"/>
        <pt x="183" y="252" on="1"/>
        <pt x="183" y="201" on="0"/>
        <pt x="202" y="130" on="0"/>
        <pt x="251" y="85" on="0"/>
        <pt x="335" y="64" on="0"/>
        <pt x="399" y="64" on="1"/>
        <pt x="417" y="64" on="0"/>
        <pt x="463" y="67" on="0"/>
        <pt x="508" y="71" on="0"/>
        <pt x="547" y="75" on="0"/>
        <pt x="557" y="76" on="1"/>
        <pt x="551" y="5" on="1"/>
        <pt x="538" y="3" on="0"/>
        <pt x="499" y="-1" on="0"/>
        <pt x="456" y="-5" on="0"/>
        <pt x="411" y="-7" on="0"/>
        <pt x="393" y="-7" on="1"/>
        <pt x="312" y="-7" on="0"/>
        <pt x="201" y="22" on="0"/>
        <pt x="132" y="85" on="0"/>
        <pt x="101" y="186" on="0"/>
        <pt x="101" y="257" on="1"/>
        <pt x="101" y="277" on="0"/>
        <pt x="103" y="321" on="0"/>
        <pt x="105" y="345" on="1"/>
        <pt x="114" y="451" on="0"/>
        <pt x="157" y="590" on="0"/>
        <pt x="239" y="673" on="0"/>
        <pt x="366" y="707" on="0"/>
        <pt x="459" y="707" on="1"/>
        <pt x="535" y="707" on="0"/>
        <pt x="648" y="688" on="0"/>
        <pt x="722" y="635" on="0"/>
        <pt x="758" y="542" on="0"/>
        <pt x="758" y="468" on="1"/>
        <pt x="758" y="437" on="0"/>
      </contour>
    </TTGlyph>
    <TTGlyph name="atilde" xMin="71" yMin="-7" xMax="465" yMax="700">
      <contour>
        <pt x="74" y="228" on="1"/>
        <pt x="81" y="302" on="0"/>
        <pt x="115" y="408" on="0"/>
        <pt x="173" y="475" on="0"/>
        <pt x="257" y="507" on="0"/>
        <pt x="314" y="507" on="1"/>
        <pt x="328" y="507" on="0"/>
        <pt x="363" y="503" on="0"/>
        <pt x="398" y="497" on="0"/>
        <pt x="430" y="489" on="0"/>
        <pt x="442" y="485" on="1"/>
        <pt x="410" y="136" on="1"/>
        <pt x="410" y="134" on="0"/>
        <pt x="408" y="117" on="0"/>
        <pt x="408" y="103" on="1"/>
        <pt x="408" y="65" on="0"/>
        <pt x="447" y="65" on="1"/>
        <pt x="442" y="0" on="1"/>
        <pt x="423" y="0" on="1"/>
        <pt x="391" y="0" on="0"/>
        <pt x="346" y="30" on="0"/>
        <pt x="337" y="62" on="1"/>
        <pt x="317" y="32" on="0"/>
        <pt x="251" y="-7" on="0"/>
        <pt x="199" y="-7" on="1"/>
        <pt x="129" y="-7" on="0"/>
        <pt x="71" y="85" on="0"/>
        <pt x="71" y="170" on="1"/>
        <pt x="71" y="198" on="0"/>
      </contour>
      <contour>
        <pt x="221" y="65" on="1"/>
        <pt x="247" y="65" on="0"/>
        <pt x="285" y="84" on="0"/>
        <pt x="312" y="114" on="0"/>
        <pt x="326" y="152" on="0"/>
        <pt x="328" y="172" on="1"/>
        <pt x="351" y="431" on="1"/>
        <pt x="341" y="433" on="0"/>
        <pt x="315" y="435" on="0"/>
        <pt x="297" y="435" on="1"/>
        <pt x="158" y="435" on="0"/>
        <pt x="158" y="163" on="1"/>
        <pt x="158" y="113" on="0"/>
        <pt x="186" y="65" on="0"/>
      </contour>
      <contour>
        <pt x="183" y="667" on="1"/>
        <pt x="207" y="686" on="0"/>
        <pt x="252" y="700" on="0"/>
        <pt x="272" y="700" on="1"/>
        <pt x="290" y="700" on="0"/>
        <pt x="317" y="688" on="0"/>
        <pt x="343" y="673" on="0"/>
        <pt x="367" y="661" on="0"/>
        <pt x="382" y="661" on="1"/>
        <pt x="408" y="661" on="0"/>
        <pt x="444" y="680" on="0"/>
        <pt x="465" y="697" on="1"/>
        <pt x="459" y="624" on="1"/>
        <pt x="438" y="605" on="0"/>
        <pt x="396" y="591" on="0"/>
        <pt x="370" y="591" on="1"/>
        <pt x="351" y="591" on="0"/>
        <pt x="324" y="603" on="0"/>
        <pt x="300" y="618" on="0"/>
        <pt x="276" y="630" on="0"/>
        <pt x="260" y="630" on="1"/>
        <pt x="234" y="630" on="0"/>
        <pt x="193" y="608" on="0"/>
        <pt x="176" y="594" on="1"/>
      </contour>
    </TTGlyph>
    <TTGlyph name="b" xMin="70" yMin="-7" xMax="450" yMax="700">
      <contour>
        <pt x="448" y="282" on="1"/>
        <pt x="441" y="201" on="0"/>
        <pt x="411" y="91" on="0"/>
        <pt x="356" y="23" on="0"/>
        <pt x="272" y="-7" on="0"/>
        <pt x="210" y="-7" on="1"/>
        <pt x="175" y="-7" on="0"/>
        <pt x="102" y="0" on="0"/>
        <pt x="70" y="5" on="1"/>
        <pt x="131" y="700" on="1"/>
        <pt x="216" y="700" on="1"/>
        <pt x="194" y="455" on="1"/>
        <pt x="214" y="478" on="0"/>
        <pt x="272" y="507" on="0"/>
        <pt x="314" y="507" on="1"/>
        <pt x="389" y="507" on="0"/>
        <pt x="450" y="415" on="0"/>
        <pt x="450" y="334" on="1"/>
        <pt x="450" y="322" on="0"/>
        <pt x="450" y="296" on="0"/>
      </contour>
      <contour>
        <pt x="294" y="435" on="1"/>
        <pt x="265" y="435" on="0"/>
        <pt x="224" y="409" on="0"/>
        <pt x="197" y="369" on="0"/>
        <pt x="183" y="322" on="0"/>
        <pt x="181" y="300" on="1"/>
        <pt x="160" y="68" on="1"/>
        <pt x="184" y="65" on="0"/>
        <pt x="227" y="65" on="1"/>
        <pt x="263" y="65" on="0"/>
        <pt x="310" y="94" on="0"/>
        <pt x="340" y="149" on="0"/>
        <pt x="357" y="230" on="0"/>
        <pt x="361" y="282" on="1"/>
        <pt x="363" y="296" on="0"/>
        <pt x="363" y="321" on="0"/>
        <pt x="363" y="332" on="1"/>
        <pt x="363" y="384" on="0"/>
        <pt x="332" y="435" on="0"/>
      </contour>
    </TTGlyph>
    <TTGlyph name="backslash" xMin="65" yMin="-110" xMax="300" yMax="810">
      <contour>
        <pt x="65" y="810" on="1"/>
        <pt x="144" y="810" on="1"/>
        <pt x="300" y="-110" on="1"/>
        <pt x="221" y="-110" on="1"/>
      </contour>
    </TTGlyph>
    <TTGlyph name="bar" xMin="85" yMin="-110" xMax="245" yMax="810">
      <contour>
        <pt x="85" y="-110" on="1"/>
        <pt x="165" y="810" on="1"/>
        <pt x="245" y="810" on="1"/>
        <pt x="165" y="-110" on="1"/>
      </contour>
    </TTGlyph>
    <TTGlyph name="braceleft" xMin="50" yMin="-125" xMax="331" yMax="825">
      <contour>
        <pt x="182" y="-19" on="1"/>
        <pt x="182" y="-39" on="0"/>
        <pt x="202" y="-55" on="0"/>
        <pt x="224" y="-55" on="1"/>
        <pt x="234" y="-55" on="0"/>
        <pt x="250" y="-53" on="0"/>
        <pt x="255" y="-52" on="1"/>
        <pt x="249" y="-120" on="1"/>
        <pt x="241" y="-122" on="0"/>
        <pt x="214" y="-125" on="0"/>
        <pt x="204" y="-125" on="1"/>
        <pt x="150" y="-125" on="0"/>
        <pt x="105" y="-73" on="0"/>
        <pt x="105" y="-22" on="1"/>
        <pt x="105" y="-17" on="0"/>
        <pt x="106" y="5" on="0"/>
        <pt x="107" y="12" on="1"/>
        <pt x="121" y="181" on="1"/>
        <pt x="122" y="189" on="0"/>
        <pt x="124" y="214" on="0"/>
        <pt x="124" y="218" on="1"/>
        <pt x="124" y="244" on="0"/>
        <pt x="110" y="274" on="0"/>
        <pt x="89" y="290" on="0"/>
        <pt x="63" y="295" on="0"/>
        <pt x="50" y="295" on="1"/>
        <pt x="60" y="405" on="1"/>
        <pt x="74" y="405" on="0"/>
        <pt x="104" y="411" on="0"/>
        <pt x="129" y="431" on="0"/>
        <pt x="146" y="468" on="0"/>
        <pt x="149" y="499" on="1"/>
        <pt x="167" y="698" on="1"/>
        <pt x="170" y="731" on="0"/>
        <pt x="184" y="779" on="0"/>
        <pt x="211" y="810" on="0"/>
        <pt x="254" y="825" on="0"/>
        <pt x="287" y="825" on="1"/>
        <pt x="297" y="825" on="0"/>
        <pt x="323" y="822" on="0"/>
        <pt x="331" y="820" on="1"/>
        <pt x="325" y="752" on="1"/>
        <pt x="320" y="753" on="0"/>
        <pt x="305" y="755" on="0"/>
        <pt x="295" y="755" on="1"/>
        <pt x="272" y="755" on="0"/>
        <pt x="248" y="736" on="0"/>
        <pt x="246" y="713" on="1"/>
        <pt x="225" y="469" on="1"/>
        <pt x="222" y="436" on="0"/>
        <pt x="198" y="392" on="0"/>
        <pt x="165" y="364" on="0"/>
        <pt x="126" y="350" on="0"/>
        <pt x="109" y="347" on="1"/>
        <pt x="125" y="345" on="0"/>
        <pt x="159" y="330" on="0"/>
        <pt x="187" y="303" on="0"/>
        <pt x="205" y="265" on="0"/>
        <pt x="205" y="241" on="1"/>
        <pt x="205" y="239" on="0"/>
        <pt x="203" y="218" on="0"/>
        <pt x="202" y="211" on="1"/>
        <pt x="185" y="17" on="1"/>
        <pt x="184" y="6" on="0"/>
        <pt x="182" y="-17" on="0"/>
      </contour>
    </TTGlyph>
    <TTGlyph name="braceright" xMin="34" yMin="-125" xMax="315" yMax="825">
      <contour>
        <pt x="305" y="295" on="1"/>
        <pt x="291" y="295" on="0"/>
        <pt x="262" y="289" on="0"/>
        <pt x="237" y="269" on="0"/>
        <pt x="219" y="232" on="0"/>
        <pt x="216" y="201" on="1"/>
        <pt x="199" y="2" on="1"/>
        <pt x="196" y="-34" on="0"/>
        <pt x="180" y="-83" on="0"/>
        <pt x="151" y="-112" on="0"/>
        <pt x="108" y="-125" on="0"/>
        <pt x="79" y="-125" on="1"/>
        <pt x="69" y="-125" on="0"/>
        <pt x="42" y="-122" on="0"/>
        <pt x="34" y="-120" on="1"/>
        <pt x="40" y="-52" on="1"/>
        <pt x="45" y="-53" on="0"/>
        <pt x="61" y="-55" on="0"/>
        <pt x="71" y="-55" on="1"/>
        <pt x="95" y="-55" on="0"/>
        <pt x="117" y="-36" on="0"/>
        <pt x="119" y="-13" on="1"/>
        <pt x="141" y="231" on="1"/>
        <pt x="144" y="263" on="0"/>
        <pt x="168" y="307" on="0"/>
        <pt x="201" y="336" on="0"/>
        <pt x="239" y="351" on="0"/>
        <pt x="256" y="353" on="1"/>
        <pt x="241" y="356" on="0"/>
        <pt x="207" y="371" on="0"/>
        <pt x="180" y="396" on="0"/>
        <pt x="162" y="433" on="0"/>
        <pt x="162" y="457" on="1"/>
        <pt x="162" y="460" on="0"/>
        <pt x="163" y="480" on="0"/>
        <pt x="164" y="489" on="1"/>
        <pt x="181" y="689" on="1"/>
        <pt x="182" y="700" on="0"/>
        <pt x="184" y="719" on="0"/>
        <pt x="184" y="721" on="1"/>
        <pt x="184" y="755" on="0"/>
        <pt x="142" y="755" on="1"/>
        <pt x="132" y="755" on="0"/>
        <pt x="115" y="753" on="0"/>
        <pt x="110" y="752" on="1"/>
        <pt x="116" y="820" on="1"/>
        <pt x="124" y="822" on="0"/>
        <pt x="152" y="825" on="0"/>
        <pt x="162" y="825" on="1"/>
        <pt x="216" y="825" on="0"/>
        <pt x="261" y="773" on="0"/>
        <pt x="261" y="722" on="1"/>
        <pt x="261" y="719" on="0"/>
        <pt x="260" y="708" on="0"/>
        <pt x="259" y="694" on="0"/>
        <pt x="258" y="681" on="0"/>
        <pt x="258" y="678" on="1"/>
        <pt x="244" y="519" on="1"/>
        <pt x="243" y="511" on="0"/>
        <pt x="241" y="487" on="0"/>
        <pt x="241" y="482" on="1"/>
        <pt x="241" y="457" on="0"/>
        <pt x="255" y="427" on="0"/>
        <pt x="276" y="410" on="0"/>
        <pt x="302" y="405" on="0"/>
        <pt x="315" y="405" on="1"/>
      </contour>
    </TTGlyph>
    <TTGlyph name="bracketleft" xMin="64" yMin="-120" xMax="336" yMax="820">
      <contour>
        <pt x="64" y="-120" on="1"/>
        <pt x="146" y="820" on="1"/>
        <pt x="336" y="820" on="1"/>
        <pt x="330" y="745" on="1"/>
        <pt x="220" y="745" on="1"/>
        <pt x="151" y="-45" on="1"/>
        <pt x="261" y="-45" on="1"/>
        <pt x="254" y="-120" on="1"/>
      </contour>
    </TTGlyph>
    <TTGlyph name="bracketright" xMin="29" yMin="-120" xMax="301" yMax="820">
      <contour>
        <pt x="29" y="-120" on="1"/>
        <pt x="36" y="-45" on="1"/>
        <pt x="146" y="-45" on="1"/>
        <pt x="215" y="745" on="1"/>
        <pt x="105" y="745" on="1"/>
        <pt x="111" y="820" on="1"/>
        <pt x="301" y="820" on="1"/>
        <pt x="219" y="-120" on="1"/>
      </contour>
    </TTGlyph>
    <TTGlyph name="breve" xMin="88" yMin="595" xMax="372" yMax="725">
      <contour>
        <pt x="372" y="725" on="1"/>
        <pt x="367" y="704" on="0"/>
        <pt x="350" y="659" on="0"/>
        <pt x="317" y="620" on="0"/>
        <pt x="263" y="595" on="0"/>
        <pt x="219" y="595" on="1"/>
        <pt x="183" y="595" on="0"/>
        <pt x="134" y="620" on="0"/>
        <pt x="104" y="659" on="0"/>
        <pt x="90" y="704" on="0"/>
        <pt x="88" y="725" on="1"/>
        <pt x="170" y="725" on="1"/>
        <pt x="170" y="698" on="0"/>
        <pt x="191" y="656" on="0"/>
        <pt x="224" y="656" on="1"/>
        <pt x="241" y="656" on="0"/>
        <pt x="265" y="667" on="0"/>
        <pt x="280" y="687" on="0"/>
        <pt x="288" y="712" on="0"/>
        <pt x="291" y="725" on="1"/>
      </contour>
    </TTGlyph>
    <TTGlyph name="brokenbar" xMin="85" yMin="-110" xMax="245" yMax="810">
      <contour>
        <pt x="85" y="-110" on="1"/>
        <pt x="116" y="250" on="1"/>
        <pt x="196" y="250" on="1"/>
        <pt x="165" y="-110" on="1"/>
      </contour>
      <contour>
        <pt x="134" y="450" on="1"/>
        <pt x="165" y="810" on="1"/>
        <pt x="245" y="810" on="1"/>
        <pt x="214" y="450" on="1"/>
      </contour>
    </TTGlyph>
    <TTGlyph name="bullet" xMin="80" yMin="235" xMax="244" yMax="390">
      <contour>
        <pt x="80" y="235" on="1"/>
        <pt x="94" y="390" on="1"/>
        <pt x="244" y="390" on="1"/>
        <pt x="230" y="235" on="1"/>
      </contour>
    </TTGlyph>
    <TTGlyph name="c" xMin="73" yMin="-7" xMax="381" yMax="507">
      <contour>
        <pt x="339" y="10" on="1"/>
        <pt x="315" y="3" on="0"/>
        <pt x="256" y="-7" on="0"/>
        <pt x="229" y="-7" on="1"/>
        <pt x="192" y="-7" on="0"/>
        <pt x="133" y="7" on="0"/>
        <pt x="94" y="47" on="0"/>
        <pt x="73" y="120" on="0"/>
        <pt x="73" y="179" on="1"/>
        <pt x="73" y="269" on="0"/>
        <pt x="98" y="394" on="0"/>
        <pt x="147" y="472" on="0"/>
        <pt x="222" y="507" on="0"/>
        <pt x="273" y="507" on="1"/>
        <pt x="298" y="507" on="0"/>
        <pt x="360" y="496" on="0"/>
        <pt x="381" y="491" on="1"/>
        <pt x="375" y="416" on="1"/>
        <pt x="349" y="423" on="0"/>
        <pt x="297" y="432" on="0"/>
        <pt x="260" y="432" on="1"/>
        <pt x="238" y="432" on="0"/>
        <pt x="206" y="414" on="0"/>
        <pt x="182" y="369" on="0"/>
        <pt x="167" y="296" on="0"/>
        <pt x="162" y="240" on="1"/>
        <pt x="159" y="204" on="0"/>
        <pt x="159" y="178" on="1"/>
        <pt x="159" y="142" on="0"/>
        <pt x="169" y="99" on="0"/>
        <pt x="187" y="76" on="0"/>
        <pt x="213" y="68" on="0"/>
        <pt x="229" y="68" on="1"/>
        <pt x="267" y="68" on="0"/>
        <pt x="323" y="80" on="0"/>
        <pt x="346" y="85" on="1"/>
      </contour>
    </TTGlyph>
    <TTGlyph name="caron" xMin="87" yMin="579" xMax="400" yMax="714">
      <contour>
        <pt x="184" y="714" on="1"/>
        <pt x="237" y="630" on="1"/>
        <pt x="304" y="714" on="1"/>
        <pt x="400" y="714" on="1"/>
        <pt x="278" y="579" on="1"/>
        <pt x="190" y="579" on="1"/>
        <pt x="87" y="714" on="1"/>
      </contour>
    </TTGlyph>
    <TTGlyph name="ccedilla" xMin="73" yMin="-200" xMax="381" yMax="507">
      <contour>
        <pt x="142" y="-131" on="1"/>
        <pt x="156" y="-134" on="0"/>
        <pt x="185" y="-137" on="0"/>
        <pt x="196" y="-137" on="1"/>
        <pt x="217" y="-137" on="0"/>
        <pt x="239" y="-124" on="0"/>
        <pt x="239" y="-103" on="1"/>
        <pt x="239" y="-89" on="0"/>
        <pt x="208" y="-76" on="0"/>
        <pt x="161" y="-76" on="1"/>
        <pt x="179" y="-3" on="1"/>
        <pt x="153" y="1" on="0"/>
        <pt x="114" y="23" on="0"/>
        <pt x="87" y="65" on="0"/>
        <pt x="73" y="131" on="0"/>
        <pt x="73" y="179" on="1"/>
        <pt x="73" y="269" on="0"/>
        <pt x="98" y="394" on="0"/>
        <pt x="147" y="472" on="0"/>
        <pt x="222" y="507" on="0"/>
        <pt x="273" y="507" on="1"/>
        <pt x="298" y="507" on="0"/>
        <pt x="360" y="496" on="0"/>
        <pt x="381" y="491" on="1"/>
        <pt x="375" y="416" on="1"/>
        <pt x="349" y="423" on="0"/>
        <pt x="297" y="432" on="0"/>
        <pt x="260" y="432" on="1"/>
        <pt x="238" y="432" on="0"/>
        <pt x="206" y="414" on="0"/>
        <pt x="182" y="369" on="0"/>
        <pt x="167" y="296" on="0"/>
        <pt x="162" y="240" on="1"/>
        <pt x="159" y="204" on="0"/>
        <pt x="159" y="178" on="1"/>
        <pt x="159" y="142" on="0"/>
        <pt x="169" y="99" on="0"/>
        <pt x="187" y="76" on="0"/>
        <pt x="213" y="68" on="0"/>
        <pt x="229" y="68" on="1"/>
        <pt x="267" y="68" on="0"/>
        <pt x="323" y="80" on="0"/>
        <pt x="346" y="85" on="1"/>
        <pt x="339" y="10" on="1"/>
        <pt x="318" y="4" on="0"/>
        <pt x="268" y="-5" on="0"/>
        <pt x="243" y="-7" on="1"/>
        <pt x="239" y="-27" on="1"/>
        <pt x="281" y="-32" on="0"/>
        <pt x="316" y="-65" on="0"/>
        <pt x="316" y="-97" on="1"/>
        <pt x="316" y="-151" on="0"/>
        <pt x="250" y="-200" on="0"/>
        <pt x="199" y="-200" on="1"/>
        <pt x="181" y="-200" on="0"/>
        <pt x="151" y="-196" on="0"/>
        <pt x="136" y="-193" on="1"/>
      </contour>
    </TTGlyph>
    <TTGlyph name="cedilla" xMin="38" yMin="-200" xMax="218" yMax="50">
      <contour>
        <pt x="44" y="-131" on="1"/>
        <pt x="58" y="-134" on="0"/>
        <pt x="87" y="-137" on="0"/>
        <pt x="98" y="-137" on="1"/>
        <pt x="119" y="-137" on="0"/>
        <pt x="141" y="-124" on="0"/>
        <pt x="141" y="-103" on="1"/>
        <pt x="141" y="-89" on="0"/>
        <pt x="110" y="-76" on="0"/>
        <pt x="63" y="-76" on="1"/>
        <pt x="94" y="50" on="1"/>
        <pt x="159" y="50" on="1"/>
        <pt x="141" y="-27" on="1"/>
        <pt x="183" y="-32" on="0"/>
        <pt x="218" y="-65" on="0"/>
        <pt x="218" y="-97" on="1"/>
        <pt x="218" y="-151" on="0"/>
        <pt x="152" y="-200" on="0"/>
        <pt x="101" y="-200" on="1"/>
        <pt x="83" y="-200" on="0"/>
        <pt x="53" y="-196" on="0"/>
        <pt x="38" y="-193" on="1"/>
      </contour>
    </TTGlyph>
    <TTGlyph name="cent" xMin="106" yMin="-100" xMax="414" yMax="600">
      <contour>
        <pt x="218" y="-100" on="1"/>
        <pt x="226" y="-6" on="1"/>
        <pt x="197" y="-3" on="0"/>
        <pt x="152" y="16" on="0"/>
        <pt x="122" y="58" on="0"/>
        <pt x="106" y="127" on="0"/>
        <pt x="106" y="178" on="1"/>
        <pt x="106" y="259" on="0"/>
        <pt x="126" y="377" on="0"/>
        <pt x="167" y="456" on="0"/>
        <pt x="228" y="498" on="0"/>
        <pt x="270" y="504" on="1"/>
        <pt x="279" y="600" on="1"/>
        <pt x="359" y="600" on="1"/>
        <pt x="350" y="502" on="1"/>
        <pt x="367" y="500" on="0"/>
        <pt x="401" y="493" on="0"/>
        <pt x="414" y="490" on="1"/>
        <pt x="408" y="415" on="1"/>
        <pt x="382" y="422" on="0"/>
        <pt x="330" y="431" on="0"/>
        <pt x="293" y="431" on="1"/>
        <pt x="271" y="431" on="0"/>
        <pt x="239" y="413" on="0"/>
        <pt x="215" y="368" on="0"/>
        <pt x="200" y="295" on="0"/>
        <pt x="195" y="239" on="1"/>
        <pt x="192" y="203" on="0"/>
        <pt x="192" y="177" on="1"/>
        <pt x="192" y="141" on="0"/>
        <pt x="202" y="98" on="0"/>
        <pt x="220" y="75" on="0"/>
        <pt x="246" y="67" on="0"/>
        <pt x="262" y="67" on="1"/>
        <pt x="300" y="67" on="0"/>
        <pt x="356" y="79" on="0"/>
        <pt x="379" y="84" on="1"/>
        <pt x="372" y="9" on="1"/>
        <pt x="340" y="-1" on="0"/>
        <pt x="306" y="-5" on="1"/>
        <pt x="298" y="-100" on="1"/>
      </contour>
    </TTGlyph>
    <TTGlyph name="circumflex" xMin="75" yMin="580" xMax="388" yMax="715">
      <contour>
        <pt x="291" y="580" on="1"/>
        <pt x="239" y="664" on="1"/>
        <pt x="171" y="580" on="1"/>
        <pt x="75" y="580" on="1"/>
        <pt x="199" y="715" on="1"/>
        <pt x="287" y="715" on="1"/>
        <pt x="388" y="580" on="1"/>
      </contour>
    </TTGlyph>
    <TTGlyph name="colon" xMin="55" yMin="0" xMax="198" yMax="500">
      <contour>
        <pt x="55" y="0" on="1"/>
        <pt x="63" y="100" on="1"/>
        <pt x="163" y="100" on="1"/>
        <pt x="155" y="0" on="1"/>
      </contour>
      <contour>
        <pt x="89" y="400" on="1"/>
        <pt x="98" y="500" on="1"/>
        <pt x="198" y="500" on="1"/>
        <pt x="189" y="400" on="1"/>
      </contour>
    </TTGlyph>
    <TTGlyph name="comma" xMin="2" yMin="-140" xMax="163" yMax="100">
      <contour>
        <pt x="70" y="-140" on="1"/>
        <pt x="2" y="-140" on="1"/>
        <pt x="55" y="0" on="1"/>
        <pt x="63" y="100" on="1"/>
        <pt x="163" y="100" on="1"/>
        <pt x="155" y="0" on="1"/>
      </contour>
    </TTGlyph>
    <TTGlyph name="copyright" xMin="105" yMin="-7" xMax="735" yMax="707">
      <contour>
        <pt x="491" y="163" on="1"/>
        <pt x="482" y="161" on="0"/>
        <pt x="444" y="155" on="0"/>
        <pt x="430" y="155" on="1"/>
        <pt x="400" y="155" on="0"/>
        <pt x="356" y="172" on="0"/>
        <pt x="327" y="216" on="0"/>
        <pt x="312" y="295" on="0"/>
        <pt x="312" y="356" on="1"/>
        <pt x="312" y="417" on="0"/>
        <pt x="328" y="491" on="0"/>
        <pt x="360" y="532" on="0"/>
        <pt x="406" y="545" on="0"/>
        <pt x="436" y="545" on="1"/>
        <pt x="442" y="545" on="0"/>
        <pt x="458" y="543" on="0"/>
        <pt x="474" y="541" on="0"/>
        <pt x="488" y="538" on="0"/>
        <pt x="491" y="537" on="1"/>
        <pt x="491" y="489" on="1"/>
        <pt x="477" y="492" on="0"/>
        <pt x="443" y="495" on="0"/>
        <pt x="428" y="495" on="1"/>
        <pt x="413" y="495" on="0"/>
        <pt x="391" y="488" on="0"/>
        <pt x="376" y="459" on="0"/>
        <pt x="369" y="402" on="0"/>
        <pt x="369" y="352" on="1"/>
        <pt x="369" y="300" on="0"/>
        <pt x="377" y="241" on="0"/>
        <pt x="392" y="212" on="0"/>
        <pt x="414" y="205" on="0"/>
        <pt x="429" y="205" on="1"/>
        <pt x="446" y="205" on="0"/>
        <pt x="480" y="209" on="0"/>
        <pt x="491" y="211" on="1"/>
      </contour>
      <contour>
        <pt x="735" y="350" on="1"/>
        <pt x="735" y="267" on="0"/>
        <pt x="702" y="134" on="0"/>
        <pt x="629" y="42" on="0"/>
        <pt x="511" y="-7" on="0"/>
        <pt x="425" y="-7" on="1"/>
        <pt x="340" y="-7" on="0"/>
        <pt x="218" y="41" on="0"/>
        <pt x="141" y="133" on="0"/>
        <pt x="105" y="265" on="0"/>
        <pt x="105" y="350" on="1"/>
        <pt x="105" y="433" on="0"/>
        <pt x="141" y="565" on="0"/>
        <pt x="218" y="658" on="0"/>
        <pt x="339" y="707" on="0"/>
        <pt x="425" y="707" on="1"/>
        <pt x="511" y="707" on="0"/>
        <pt x="629" y="657" on="0"/>
        <pt x="703" y="565" on="0"/>
        <pt x="735" y="433" on="0"/>
      </contour>
      <contour>
        <pt x="658" y="350" on="1"/>
        <pt x="658" y="416" on="0"/>
        <pt x="639" y="523" on="0"/>
        <pt x="587" y="598" on="0"/>
        <pt x="496" y="639" on="0"/>
        <pt x="425" y="639" on="1"/>
        <pt x="354" y="639" on="0"/>
        <pt x="260" y="599" on="0"/>
        <pt x="205" y="524" on="0"/>
        <pt x="182" y="417" on="0"/>
        <pt x="182" y="350" on="1"/>
        <pt x="182" y="284" on="0"/>
        <pt x="205" y="177" on="0"/>
        <pt x="260" y="102" on="0"/>
        <pt x="354" y="61" on="0"/>
        <pt x="425" y="61" on="1"/>
        <pt x="496" y="61" on="0"/>
        <pt x="587" y="102" on="0"/>
        <pt x="639" y="177" on="0"/>
        <pt x="658" y="284" on="0"/>
      </contour>
    </TTGlyph>
    <TTGlyph name="currency" xMin="52" yMin="47" xMax="558" yMax="553">
      <contour>
        <pt x="442" y="106" on="1"/>
        <pt x="414" y="85" on="0"/>
        <pt x="344" y="65" on="0"/>
        <pt x="305" y="65" on="1"/>
        <pt x="223" y="65" on="0"/>
        <pt x="167" y="106" on="1"/>
        <pt x="108" y="47" on="1"/>
        <pt x="52" y="103" on="1"/>
        <pt x="115" y="166" on="1"/>
        <pt x="101" y="192" on="0"/>
        <pt x="85" y="259" on="0"/>
        <pt x="85" y="300" on="1"/>
        <pt x="85" y="341" on="0"/>
        <pt x="101" y="407" on="0"/>
        <pt x="115" y="433" on="1"/>
        <pt x="52" y="497" on="1"/>
        <pt x="108" y="553" on="1"/>
        <pt x="167" y="494" on="1"/>
        <pt x="225" y="535" on="0"/>
        <pt x="305" y="535" on="1"/>
        <pt x="344" y="535" on="0"/>
        <pt x="414" y="514" on="0"/>
        <pt x="442" y="494" on="1"/>
        <pt x="502" y="553" on="1"/>
        <pt x="558" y="497" on="1"/>
        <pt x="495" y="433" on="1"/>
        <pt x="509" y="407" on="0"/>
        <pt x="525" y="341" on="0"/>
        <pt x="525" y="300" on="1"/>
        <pt x="525" y="259" on="0"/>
        <pt x="509" y="192" on="0"/>
        <pt x="495" y="166" on="1"/>
        <pt x="558" y="103" on="1"/>
        <pt x="502" y="47" on="1"/>
      </contour>
      <contour>
        <pt x="438" y="300" on="1"/>
        <pt x="438" y="341" on="0"/>
        <pt x="418" y="402" on="0"/>
        <pt x="382" y="444" on="0"/>
        <pt x="333" y="465" on="0"/>
        <pt x="305" y="465" on="1"/>
        <pt x="277" y="465" on="0"/>
        <pt x="228" y="444" on="0"/>
        <pt x="192" y="402" on="0"/>
        <pt x="172" y="341" on="0"/>
        <pt x="172" y="300" on="1"/>
        <pt x="172" y="260" on="0"/>
        <pt x="192" y="198" on="0"/>
        <pt x="228" y="156" on="0"/>
        <pt x="277" y="135" on="0"/>
        <pt x="305" y="135" on="1"/>
        <pt x="333" y="135" on="0"/>
        <pt x="382" y="156" on="0"/>
        <pt x="418" y="198" on="0"/>
        <pt x="438" y="260" on="0"/>
      </contour>
    </TTGlyph>
    <TTGlyph name="d" xMin="72" yMin="-7" xMax="475" yMax="700">
      <contour>
        <pt x="74" y="228" on="1"/>
        <pt x="81" y="302" on="0"/>
        <pt x="113" y="408" on="0"/>
        <pt x="171" y="475" on="0"/>
        <pt x="257" y="507" on="0"/>
        <pt x="317" y="507" on="1"/>
        <pt x="344" y="507" on="0"/>
        <pt x="372" y="502" on="1"/>
        <pt x="390" y="700" on="1"/>
        <pt x="475" y="700" on="1"/>
        <pt x="414" y="0" on="1"/>
        <pt x="344" y="0" on="1"/>
        <pt x="339" y="60" on="1"/>
        <pt x="316" y="31" on="0"/>
        <pt x="251" y="-7" on="0"/>
        <pt x="204" y="-7" on="1"/>
        <pt x="135" y="-7" on="0"/>
        <pt x="72" y="83" on="0"/>
        <pt x="72" y="174" on="1"/>
        <pt x="72" y="187" on="0"/>
        <pt x="72" y="214" on="0"/>
      </contour>
      <contour>
        <pt x="226" y="65" on="1"/>
        <pt x="255" y="65" on="0"/>
        <pt x="298" y="90" on="0"/>
        <pt x="327" y="129" on="0"/>
        <pt x="343" y="177" on="0"/>
        <pt x="345" y="199" on="1"/>
        <pt x="366" y="431" on="1"/>
        <pt x="355" y="433" on="0"/>
        <pt x="323" y="435" on="0"/>
        <pt x="300" y="435" on="1"/>
        <pt x="264" y="435" on="0"/>
        <pt x="216" y="406" on="0"/>
        <pt x="184" y="351" on="0"/>
        <pt x="166" y="270" on="0"/>
        <pt x="161" y="218" on="1"/>
        <pt x="160" y="205" on="0"/>
        <pt x="159" y="181" on="0"/>
        <pt x="159" y="170" on="1"/>
        <pt x="159" y="117" on="0"/>
        <pt x="190" y="65" on="0"/>
      </contour>
    </TTGlyph>
    <TTGlyph name="dagger" xMin="72" yMin="0" xMax="439" yMax="700">
      <contour>
        <pt x="176" y="0" on="1"/>
        <pt x="213" y="425" on="1"/>
        <pt x="72" y="425" on="1"/>
        <pt x="78" y="500" on="1"/>
        <pt x="219" y="500" on="1"/>
        <pt x="237" y="700" on="1"/>
        <pt x="317" y="700" on="1"/>
        <pt x="299" y="500" on="1"/>
        <pt x="439" y="500" on="1"/>
        <pt x="433" y="425" on="1"/>
        <pt x="293" y="425" on="1"/>
        <pt x="256" y="0" on="1"/>
      </contour>
    </TTGlyph>
    <TTGlyph name="daggerdbl" xMin="53" yMin="0" xMax="439" yMax="700">
      <contour>
        <pt x="176" y="0" on="1"/>
        <pt x="194" y="210" on="1"/>
        <pt x="53" y="210" on="1"/>
        <pt x="59" y="285" on="1"/>
        <pt x="201" y="285" on="1"/>
        <pt x="213" y="425" on="1"/>
        <pt x="72" y="425" on="1"/>
        <pt x="78" y="500" on="1"/>
        <pt x="219" y="500" on="1"/>
        <pt x="237" y="700" on="1"/>
        <pt x="317" y="700" on="1"/>
        <pt x="299" y="500" on="1"/>
        <pt x="439" y="500" on="1"/>
        <pt x="433" y="425" on="1"/>
        <pt x="293" y="425" on="1"/>
        <pt x="281" y="285" on="1"/>
        <pt x="420" y="285" on="1"/>
        <pt x="414" y="210" on="1"/>
        <pt x="274" y="210" on="1"/>
        <pt x="256" y="0" on="1"/>
      </contour>
    </TTGlyph>
    <TTGlyph name="degree" xMin="67" yMin="392" xMax="372" yMax="705">
      <contour>
        <pt x="298" y="567" on="1"/>
        <pt x="298" y="597" on="0"/>
        <pt x="268" y="643" on="0"/>
        <pt x="227" y="643" on="1"/>
        <pt x="202" y="643" on="0"/>
        <pt x="168" y="624" on="0"/>
        <pt x="148" y="593" on="0"/>
        <pt x="140" y="555" on="0"/>
        <pt x="140" y="537" on="1"/>
        <pt x="140" y="506" on="0"/>
        <pt x="170" y="456" on="0"/>
        <pt x="210" y="456" on="1"/>
        <pt x="236" y="456" on="0"/>
        <pt x="269" y="477" on="0"/>
        <pt x="289" y="509" on="0"/>
        <pt x="298" y="548" on="0"/>
      </contour>
      <contour>
        <pt x="372" y="571" on="1"/>
        <pt x="372" y="535" on="0"/>
        <pt x="353" y="471" on="0"/>
        <pt x="313" y="421" on="0"/>
        <pt x="250" y="392" on="0"/>
        <pt x="205" y="392" on="1"/>
        <pt x="168" y="392" on="0"/>
        <pt x="115" y="413" on="0"/>
        <pt x="82" y="451" on="0"/>
        <pt x="67" y="501" on="0"/>
        <pt x="67" y="529" on="1"/>
        <pt x="67" y="565" on="0"/>
        <pt x="85" y="629" on="0"/>
        <pt x="125" y="677" on="0"/>
        <pt x="188" y="705" on="0"/>
        <pt x="232" y="705" on="1"/>
        <pt x="270" y="705" on="0"/>
        <pt x="323" y="685" on="0"/>
        <pt x="357" y="649" on="0"/>
        <pt x="372" y="600" on="0"/>
      </contour>
    </TTGlyph>
    <TTGlyph name="dieresis" xMin="77" yMin="595" xMax="369" yMax="675">
      <contour>
        <pt x="277" y="595" on="1"/>
        <pt x="284" y="675" on="1"/>
        <pt x="369" y="675" on="1"/>
        <pt x="362" y="595" on="1"/>
      </contour>
      <contour>
        <pt x="77" y="595" on="1"/>
        <pt x="84" y="675" on="1"/>
        <pt x="169" y="675" on="1"/>
        <pt x="162" y="595" on="1"/>
      </contour>
    </TTGlyph>
    <TTGlyph name="divide" xMin="99" yMin="65" xMax="485" yMax="560">
      <contour>
        <pt x="99" y="275" on="1"/>
        <pt x="105" y="350" on="1"/>
        <pt x="485" y="350" on="1"/>
        <pt x="479" y="275" on="1"/>
      </contour>
      <contour>
        <pt x="220" y="65" on="1"/>
        <pt x="229" y="165" on="1"/>
        <pt x="329" y="165" on="1"/>
        <pt x="320" y="65" on="1"/>
      </contour>
      <contour>
        <pt x="255" y="460" on="1"/>
        <pt x="263" y="560" on="1"/>
        <pt x="363" y="560" on="1"/>
        <pt x="355" y="460" on="1"/>
      </contour>
    </TTGlyph>
    <TTGlyph name="dollar" xMin="84" yMin="-130" xMax="412" yMax="780">
      <contour>
        <pt x="170" y="-130" on="1"/>
        <pt x="181" y="-5" on="1"/>
        <pt x="131" y="-4" on="0"/>
        <pt x="84" y="10" on="1"/>
        <pt x="91" y="83" on="1"/>
        <pt x="114" y="77" on="0"/>
        <pt x="170" y="68" on="0"/>
        <pt x="205" y="68" on="1"/>
        <pt x="262" y="68" on="0"/>
        <pt x="306" y="141" on="0"/>
        <pt x="306" y="213" on="1"/>
        <pt x="306" y="262" on="0"/>
        <pt x="274" y="304" on="0"/>
        <pt x="245" y="310" on="1"/>
        <pt x="183" y="323" on="0"/>
        <pt x="114" y="408" on="0"/>
        <pt x="114" y="472" on="1"/>
        <pt x="114" y="519" on="0"/>
        <pt x="132" y="586" on="0"/>
        <pt x="165" y="633" on="0"/>
        <pt x="212" y="660" on="0"/>
        <pt x="240" y="667" on="1"/>
        <pt x="250" y="780" on="1"/>
        <pt x="335" y="780" on="1"/>
        <pt x="326" y="675" on="1"/>
        <pt x="352" y="674" on="0"/>
        <pt x="392" y="665" on="0"/>
        <pt x="412" y="660" on="1"/>
        <pt x="406" y="587" on="1"/>
        <pt x="381" y="593" on="0"/>
        <pt x="327" y="602" on="0"/>
        <pt x="301" y="602" on="1"/>
        <pt x="280" y="602" on="0"/>
        <pt x="244" y="590" on="0"/>
        <pt x="218" y="562" on="0"/>
        <pt x="204" y="514" on="0"/>
        <pt x="204" y="478" on="1"/>
        <pt x="204" y="441" on="0"/>
        <pt x="231" y="401" on="0"/>
        <pt x="265" y="393" on="1"/>
        <pt x="329" y="379" on="0"/>
        <pt x="396" y="303" on="0"/>
        <pt x="396" y="228" on="1"/>
        <pt x="396" y="220" on="0"/>
        <pt x="395" y="203" on="0"/>
        <pt x="394" y="194" on="1"/>
        <pt x="390" y="146" on="0"/>
        <pt x="369" y="78" on="0"/>
        <pt x="337" y="33" on="0"/>
        <pt x="293" y="8" on="0"/>
        <pt x="266" y="2" on="1"/>
        <pt x="255" y="-130" on="1"/>
      </contour>
    </TTGlyph>
    <TTGlyph name="dotaccent" xMin="78" yMin="615" xMax="171" yMax="700">
      <contour>
        <pt x="78" y="615" on="1"/>
        <pt x="86" y="700" on="1"/>
        <pt x="171" y="700" on="1"/>
        <pt x="163" y="615" on="1"/>
      </contour>
    </TTGlyph>
    <TTGlyph name="dotlessi" xMin="70" yMin="0" xMax="198" yMax="500">
      <contour>
        <pt x="70" y="0" on="1"/>
        <pt x="113" y="500" on="1"/>
        <pt x="198" y="500" on="1"/>
        <pt x="155" y="0" on="1"/>
      </contour>
    </TTGlyph>
    <TTGlyph name="dotmath" xMin="103" yMin="270" xMax="223" yMax="380">
      <contour>
        <pt x="103" y="270" on="1"/>
        <pt x="113" y="380" on="1"/>
        <pt x="223" y="380" on="1"/>
        <pt x="213" y="270" on="1"/>
      </contour>
    </TTGlyph>
    <TTGlyph name="e" xMin="73" yMin="-7" xMax="426" yMax="507">
      <contour>
        <pt x="426" y="370" on="1"/>
        <pt x="426" y="282" on="0"/>
        <pt x="320" y="204" on="0"/>
        <pt x="231" y="204" on="1"/>
        <pt x="211" y="204" on="0"/>
        <pt x="178" y="206" on="0"/>
        <pt x="157" y="208" on="1"/>
        <pt x="157" y="172" on="1"/>
        <pt x="157" y="138" on="0"/>
        <pt x="170" y="95" on="0"/>
        <pt x="191" y="73" on="0"/>
        <pt x="217" y="65" on="0"/>
        <pt x="231" y="65" on="1"/>
        <pt x="280" y="65" on="0"/>
        <pt x="344" y="77" on="0"/>
        <pt x="367" y="82" on="1"/>
        <pt x="360" y="10" on="1"/>
        <pt x="348" y="7" on="0"/>
        <pt x="316" y="0" on="0"/>
        <pt x="282" y="-4" on="0"/>
        <pt x="249" y="-7" on="0"/>
        <pt x="235" y="-7" on="1"/>
        <pt x="199" y="-7" on="0"/>
        <pt x="140" y="7" on="0"/>
        <pt x="97" y="47" on="0"/>
        <pt x="73" y="120" on="0"/>
        <pt x="73" y="179" on="1"/>
        <pt x="73" y="269" on="0"/>
        <pt x="100" y="394" on="0"/>
        <pt x="152" y="472" on="0"/>
        <pt x="227" y="507" on="0"/>
        <pt x="274" y="507" on="1"/>
        <pt x="316" y="507" on="0"/>
        <pt x="374" y="484" on="0"/>
        <pt x="410" y="445" on="0"/>
        <pt x="426" y="396" on="0"/>
      </contour>
      <contour>
        <pt x="273" y="436" on="1"/>
        <pt x="251" y="436" on="0"/>
        <pt x="214" y="420" on="0"/>
        <pt x="186" y="383" on="0"/>
        <pt x="167" y="322" on="0"/>
        <pt x="162" y="277" on="1"/>
        <pt x="177" y="275" on="0"/>
        <pt x="202" y="274" on="0"/>
        <pt x="216" y="274" on="1"/>
        <pt x="286" y="274" on="0"/>
        <pt x="346" y="316" on="0"/>
        <pt x="346" y="366" on="1"/>
        <pt x="346" y="380" on="0"/>
        <pt x="340" y="406" on="0"/>
        <pt x="324" y="425" on="0"/>
        <pt x="296" y="436" on="0"/>
      </contour>
    </TTGlyph>
    <TTGlyph name="eacute" xMin="73" yMin="-7" xMax="447" yMax="715">
      <contour>
        <pt x="426" y="370" on="1"/>
        <pt x="426" y="282" on="0"/>
        <pt x="320" y="204" on="0"/>
        <pt x="231" y="204" on="1"/>
        <pt x="211" y="204" on="0"/>
        <pt x="178" y="206" on="0"/>
        <pt x="157" y="208" on="1"/>
        <pt x="157" y="172" on="1"/>
        <pt x="157" y="138" on="0"/>
        <pt x="170" y="95" on="0"/>
        <pt x="191" y="73" on="0"/>
        <pt x="217" y="65" on="0"/>
        <pt x="231" y="65" on="1"/>
        <pt x="280" y="65" on="0"/>
        <pt x="344" y="77" on="0"/>
        <pt x="367" y="82" on="1"/>
        <pt x="360" y="10" on="1"/>
        <pt x="348" y="7" on="0"/>
        <pt x="316" y="0" on="0"/>
        <pt x="282" y="-4" on="0"/>
        <pt x="249" y="-7" on="0"/>
        <pt x="235" y="-7" on="1"/>
        <pt x="199" y="-7" on="0"/>
        <pt x="140" y="7" on="0"/>
        <pt x="97" y="47" on="0"/>
        <pt x="73" y="120" on="0"/>
        <pt x="73" y="179" on="1"/>
        <pt x="73" y="269" on="0"/>
        <pt x="100" y="394" on="0"/>
        <pt x="152" y="472" on="0"/>
        <pt x="227" y="507" on="0"/>
        <pt x="274" y="507" on="1"/>
        <pt x="316" y="507" on="0"/>
        <pt x="374" y="484" on="0"/>
        <pt x="410" y="445" on="0"/>
        <pt x="426" y="396" on="0"/>
      </contour>
      <contour>
        <pt x="273" y="436" on="1"/>
        <pt x="251" y="436" on="0"/>
        <pt x="214" y="420" on="0"/>
        <pt x="186" y="383" on="0"/>
        <pt x="167" y="322" on="0"/>
        <pt x="162" y="277" on="1"/>
        <pt x="177" y="275" on="0"/>
        <pt x="202" y="274" on="0"/>
        <pt x="216" y="274" on="1"/>
        <pt x="286" y="274" on="0"/>
        <pt x="346" y="316" on="0"/>
        <pt x="346" y="366" on="1"/>
        <pt x="346" y="380" on="0"/>
        <pt x="340" y="406" on="0"/>
        <pt x="324" y="425" on="0"/>
        <pt x="296" y="436" on="0"/>
      </contour>
      <contour>
        <pt x="222" y="580" on="1"/>
        <pt x="338" y="715" on="1"/>
        <pt x="447" y="715" on="1"/>
        <pt x="308" y="580" on="1"/>
      </contour>
    </TTGlyph>
    <TTGlyph name="ecircumflex" xMin="73" yMin="-7" xMax="444" yMax="715">
      <contour>
        <pt x="426" y="370" on="1"/>
        <pt x="426" y="282" on="0"/>
        <pt x="320" y="204" on="0"/>
        <pt x="231" y="204" on="1"/>
        <pt x="211" y="204" on="0"/>
        <pt x="178" y="206" on="0"/>
        <pt x="157" y="208" on="1"/>
        <pt x="157" y="172" on="1"/>
        <pt x="157" y="138" on="0"/>
        <pt x="170" y="95" on="0"/>
        <pt x="191" y="73" on="0"/>
        <pt x="217" y="65" on="0"/>
        <pt x="231" y="65" on="1"/>
        <pt x="280" y="65" on="0"/>
        <pt x="344" y="77" on="0"/>
        <pt x="367" y="82" on="1"/>
        <pt x="360" y="10" on="1"/>
        <pt x="348" y="7" on="0"/>
        <pt x="316" y="0" on="0"/>
        <pt x="282" y="-4" on="0"/>
        <pt x="249" y="-7" on="0"/>
        <pt x="235" y="-7" on="1"/>
        <pt x="199" y="-7" on="0"/>
        <pt x="140" y="7" on="0"/>
        <pt x="97" y="47" on="0"/>
        <pt x="73" y="120" on="0"/>
        <pt x="73" y="179" on="1"/>
        <pt x="73" y="269" on="0"/>
        <pt x="100" y="394" on="0"/>
        <pt x="152" y="472" on="0"/>
        <pt x="227" y="507" on="0"/>
        <pt x="274" y="507" on="1"/>
        <pt x="316" y="507" on="0"/>
        <pt x="374" y="484" on="0"/>
        <pt x="410" y="445" on="0"/>
        <pt x="426" y="396" on="0"/>
      </contour>
      <contour>
        <pt x="273" y="436" on="1"/>
        <pt x="251" y="436" on="0"/>
        <pt x="214" y="420" on="0"/>
        <pt x="186" y="383" on="0"/>
        <pt x="167" y="322" on="0"/>
        <pt x="162" y="277" on="1"/>
        <pt x="177" y="275" on="0"/>
        <pt x="202" y="274" on="0"/>
        <pt x="216" y="274" on="1"/>
        <pt x="286" y="274" on="0"/>
        <pt x="346" y="316" on="0"/>
        <pt x="346" y="366" on="1"/>
        <pt x="346" y="380" on="0"/>
        <pt x="340" y="406" on="0"/>
        <pt x="324" y="425" on="0"/>
        <pt x="296" y="436" on="0"/>
      </contour>
      <contour>
        <pt x="347" y="580" on="1"/>
        <pt x="295" y="664" on="1"/>
        <pt x="227" y="580" on="1"/>
        <pt x="131" y="580" on="1"/>
        <pt x="255" y="715" on="1"/>
        <pt x="343" y="715" on="1"/>
        <pt x="444" y="580" on="1"/>
      </contour>
    </TTGlyph>
    <TTGlyph name="edieresis" xMin="73" yMin="-7" xMax="441" yMax="675">
      <contour>
        <pt x="426" y="370" on="1"/>
        <pt x="426" y="282" on="0"/>
        <pt x="320" y="204" on="0"/>
        <pt x="231" y="204" on="1"/>
        <pt x="211" y="204" on="0"/>
        <pt x="178" y="206" on="0"/>
        <pt x="157" y="208" on="1"/>
        <pt x="157" y="172" on="1"/>
        <pt x="157" y="138" on="0"/>
        <pt x="170" y="95" on="0"/>
        <pt x="191" y="73" on="0"/>
        <pt x="217" y="65" on="0"/>
        <pt x="231" y="65" on="1"/>
        <pt x="280" y="65" on="0"/>
        <pt x="344" y="77" on="0"/>
        <pt x="367" y="82" on="1"/>
        <pt x="360" y="10" on="1"/>
        <pt x="348" y="7" on="0"/>
        <pt x="316" y="0" on="0"/>
        <pt x="282" y="-4" on="0"/>
        <pt x="249" y="-7" on="0"/>
        <pt x="235" y="-7" on="1"/>
        <pt x="199" y="-7" on="0"/>
        <pt x="140" y="7" on="0"/>
        <pt x="97" y="47" on="0"/>
        <pt x="73" y="120" on="0"/>
        <pt x="73" y="179" on="1"/>
        <pt x="73" y="269" on="0"/>
        <pt x="100" y="394" on="0"/>
        <pt x="152" y="472" on="0"/>
        <pt x="227" y="507" on="0"/>
        <pt x="274" y="507" on="1"/>
        <pt x="316" y="507" on="0"/>
        <pt x="374" y="484" on="0"/>
        <pt x="410" y="445" on="0"/>
        <pt x="426" y="396" on="0"/>
      </contour>
      <contour>
        <pt x="273" y="436" on="1"/>
        <pt x="251" y="436" on="0"/>
        <pt x="214" y="420" on="0"/>
        <pt x="186" y="383" on="0"/>
        <pt x="167" y="322" on="0"/>
        <pt x="162" y="277" on="1"/>
        <pt x="177" y="275" on="0"/>
        <pt x="202" y="274" on="0"/>
        <pt x="216" y="274" on="1"/>
        <pt x="286" y="274" on="0"/>
        <pt x="346" y="316" on="0"/>
        <pt x="346" y="366" on="1"/>
        <pt x="346" y="380" on="0"/>
        <pt x="340" y="406" on="0"/>
        <pt x="324" y="425" on="0"/>
        <pt x="296" y="436" on="0"/>
      </contour>
      <contour>
        <pt x="349" y="595" on="1"/>
        <pt x="356" y="675" on="1"/>
        <pt x="441" y="675" on="1"/>
        <pt x="434" y="595" on="1"/>
      </contour>
      <contour>
        <pt x="149" y="595" on="1"/>
        <pt x="156" y="675" on="1"/>
        <pt x="241" y="675" on="1"/>
        <pt x="234" y="595" on="1"/>
      </contour>
    </TTGlyph>
    <TTGlyph name="egrave" xMin="73" yMin="-7" xMax="426" yMax="715">
      <contour>
        <pt x="426" y="370" on="1"/>
        <pt x="426" y="282" on="0"/>
        <pt x="320" y="204" on="0"/>
        <pt x="231" y="204" on="1"/>
        <pt x="211" y="204" on="0"/>
        <pt x="178" y="206" on="0"/>
        <pt x="157" y="208" on="1"/>
        <pt x="157" y="172" on="1"/>
        <pt x="157" y="138" on="0"/>
        <pt x="170" y="95" on="0"/>
        <pt x="191" y="73" on="0"/>
        <pt x="217" y="65" on="0"/>
        <pt x="231" y="65" on="1"/>
        <pt x="280" y="65" on="0"/>
        <pt x="344" y="77" on="0"/>
        <pt x="367" y="82" on="1"/>
        <pt x="360" y="10" on="1"/>
        <pt x="348" y="7" on="0"/>
        <pt x="316" y="0" on="0"/>
        <pt x="282" y="-4" on="0"/>
        <pt x="249" y="-7" on="0"/>
        <pt x="235" y="-7" on="1"/>
        <pt x="199" y="-7" on="0"/>
        <pt x="140" y="7" on="0"/>
        <pt x="97" y="47" on="0"/>
        <pt x="73" y="120" on="0"/>
        <pt x="73" y="179" on="1"/>
        <pt x="73" y="269" on="0"/>
        <pt x="100" y="394" on="0"/>
        <pt x="152" y="472" on="0"/>
        <pt x="227" y="507" on="0"/>
        <pt x="274" y="507" on="1"/>
        <pt x="316" y="507" on="0"/>
        <pt x="374" y="484" on="0"/>
        <pt x="410" y="445" on="0"/>
        <pt x="426" y="396" on="0"/>
      </contour>
      <contour>
        <pt x="273" y="436" on="1"/>
        <pt x="251" y="436" on="0"/>
        <pt x="214" y="420" on="0"/>
        <pt x="186" y="383" on="0"/>
        <pt x="167" y="322" on="0"/>
        <pt x="162" y="277" on="1"/>
        <pt x="177" y="275" on="0"/>
        <pt x="202" y="274" on="0"/>
        <pt x="216" y="274" on="1"/>
        <pt x="286" y="274" on="0"/>
        <pt x="346" y="316" on="0"/>
        <pt x="346" y="366" on="1"/>
        <pt x="346" y="380" on="0"/>
        <pt x="340" y="406" on="0"/>
        <pt x="324" y="425" on="0"/>
        <pt x="296" y="436" on="0"/>
      </contour>
      <contour>
        <pt x="283" y="580" on="1"/>
        <pt x="158" y="715" on="1"/>
        <pt x="267" y="715" on="1"/>
        <pt x="359" y="580" on="1"/>
      </contour>
    </TTGlyph>
    <TTGlyph name="eight" xMin="52" yMin="-7" xMax="445" yMax="707">
      <contour>
        <pt x="346" y="233" on="1"/>
        <pt x="346" y="260" on="0"/>
        <pt x="335" y="299" on="0"/>
        <pt x="307" y="324" on="0"/>
        <pt x="258" y="335" on="0"/>
        <pt x="220" y="335" on="1"/>
        <pt x="198" y="324" on="0"/>
        <pt x="167" y="298" on="0"/>
        <pt x="147" y="259" on="0"/>
        <pt x="137" y="203" on="0"/>
        <pt x="137" y="161" on="1"/>
        <pt x="137" y="106" on="0"/>
        <pt x="183" y="65" on="0"/>
        <pt x="230" y="65" on="1"/>
        <pt x="266" y="65" on="0"/>
        <pt x="312" y="88" on="0"/>
        <pt x="337" y="132" on="0"/>
        <pt x="346" y="194" on="0"/>
      </contour>
      <contour>
        <pt x="362" y="548" on="1"/>
        <pt x="362" y="592" on="0"/>
        <pt x="325" y="635" on="0"/>
        <pt x="280" y="635" on="1"/>
        <pt x="223" y="635" on="0"/>
        <pt x="178" y="562" on="0"/>
        <pt x="178" y="490" on="1"/>
        <pt x="178" y="439" on="0"/>
        <pt x="225" y="396" on="0"/>
        <pt x="288" y="396" on="1"/>
        <pt x="310" y="404" on="0"/>
        <pt x="338" y="436" on="0"/>
        <pt x="355" y="478" on="0"/>
        <pt x="362" y="525" on="0"/>
      </contour>
      <contour>
        <pt x="431" y="230" on="1"/>
        <pt x="431" y="173" on="0"/>
        <pt x="409" y="85" on="0"/>
        <pt x="360" y="24" on="0"/>
        <pt x="281" y="-7" on="0"/>
        <pt x="224" y="-7" on="1"/>
        <pt x="135" y="-7" on="0"/>
        <pt x="52" y="75" on="0"/>
        <pt x="52" y="161" on="1"/>
        <pt x="52" y="213" on="0"/>
        <pt x="70" y="282" on="0"/>
        <pt x="99" y="328" on="0"/>
        <pt x="136" y="354" on="0"/>
        <pt x="155" y="362" on="1"/>
        <pt x="124" y="378" on="0"/>
        <pt x="94" y="451" on="0"/>
        <pt x="94" y="494" on="1"/>
        <pt x="94" y="556" on="0"/>
        <pt x="123" y="638" on="0"/>
        <pt x="174" y="687" on="0"/>
        <pt x="245" y="707" on="0"/>
        <pt x="286" y="707" on="1"/>
        <pt x="319" y="707" on="0"/>
        <pt x="377" y="692" on="0"/>
        <pt x="420" y="655" on="0"/>
        <pt x="445" y="594" on="0"/>
        <pt x="445" y="549" on="1"/>
        <pt x="445" y="517" on="0"/>
        <pt x="438" y="463" on="0"/>
        <pt x="418" y="418" on="0"/>
        <pt x="382" y="383" on="0"/>
        <pt x="353" y="370" on="1"/>
        <pt x="395" y="360" on="0"/>
        <pt x="431" y="281" on="0"/>
      </contour>
    </TTGlyph>
    <TTGlyph name="ellipsis" xMin="55" yMin="0" xMax="603" yMax="100">
      <contour>
        <pt x="55" y="0" on="1"/>
        <pt x="63" y="100" on="1"/>
        <pt x="163" y="100" on="1"/>
        <pt x="155" y="0" on="1"/>
      </contour>
      <contour>
        <pt x="275" y="0" on="1"/>
        <pt x="283" y="100" on="1"/>
        <pt x="383" y="100" on="1"/>
        <pt x="375" y="0" on="1"/>
      </contour>
      <contour>
        <pt x="495" y="0" on="1"/>
        <pt x="503" y="100" on="1"/>
        <pt x="603" y="100" on="1"/>
        <pt x="595" y="0" on="1"/>
      </contour>
    </TTGlyph>
    <TTGlyph name="emdash" xMin="79" yMin="275" xMax="560" yMax="350">
      <contour>
        <pt x="79" y="275" on="1"/>
        <pt x="85" y="350" on="1"/>
        <pt x="560" y="350" on="1"/>
        <pt x="554" y="275" on="1"/>
      </contour>
    </TTGlyph>
    <TTGlyph name="endash" xMin="99" yMin="275" xMax="485" yMax="350">
      <contour>
        <pt x="99" y="275" on="1"/>
        <pt x="105" y="350" on="1"/>
        <pt x="485" y="350" on="1"/>
        <pt x="479" y="275" on="1"/>
      </contour>
    </TTGlyph>
    <TTGlyph name="equal" xMin="90" yMin="175" xMax="494" yMax="450">
      <contour>
        <pt x="90" y="175" on="1"/>
        <pt x="96" y="250" on="1"/>
        <pt x="476" y="250" on="1"/>
        <pt x="470" y="175" on="1"/>
      </contour>
      <contour>
        <pt x="107" y="375" on="1"/>
        <pt x="114" y="450" on="1"/>
        <pt x="494" y="450" on="1"/>
        <pt x="487" y="375" on="1"/>
      </contour>
    </TTGlyph>
    <TTGlyph name="eth" xMin="76" yMin="-7" xMax="455" yMax="750">
      <contour>
        <pt x="357" y="677" on="1"/>
        <pt x="405" y="655" on="0"/>
        <pt x="455" y="559" on="0"/>
        <pt x="455" y="465" on="1"/>
        <pt x="455" y="462" on="0"/>
        <pt x="454" y="440" on="0"/>
        <pt x="453" y="415" on="0"/>
        <pt x="451" y="393" on="0"/>
        <pt x="451" y="389" on="1"/>
        <pt x="441" y="265" on="0"/>
        <pt x="412" y="111" on="0"/>
        <pt x="363" y="24" on="0"/>
        <pt x="290" y="-7" on="0"/>
        <pt x="234" y="-7" on="1"/>
        <pt x="200" y="-7" on="0"/>
        <pt x="142" y="13" on="0"/>
        <pt x="100" y="57" on="0"/>
        <pt x="76" y="128" on="0"/>
        <pt x="76" y="178" on="1"/>
        <pt x="76" y="188" on="0"/>
        <pt x="77" y="209" on="0"/>
        <pt x="78" y="220" on="1"/>
        <pt x="83" y="274" on="0"/>
        <pt x="99" y="364" on="0"/>
        <pt x="138" y="428" on="0"/>
        <pt x="206" y="464" on="0"/>
        <pt x="261" y="464" on="1"/>
        <pt x="299" y="464" on="0"/>
        <pt x="351" y="444" on="0"/>
        <pt x="368" y="433" on="1"/>
        <pt x="369" y="445" on="0"/>
        <pt x="369" y="463" on="0"/>
        <pt x="369" y="466" on="1"/>
        <pt x="369" y="531" on="0"/>
        <pt x="343" y="598" on="0"/>
        <pt x="315" y="614" on="1"/>
        <pt x="276" y="556" on="1"/>
        <pt x="194" y="556" on="1"/>
        <pt x="245" y="632" on="1"/>
        <pt x="226" y="634" on="0"/>
        <pt x="183" y="635" on="0"/>
        <pt x="158" y="637" on="1"/>
        <pt x="164" y="707" on="1"/>
        <pt x="199" y="705" on="0"/>
        <pt x="261" y="702" on="0"/>
        <pt x="288" y="697" on="1"/>
        <pt x="324" y="750" on="1"/>
        <pt x="406" y="750" on="1"/>
      </contour>
      <contour>
        <pt x="246" y="65" on="1"/>
        <pt x="269" y="65" on="0"/>
        <pt x="304" y="85" on="0"/>
        <pt x="332" y="148" on="0"/>
        <pt x="354" y="266" on="0"/>
        <pt x="363" y="364" on="1"/>
        <pt x="354" y="369" on="0"/>
        <pt x="300" y="392" on="0"/>
        <pt x="262" y="392" on="1"/>
        <pt x="235" y="392" on="0"/>
        <pt x="200" y="367" on="0"/>
        <pt x="178" y="320" on="0"/>
        <pt x="166" y="253" on="0"/>
        <pt x="162" y="211" on="1"/>
        <pt x="161" y="200" on="0"/>
        <pt x="160" y="180" on="0"/>
        <pt x="160" y="171" on="1"/>
        <pt x="160" y="120" on="0"/>
        <pt x="197" y="65" on="0"/>
      </contour>
    </TTGlyph>
    <TTGlyph name="exclam" xMin="65" yMin="0" xMax="218" yMax="700">
      <contour>
        <pt x="65" y="0" on="1"/>
        <pt x="73" y="100" on="1"/>
        <pt x="173" y="100" on="1"/>
        <pt x="165" y="0" on="1"/>
      </contour>
      <contour>
        <pt x="90" y="208" on="1"/>
        <pt x="133" y="700" on="1"/>
        <pt x="218" y="700" on="1"/>
        <pt x="175" y="208" on="1"/>
      </contour>
    </TTGlyph>
    <TTGlyph name="exclamdown" xMin="55" yMin="-200" xMax="208" yMax="500">
      <contour>
        <pt x="208" y="500" on="1"/>
        <pt x="199" y="400" on="1"/>
        <pt x="99" y="400" on="1"/>
        <pt x="108" y="500" on="1"/>
      </contour>
      <contour>
        <pt x="183" y="292" on="1"/>
        <pt x="140" y="-200" on="1"/>
        <pt x="55" y="-200" on="1"/>
        <pt x="98" y="292" on="1"/>
      </contour>
    </TTGlyph>
    <TTGlyph name="f" xMin="-60" yMin="-175" xMax="361" yMax="707">
      <contour>
        <pt x="202" y="427" on="1"/>
        <pt x="161" y="-43" on="1"/>
        <pt x="159" y="-71" on="0"/>
        <pt x="142" y="-119" on="0"/>
        <pt x="110" y="-155" on="0"/>
        <pt x="61" y="-175" on="0"/>
        <pt x="25" y="-175" on="1"/>
        <pt x="1" y="-175" on="0"/>
        <pt x="-40" y="-172" on="0"/>
        <pt x="-60" y="-170" on="1"/>
        <pt x="-54" y="-99" on="1"/>
        <pt x="-38" y="-101" on="0"/>
        <pt x="6" y="-103" on="0"/>
        <pt x="18" y="-103" on="1"/>
        <pt x="70" y="-103" on="0"/>
        <pt x="75" y="-48" on="1"/>
        <pt x="117" y="427" on="1"/>
        <pt x="52" y="427" on="1"/>
        <pt x="58" y="500" on="1"/>
        <pt x="123" y="500" on="1"/>
        <pt x="130" y="578" on="1"/>
        <pt x="142" y="707" on="0"/>
        <pt x="268" y="707" on="1"/>
        <pt x="300" y="707" on="0"/>
        <pt x="347" y="699" on="0"/>
        <pt x="361" y="696" on="1"/>
        <pt x="355" y="624" on="1"/>
        <pt x="340" y="628" on="0"/>
        <pt x="302" y="635" on="0"/>
        <pt x="275" y="635" on="1"/>
        <pt x="248" y="635" on="0"/>
        <pt x="218" y="607" on="0"/>
        <pt x="216" y="585" on="1"/>
        <pt x="208" y="500" on="1"/>
        <pt x="329" y="500" on="1"/>
        <pt x="323" y="427" on="1"/>
      </contour>
    </TTGlyph>
    <TTGlyph name="fi" xMin="-60" yMin="-175" xMax="463" yMax="707">
      <contour>
        <pt x="335" y="0" on="1"/>
        <pt x="371" y="427" on="1"/>
        <pt x="202" y="427" on="1"/>
        <pt x="161" y="-43" on="1"/>
        <pt x="159" y="-71" on="0"/>
        <pt x="142" y="-119" on="0"/>
        <pt x="110" y="-155" on="0"/>
        <pt x="61" y="-175" on="0"/>
        <pt x="25" y="-175" on="1"/>
        <pt x="1" y="-175" on="0"/>
        <pt x="-40" y="-172" on="0"/>
        <pt x="-60" y="-170" on="1"/>
        <pt x="-54" y="-99" on="1"/>
        <pt x="-38" y="-101" on="0"/>
        <pt x="6" y="-103" on="0"/>
        <pt x="18" y="-103" on="1"/>
        <pt x="70" y="-103" on="0"/>
        <pt x="75" y="-48" on="1"/>
        <pt x="117" y="427" on="1"/>
        <pt x="52" y="427" on="1"/>
        <pt x="58" y="500" on="1"/>
        <pt x="123" y="500" on="1"/>
        <pt x="128" y="558" on="1"/>
        <pt x="131" y="593" on="0"/>
        <pt x="150" y="649" on="0"/>
        <pt x="191" y="687" on="0"/>
        <pt x="258" y="707" on="0"/>
        <pt x="308" y="707" on="1"/>
        <pt x="340" y="707" on="0"/>
        <pt x="420" y="696" on="0"/>
        <pt x="459" y="687" on="1"/>
        <pt x="452" y="617" on="1"/>
        <pt x="417" y="628" on="0"/>
        <pt x="342" y="637" on="0"/>
        <pt x="315" y="637" on="1"/>
        <pt x="284" y="637" on="0"/>
        <pt x="246" y="627" on="0"/>
        <pt x="224" y="609" on="0"/>
        <pt x="216" y="582" on="0"/>
        <pt x="214" y="565" on="1"/>
        <pt x="208" y="500" on="1"/>
        <pt x="463" y="500" on="1"/>
        <pt x="420" y="0" on="1"/>
      </contour>
    </TTGlyph>
    <TTGlyph name="five" xMin="75" yMin="-7" xMax="411" yMax="700">
      <contour>
        <pt x="224" y="627" on="1"/>
        <pt x="206" y="421" on="1"/>
        <pt x="226" y="421" on="1"/>
        <pt x="273" y="421" on="0"/>
        <pt x="337" y="400" on="0"/>
        <pt x="375" y="360" on="0"/>
        <pt x="391" y="300" on="0"/>
        <pt x="391" y="261" on="1"/>
        <pt x="391" y="128" on="0"/>
        <pt x="305" y="-7" on="0"/>
        <pt x="199" y="-7" on="1"/>
        <pt x="161" y="-7" on="0"/>
        <pt x="98" y="5" on="0"/>
        <pt x="75" y="10" on="1"/>
        <pt x="82" y="83" on="1"/>
        <pt x="95" y="80" on="0"/>
        <pt x="167" y="66" on="0"/>
        <pt x="209" y="66" on="1"/>
        <pt x="261" y="66" on="0"/>
        <pt x="304" y="166" on="0"/>
        <pt x="304" y="251" on="1"/>
        <pt x="304" y="307" on="0"/>
        <pt x="267" y="348" on="0"/>
        <pt x="225" y="348" on="1"/>
        <pt x="115" y="348" on="1"/>
        <pt x="146" y="700" on="1"/>
        <pt x="411" y="700" on="1"/>
        <pt x="404" y="627" on="1"/>
      </contour>
    </TTGlyph>
    <TTGlyph name="fl" xMin="-60" yMin="-175" xMax="486" yMax="707">
      <contour>
        <pt x="480" y="5" on="1"/>
        <pt x="469" y="3" on="0"/>
        <pt x="439" y="-3" on="0"/>
        <pt x="419" y="-3" on="1"/>
        <pt x="405" y="-3" on="0"/>
        <pt x="377" y="6" on="0"/>
        <pt x="356" y="27" on="0"/>
        <pt x="343" y="63" on="0"/>
        <pt x="343" y="90" on="1"/>
        <pt x="343" y="95" on="0"/>
        <pt x="344" y="116" on="0"/>
        <pt x="345" y="122" on="1"/>
        <pt x="390" y="632" on="1"/>
        <pt x="369" y="635" on="0"/>
        <pt x="330" y="638" on="0"/>
        <pt x="315" y="638" on="1"/>
        <pt x="284" y="638" on="0"/>
        <pt x="246" y="628" on="0"/>
        <pt x="224" y="609" on="0"/>
        <pt x="216" y="582" on="0"/>
        <pt x="214" y="565" on="1"/>
        <pt x="208" y="500" on="1"/>
        <pt x="302" y="500" on="1"/>
        <pt x="296" y="427" on="1"/>
        <pt x="202" y="427" on="1"/>
        <pt x="161" y="-43" on="1"/>
        <pt x="159" y="-71" on="0"/>
        <pt x="142" y="-119" on="0"/>
        <pt x="110" y="-155" on="0"/>
        <pt x="61" y="-175" on="0"/>
        <pt x="25" y="-175" on="1"/>
        <pt x="1" y="-175" on="0"/>
        <pt x="-40" y="-172" on="0"/>
        <pt x="-60" y="-170" on="1"/>
        <pt x="-54" y="-99" on="1"/>
        <pt x="-38" y="-101" on="0"/>
        <pt x="6" y="-103" on="0"/>
        <pt x="18" y="-103" on="1"/>
        <pt x="70" y="-103" on="0"/>
        <pt x="75" y="-48" on="1"/>
        <pt x="117" y="427" on="1"/>
        <pt x="52" y="427" on="1"/>
        <pt x="58" y="500" on="1"/>
        <pt x="123" y="500" on="1"/>
        <pt x="128" y="558" on="1"/>
        <pt x="131" y="593" on="0"/>
        <pt x="150" y="649" on="0"/>
        <pt x="191" y="687" on="0"/>
        <pt x="258" y="707" on="0"/>
        <pt x="308" y="707" on="1"/>
        <pt x="333" y="707" on="0"/>
        <pt x="380" y="702" on="0"/>
        <pt x="396" y="700" on="1"/>
        <pt x="481" y="700" on="1"/>
        <pt x="432" y="137" on="1"/>
        <pt x="431" y="127" on="0"/>
        <pt x="429" y="106" on="0"/>
        <pt x="429" y="103" on="1"/>
        <pt x="429" y="85" on="0"/>
        <pt x="442" y="70" on="0"/>
        <pt x="459" y="70" on="1"/>
        <pt x="467" y="70" on="0"/>
        <pt x="482" y="74" on="0"/>
        <pt x="486" y="75" on="1"/>
      </contour>
    </TTGlyph>
    <TTGlyph name="florin" xMin="-60" yMin="-175" xMax="361" yMax="707">
      <contour>
        <pt x="202" y="427" on="1"/>
        <pt x="161" y="-43" on="1"/>
        <pt x="159" y="-71" on="0"/>
        <pt x="142" y="-119" on="0"/>
        <pt x="110" y="-155" on="0"/>
        <pt x="61" y="-175" on="0"/>
        <pt x="25" y="-175" on="1"/>
        <pt x="1" y="-175" on="0"/>
        <pt x="-40" y="-172" on="0"/>
        <pt x="-60" y="-170" on="1"/>
        <pt x="-54" y="-99" on="1"/>
        <pt x="-38" y="-101" on="0"/>
        <pt x="6" y="-103" on="0"/>
        <pt x="18" y="-103" on="1"/>
        <pt x="70" y="-103" on="0"/>
        <pt x="75" y="-48" on="1"/>
        <pt x="117" y="427" on="1"/>
        <pt x="52" y="427" on="1"/>
        <pt x="58" y="500" on="1"/>
        <pt x="123" y="500" on="1"/>
        <pt x="130" y="578" on="1"/>
        <pt x="142" y="707" on="0"/>
        <pt x="268" y="707" on="1"/>
        <pt x="300" y="707" on="0"/>
        <pt x="347" y="699" on="0"/>
        <pt x="361" y="696" on="1"/>
        <pt x="355" y="624" on="1"/>
        <pt x="340" y="628" on="0"/>
        <pt x="302" y="635" on="0"/>
        <pt x="275" y="635" on="1"/>
        <pt x="248" y="635" on="0"/>
        <pt x="218" y="607" on="0"/>
        <pt x="216" y="585" on="1"/>
        <pt x="208" y="500" on="1"/>
        <pt x="329" y="500" on="1"/>
        <pt x="323" y="427" on="1"/>
      </contour>
    </TTGlyph>
    <TTGlyph name="four" xMin="72" yMin="0" xMax="432" yMax="700">
      <contour>
        <pt x="355" y="156" on="1"/>
        <pt x="342" y="0" on="1"/>
        <pt x="257" y="0" on="1"/>
        <pt x="270" y="156" on="1"/>
        <pt x="72" y="156" on="1"/>
        <pt x="80" y="242" on="1"/>
        <pt x="219" y="700" on="1"/>
        <pt x="300" y="700" on="1"/>
        <pt x="164" y="229" on="1"/>
        <pt x="277" y="229" on="1"/>
        <pt x="296" y="457" on="1"/>
        <pt x="381" y="457" on="1"/>
        <pt x="362" y="229" on="1"/>
        <pt x="432" y="229" on="1"/>
        <pt x="425" y="156" on="1"/>
      </contour>
    </TTGlyph>
    <TTGlyph name="fraction" xMin="-103" yMin="-100" xMax="375" yMax="810">
      <contour>
        <pt x="-23" y="-100" on="1"/>
        <pt x="-103" y="-100" on="1"/>
        <pt x="295" y="810" on="1"/>
        <pt x="375" y="810" on="1"/>
      </contour>
    </TTGlyph>
    <TTGlyph name="g" xMin="72" yMin="-187" xMax="456" yMax="507">
      <contour>
        <pt x="74" y="233" on="1"/>
        <pt x="81" y="307" on="0"/>
        <pt x="114" y="411" on="0"/>
        <pt x="173" y="477" on="0"/>
        <pt x="258" y="507" on="0"/>
        <pt x="317" y="507" on="1"/>
        <pt x="355" y="507" on="0"/>
        <pt x="426" y="493" on="0"/>
        <pt x="456" y="485" on="1"/>
        <pt x="416" y="40" on="1"/>
        <pt x="409" y="-37" on="0"/>
        <pt x="381" y="-127" on="0"/>
        <pt x="333" y="-173" on="0"/>
        <pt x="262" y="-187" on="0"/>
        <pt x="212" y="-187" on="1"/>
        <pt x="189" y="-187" on="0"/>
        <pt x="123" y="-178" on="0"/>
        <pt x="98" y="-173" on="1"/>
        <pt x="105" y="-99" on="1"/>
        <pt x="116" y="-101" on="0"/>
        <pt x="145" y="-107" on="0"/>
        <pt x="177" y="-111" on="0"/>
        <pt x="210" y="-114" on="0"/>
        <pt x="223" y="-114" on="1"/>
        <pt x="248" y="-114" on="0"/>
        <pt x="285" y="-105" on="0"/>
        <pt x="310" y="-77" on="0"/>
        <pt x="326" y="-24" on="0"/>
        <pt x="330" y="20" on="1"/>
        <pt x="333" y="59" on="1"/>
        <pt x="311" y="34" on="0"/>
        <pt x="249" y="3" on="0"/>
        <pt x="204" y="3" on="1"/>
        <pt x="135" y="3" on="0"/>
        <pt x="72" y="88" on="0"/>
        <pt x="72" y="178" on="1"/>
        <pt x="72" y="191" on="0"/>
        <pt x="72" y="218" on="0"/>
      </contour>
      <contour>
        <pt x="226" y="75" on="1"/>
        <pt x="256" y="75" on="0"/>
        <pt x="299" y="99" on="0"/>
        <pt x="328" y="137" on="0"/>
        <pt x="344" y="182" on="0"/>
        <pt x="346" y="203" on="1"/>
        <pt x="366" y="430" on="1"/>
        <pt x="355" y="432" on="0"/>
        <pt x="323" y="435" on="0"/>
        <pt x="300" y="435" on="1"/>
        <pt x="264" y="435" on="0"/>
        <pt x="216" y="408" on="0"/>
        <pt x="184" y="354" on="0"/>
        <pt x="166" y="275" on="0"/>
        <pt x="161" y="223" on="1"/>
        <pt x="160" y="210" on="0"/>
        <pt x="159" y="187" on="0"/>
        <pt x="159" y="176" on="1"/>
        <pt x="159" y="124" on="0"/>
        <pt x="190" y="75" on="0"/>
      </contour>
    </TTGlyph>
    <TTGlyph name="germandbls" xMin="70" yMin="-7" xMax="463" yMax="707">
      <contour>
        <pt x="463" y="175" on="1"/>
        <pt x="463" y="81" on="0"/>
        <pt x="374" y="-7" on="0"/>
        <pt x="279" y="-7" on="1"/>
        <pt x="274" y="-7" on="0"/>
        <pt x="256" y="-5" on="0"/>
        <pt x="235" y="-2" on="0"/>
        <pt x="215" y="1" on="0"/>
        <pt x="208" y="3" on="1"/>
        <pt x="214" y="76" on="1"/>
        <pt x="231" y="71" on="0"/>
        <pt x="271" y="65" on="0"/>
        <pt x="288" y="65" on="1"/>
        <pt x="313" y="65" on="0"/>
        <pt x="346" y="83" on="0"/>
        <pt x="366" y="111" on="0"/>
        <pt x="374" y="147" on="0"/>
        <pt x="374" y="166" on="1"/>
        <pt x="374" y="199" on="0"/>
        <pt x="345" y="239" on="0"/>
        <pt x="307" y="256" on="1"/>
        <pt x="269" y="274" on="0"/>
        <pt x="235" y="322" on="0"/>
        <pt x="235" y="360" on="1"/>
        <pt x="235" y="394" on="0"/>
        <pt x="254" y="442" on="0"/>
        <pt x="289" y="473" on="0"/>
        <pt x="337" y="492" on="0"/>
        <pt x="365" y="496" on="1"/>
        <pt x="371" y="510" on="0"/>
        <pt x="380" y="547" on="0"/>
        <pt x="380" y="568" on="1"/>
        <pt x="380" y="594" on="0"/>
        <pt x="341" y="635" on="0"/>
        <pt x="294" y="635" on="1"/>
        <pt x="256" y="635" on="0"/>
        <pt x="207" y="589" on="0"/>
        <pt x="202" y="540" on="1"/>
        <pt x="155" y="0" on="1"/>
        <pt x="70" y="0" on="1"/>
        <pt x="116" y="533" on="1"/>
        <pt x="124" y="617" on="0"/>
        <pt x="215" y="707" on="0"/>
        <pt x="302" y="707" on="1"/>
        <pt x="377" y="707" on="0"/>
        <pt x="454" y="632" on="0"/>
        <pt x="454" y="574" on="1"/>
        <pt x="454" y="552" on="0"/>
        <pt x="450" y="517" on="0"/>
        <pt x="442" y="486" on="0"/>
        <pt x="432" y="453" on="0"/>
        <pt x="426" y="432" on="1"/>
        <pt x="365" y="432" on="0"/>
        <pt x="316" y="403" on="0"/>
        <pt x="316" y="369" on="1"/>
        <pt x="316" y="356" on="0"/>
        <pt x="333" y="331" on="0"/>
        <pt x="346" y="326" on="1"/>
        <pt x="369" y="317" on="0"/>
        <pt x="411" y="290" on="0"/>
        <pt x="443" y="254" on="0"/>
        <pt x="463" y="206" on="0"/>
      </contour>
    </TTGlyph>
    <TTGlyph name="grave" xMin="99" yMin="580" xMax="300" yMax="715">
      <contour>
        <pt x="224" y="580" on="1"/>
        <pt x="99" y="715" on="1"/>
        <pt x="208" y="715" on="1"/>
        <pt x="300" y="580" on="1"/>
      </contour>
    </TTGlyph>
    <TTGlyph name="greater" xMin="84" yMin="105" xMax="488" yMax="564">
      <contour>
        <pt x="84" y="105" on="1"/>
        <pt x="92" y="201" on="1"/>
        <pt x="420" y="338" on="1"/>
        <pt x="116" y="474" on="1"/>
        <pt x="124" y="564" on="1"/>
        <pt x="488" y="385" on="1"/>
        <pt x="479" y="280" on="1"/>
      </contour>
    </TTGlyph>
    <TTGlyph name="greaterequal" xMin="75" yMin="0" xMax="488" yMax="565">
      <contour>
        <pt x="85" y="125" on="1"/>
        <pt x="94" y="220" on="1"/>
        <pt x="412" y="337" on="1"/>
        <pt x="116" y="473" on="1"/>
        <pt x="124" y="565" on="1"/>
        <pt x="488" y="385" on="1"/>
        <pt x="479" y="280" on="1"/>
      </contour>
      <contour>
        <pt x="75" y="0" on="1"/>
        <pt x="81" y="75" on="1"/>
        <pt x="461" y="75" on="1"/>
        <pt x="455" y="0" on="1"/>
      </contour>
    </TTGlyph>
    <TTGlyph name="guillemotleft" xMin="91" yMin="92" xMax="425" yMax="506">
      <contour>
        <pt x="162" y="92" on="1"/>
        <pt x="91" y="299" on="1"/>
        <pt x="198" y="506" on="1"/>
        <pt x="265" y="506" on="1"/>
        <pt x="183" y="299" on="1"/>
        <pt x="228" y="92" on="1"/>
      </contour>
      <contour>
        <pt x="322" y="92" on="1"/>
        <pt x="251" y="299" on="1"/>
        <pt x="358" y="506" on="1"/>
        <pt x="425" y="506" on="1"/>
        <pt x="343" y="299" on="1"/>
        <pt x="388" y="92" on="1"/>
      </contour>
    </TTGlyph>
    <TTGlyph name="guillemotright" xMin="72" yMin="92" xMax="406" yMax="506">
      <contour>
        <pt x="232" y="92" on="1"/>
        <pt x="314" y="299" on="1"/>
        <pt x="270" y="506" on="1"/>
        <pt x="335" y="506" on="1"/>
        <pt x="406" y="299" on="1"/>
        <pt x="299" y="92" on="1"/>
      </contour>
      <contour>
        <pt x="72" y="92" on="1"/>
        <pt x="154" y="299" on="1"/>
        <pt x="110" y="506" on="1"/>
        <pt x="175" y="506" on="1"/>
        <pt x="246" y="299" on="1"/>
        <pt x="139" y="92" on="1"/>
      </contour>
    </TTGlyph>
    <TTGlyph name="guilsinglleft" xMin="91" yMin="92" xMax="265" yMax="506">
      <contour>
        <pt x="162" y="92" on="1"/>
        <pt x="91" y="299" on="1"/>
        <pt x="198" y="506" on="1"/>
        <pt x="265" y="506" on="1"/>
        <pt x="183" y="299" on="1"/>
        <pt x="227" y="92" on="1"/>
      </contour>
    </TTGlyph>
    <TTGlyph name="guilsinglright" xMin="72" yMin="92" xMax="246" yMax="506">
      <contour>
        <pt x="72" y="92" on="1"/>
        <pt x="154" y="299" on="1"/>
        <pt x="110" y="506" on="1"/>
        <pt x="175" y="506" on="1"/>
        <pt x="246" y="299" on="1"/>
        <pt x="139" y="92" on="1"/>
      </contour>
    </TTGlyph>
    <TTGlyph name="h" xMin="70" yMin="0" xMax="450" yMax="700">
      <contour>
        <pt x="70" y="0" on="1"/>
        <pt x="131" y="700" on="1"/>
        <pt x="216" y="700" on="1"/>
        <pt x="195" y="455" on="1"/>
        <pt x="216" y="479" on="0"/>
        <pt x="273" y="507" on="0"/>
        <pt x="314" y="507" on="1"/>
        <pt x="392" y="507" on="0"/>
        <pt x="450" y="432" on="0"/>
        <pt x="450" y="363" on="1"/>
        <pt x="450" y="353" on="0"/>
        <pt x="449" y="331" on="0"/>
        <pt x="448" y="320" on="1"/>
        <pt x="421" y="0" on="1"/>
        <pt x="336" y="0" on="1"/>
        <pt x="363" y="320" on="1"/>
        <pt x="364" y="328" on="0"/>
        <pt x="366" y="351" on="0"/>
        <pt x="366" y="358" on="1"/>
        <pt x="366" y="392" on="0"/>
        <pt x="336" y="435" on="0"/>
        <pt x="292" y="435" on="1"/>
        <pt x="264" y="435" on="0"/>
        <pt x="224" y="409" on="0"/>
        <pt x="197" y="369" on="0"/>
        <pt x="183" y="319" on="0"/>
        <pt x="181" y="296" on="1"/>
        <pt x="155" y="0" on="1"/>
      </contour>
    </TTGlyph>
    <TTGlyph name="hungarumlaut" xMin="77" yMin="598" xMax="483" yMax="745">
      <contour>
        <pt x="153" y="598" on="1"/>
        <pt x="77" y="598" on="1"/>
        <pt x="193" y="745" on="1"/>
        <pt x="313" y="745" on="1"/>
      </contour>
      <contour>
        <pt x="323" y="598" on="1"/>
        <pt x="247" y="598" on="1"/>
        <pt x="363" y="745" on="1"/>
        <pt x="483" y="745" on="1"/>
      </contour>
    </TTGlyph>
    <TTGlyph name="hyphen" xMin="99" yMin="275" xMax="430" yMax="350">
      <contour>
        <pt x="99" y="275" on="1"/>
        <pt x="105" y="350" on="1"/>
        <pt x="430" y="350" on="1"/>
        <pt x="424" y="275" on="1"/>
      </contour>
    </TTGlyph>
    <TTGlyph name="i" xMin="70" yMin="0" xMax="221" yMax="700">
      <contour>
        <pt x="118" y="610" on="1"/>
        <pt x="126" y="700" on="1"/>
        <pt x="221" y="700" on="1"/>
        <pt x="213" y="610" on="1"/>
      </contour>
      <contour>
        <pt x="70" y="0" on="1"/>
        <pt x="113" y="500" on="1"/>
        <pt x="198" y="500" on="1"/>
        <pt x="155" y="0" on="1"/>
      </contour>
    </TTGlyph>
    <TTGlyph name="iacute" xMin="70" yMin="0" xMax="320" yMax="715">
      <contour>
        <pt x="70" y="0" on="1"/>
        <pt x="113" y="500" on="1"/>
        <pt x="198" y="500" on="1"/>
        <pt x="155" y="0" on="1"/>
      </contour>
      <contour>
        <pt x="95" y="580" on="1"/>
        <pt x="211" y="715" on="1"/>
        <pt x="320" y="715" on="1"/>
        <pt x="181" y="580" on="1"/>
      </contour>
    </TTGlyph>
    <TTGlyph name="icircumflex" xMin="6" yMin="0" xMax="319" yMax="715">
      <contour>
        <pt x="70" y="0" on="1"/>
        <pt x="113" y="500" on="1"/>
        <pt x="198" y="500" on="1"/>
        <pt x="155" y="0" on="1"/>
      </contour>
      <contour>
        <pt x="222" y="580" on="1"/>
        <pt x="170" y="664" on="1"/>
        <pt x="102" y="580" on="1"/>
        <pt x="6" y="580" on="1"/>
        <pt x="130" y="715" on="1"/>
        <pt x="218" y="715" on="1"/>
        <pt x="319" y="580" on="1"/>
      </contour>
    </TTGlyph>
    <TTGlyph name="idieresis" xMin="22" yMin="0" xMax="314" yMax="675">
      <contour>
        <pt x="70" y="0" on="1"/>
        <pt x="113" y="500" on="1"/>
        <pt x="198" y="500" on="1"/>
        <pt x="155" y="0" on="1"/>
      </contour>
      <contour>
        <pt x="222" y="595" on="1"/>
        <pt x="229" y="675" on="1"/>
        <pt x="314" y="675" on="1"/>
        <pt x="307" y="595" on="1"/>
      </contour>
      <contour>
        <pt x="22" y="595" on="1"/>
        <pt x="29" y="675" on="1"/>
        <pt x="114" y="675" on="1"/>
        <pt x="107" y="595" on="1"/>
      </contour>
    </TTGlyph>
    <TTGlyph name="igrave" xMin="28" yMin="0" xMax="229" yMax="715">
      <contour>
        <pt x="70" y="0" on="1"/>
        <pt x="113" y="500" on="1"/>
        <pt x="198" y="500" on="1"/>
        <pt x="155" y="0" on="1"/>
      </contour>
      <contour>
        <pt x="153" y="580" on="1"/>
        <pt x="28" y="715" on="1"/>
        <pt x="137" y="715" on="1"/>
        <pt x="229" y="580" on="1"/>
      </contour>
    </TTGlyph>
    <TTGlyph name="infinity" xMin="61" yMin="166" xMax="703" yMax="494">
      <contour>
        <pt x="249" y="421" on="1"/>
        <pt x="200" y="421" on="0"/>
        <pt x="144" y="374" on="0"/>
        <pt x="144" y="315" on="1"/>
        <pt x="144" y="273" on="0"/>
        <pt x="190" y="239" on="0"/>
        <pt x="233" y="239" on="1"/>
        <pt x="262" y="239" on="0"/>
        <pt x="303" y="252" on="0"/>
        <pt x="329" y="281" on="0"/>
        <pt x="343" y="326" on="0"/>
        <pt x="346" y="359" on="1"/>
        <pt x="337" y="388" on="0"/>
        <pt x="284" y="421" on="0"/>
      </contour>
      <contour>
        <pt x="379" y="245" on="1"/>
        <pt x="359" y="209" on="0"/>
        <pt x="283" y="166" on="0"/>
        <pt x="228" y="166" on="1"/>
        <pt x="147" y="166" on="0"/>
        <pt x="61" y="241" on="0"/>
        <pt x="61" y="310" on="1"/>
        <pt x="61" y="397" on="0"/>
        <pt x="153" y="494" on="0"/>
        <pt x="257" y="494" on="1"/>
        <pt x="293" y="494" on="0"/>
        <pt x="362" y="462" on="0"/>
        <pt x="385" y="415" on="1"/>
        <pt x="405" y="451" on="0"/>
        <pt x="476" y="494" on="0"/>
        <pt x="535" y="494" on="1"/>
        <pt x="617" y="494" on="0"/>
        <pt x="703" y="419" on="0"/>
        <pt x="703" y="350" on="1"/>
        <pt x="703" y="264" on="0"/>
        <pt x="611" y="166" on="0"/>
        <pt x="506" y="166" on="1"/>
        <pt x="469" y="166" on="0"/>
        <pt x="402" y="198" on="0"/>
      </contour>
      <contour>
        <pt x="515" y="239" on="1"/>
        <pt x="563" y="239" on="0"/>
        <pt x="620" y="285" on="0"/>
        <pt x="620" y="344" on="1"/>
        <pt x="620" y="386" on="0"/>
        <pt x="575" y="421" on="0"/>
        <pt x="531" y="421" on="1"/>
        <pt x="473" y="421" on="0"/>
        <pt x="424" y="366" on="0"/>
        <pt x="418" y="301" on="1"/>
        <pt x="428" y="272" on="0"/>
        <pt x="480" y="239" on="0"/>
      </contour>
    </TTGlyph>
    <TTGlyph name="integral" xMin="-50" yMin="-240" xMax="398" yMax="825">
      <contour>
        <pt x="-43" y="-159" on="1"/>
        <pt x="-28" y="-163" on="0"/>
        <pt x="10" y="-168" on="0"/>
        <pt x="36" y="-168" on="1"/>
        <pt x="63" y="-168" on="0"/>
        <pt x="93" y="-142" on="0"/>
        <pt x="95" y="-120" on="1"/>
        <pt x="167" y="698" on="1"/>
        <pt x="173" y="763" on="0"/>
        <pt x="240" y="825" on="0"/>
        <pt x="305" y="825" on="1"/>
        <pt x="337" y="825" on="0"/>
        <pt x="383" y="818" on="0"/>
        <pt x="398" y="815" on="1"/>
        <pt x="392" y="744" on="1"/>
        <pt x="376" y="748" on="0"/>
        <pt x="338" y="753" on="0"/>
        <pt x="311" y="753" on="1"/>
        <pt x="285" y="753" on="0"/>
        <pt x="254" y="727" on="0"/>
        <pt x="252" y="705" on="1"/>
        <pt x="181" y="-113" on="1"/>
        <pt x="178" y="-149" on="0"/>
        <pt x="155" y="-198" on="0"/>
        <pt x="119" y="-227" on="0"/>
        <pt x="71" y="-240" on="0"/>
        <pt x="43" y="-240" on="1"/>
        <pt x="11" y="-240" on="0"/>
        <pt x="-35" y="-233" on="0"/>
        <pt x="-50" y="-230" on="1"/>
      </contour>
    </TTGlyph>
    <TTGlyph name="j" xMin="-70" yMin="-175" xMax="221" yMax="700">
      <contour>
        <pt x="151" y="-43" on="1"/>
        <pt x="148" y="-71" on="0"/>
        <pt x="131" y="-119" on="0"/>
        <pt x="99" y="-155" on="0"/>
        <pt x="50" y="-175" on="0"/>
        <pt x="15" y="-175" on="1"/>
        <pt x="-8" y="-175" on="0"/>
        <pt x="-50" y="-172" on="0"/>
        <pt x="-70" y="-170" on="1"/>
        <pt x="-64" y="-99" on="1"/>
        <pt x="-48" y="-101" on="0"/>
        <pt x="-4" y="-103" on="0"/>
        <pt x="8" y="-103" on="1"/>
        <pt x="60" y="-103" on="0"/>
        <pt x="65" y="-48" on="1"/>
        <pt x="113" y="500" on="1"/>
        <pt x="198" y="500" on="1"/>
      </contour>
      <contour>
        <pt x="118" y="610" on="1"/>
        <pt x="126" y="700" on="1"/>
        <pt x="221" y="700" on="1"/>
        <pt x="213" y="610" on="1"/>
      </contour>
    </TTGlyph>
    <TTGlyph name="k" xMin="70" yMin="0" xMax="455" yMax="700">
      <contour>
        <pt x="322" y="0" on="1"/>
        <pt x="206" y="248" on="1"/>
        <pt x="173" y="214" on="1"/>
        <pt x="155" y="0" on="1"/>
        <pt x="70" y="0" on="1"/>
        <pt x="131" y="700" on="1"/>
        <pt x="216" y="700" on="1"/>
        <pt x="183" y="328" on="1"/>
        <pt x="346" y="500" on="1"/>
        <pt x="455" y="500" on="1"/>
        <pt x="269" y="307" on="1"/>
        <pt x="419" y="0" on="1"/>
      </contour>
    </TTGlyph>
    <TTGlyph name="l" xMin="78" yMin="-3" xMax="221" yMax="700">
      <contour>
        <pt x="215" y="5" on="1"/>
        <pt x="204" y="3" on="0"/>
        <pt x="174" y="-3" on="0"/>
        <pt x="154" y="-3" on="1"/>
        <pt x="140" y="-3" on="0"/>
        <pt x="112" y="6" on="0"/>
        <pt x="91" y="27" on="0"/>
        <pt x="78" y="63" on="0"/>
        <pt x="78" y="90" on="1"/>
        <pt x="78" y="95" on="0"/>
        <pt x="79" y="116" on="0"/>
        <pt x="80" y="122" on="1"/>
        <pt x="131" y="700" on="1"/>
        <pt x="216" y="700" on="1"/>
        <pt x="167" y="137" on="1"/>
        <pt x="166" y="127" on="0"/>
        <pt x="164" y="106" on="0"/>
        <pt x="164" y="103" on="1"/>
        <pt x="164" y="85" on="0"/>
        <pt x="177" y="70" on="0"/>
        <pt x="194" y="70" on="1"/>
        <pt x="202" y="70" on="0"/>
        <pt x="217" y="74" on="0"/>
        <pt x="221" y="75" on="1"/>
      </contour>
    </TTGlyph>
    <TTGlyph name="less" xMin="99" yMin="105" xMax="504" yMax="564">
      <contour>
        <pt x="99" y="280" on="1"/>
        <pt x="108" y="385" on="1"/>
        <pt x="504" y="564" on="1"/>
        <pt x="496" y="470" on="1"/>
        <pt x="174" y="334" on="1"/>
        <pt x="472" y="197" on="1"/>
        <pt x="464" y="105" on="1"/>
      </contour>
    </TTGlyph>
    <TTGlyph name="lessequal" xMin="75" yMin="0" xMax="504" yMax="564">
      <contour>
        <pt x="99" y="280" on="1"/>
        <pt x="108" y="385" on="1"/>
        <pt x="504" y="564" on="1"/>
        <pt x="496" y="471" on="1"/>
        <pt x="176" y="335" on="1"/>
        <pt x="474" y="218" on="1"/>
        <pt x="465" y="125" on="1"/>
      </contour>
      <contour>
        <pt x="75" y="0" on="1"/>
        <pt x="81" y="75" on="1"/>
        <pt x="461" y="75" on="1"/>
        <pt x="455" y="0" on="1"/>
      </contour>
    </TTGlyph>
    <TTGlyph name="logicaland" xMin="103" yMin="270" xMax="223" yMax="380">
      <contour>
        <pt x="103" y="270" on="1"/>
        <pt x="113" y="380" on="1"/>
        <pt x="223" y="380" on="1"/>
        <pt x="213" y="270" on="1"/>
      </contour>
    </TTGlyph>
    <TTGlyph name="logicalnot" xMin="79" yMin="106" xMax="560" yMax="350">
      <contour>
        <pt x="454" y="106" on="1"/>
        <pt x="468" y="275" on="1"/>
        <pt x="79" y="275" on="1"/>
        <pt x="85" y="350" on="1"/>
        <pt x="560" y="350" on="1"/>
        <pt x="539" y="106" on="1"/>
      </contour>
    </TTGlyph>
    <TTGlyph name="lozenge" xMin="60" yMin="0" xMax="450" yMax="700">
      <contour>
        <pt x="280" y="0" on="1"/>
        <pt x="168" y="0" on="1"/>
        <pt x="60" y="350" on="1"/>
        <pt x="231" y="700" on="1"/>
        <pt x="341" y="700" on="1"/>
        <pt x="450" y="350" on="1"/>
      </contour>
      <contour>
        <pt x="282" y="630" on="1"/>
        <pt x="145" y="350" on="1"/>
        <pt x="229" y="70" on="1"/>
        <pt x="365" y="350" on="1"/>
      </contour>
    </TTGlyph>
    <TTGlyph name="lslash" xMin="51" yMin="-3" xMax="274" yMax="700">
      <contour>
        <pt x="225" y="5" on="1"/>
        <pt x="214" y="3" on="0"/>
        <pt x="184" y="-3" on="0"/>
        <pt x="164" y="-3" on="1"/>
        <pt x="150" y="-3" on="0"/>
        <pt x="122" y="6" on="0"/>
        <pt x="101" y="27" on="0"/>
        <pt x="88" y="63" on="0"/>
        <pt x="88" y="90" on="1"/>
        <pt x="88" y="95" on="0"/>
        <pt x="89" y="116" on="0"/>
        <pt x="90" y="122" on="1"/>
        <pt x="109" y="335" on="1"/>
        <pt x="51" y="300" on="1"/>
        <pt x="58" y="378" on="1"/>
        <pt x="116" y="413" on="1"/>
        <pt x="141" y="700" on="1"/>
        <pt x="226" y="700" on="1"/>
        <pt x="206" y="468" on="1"/>
        <pt x="274" y="510" on="1"/>
        <pt x="267" y="430" on="1"/>
        <pt x="199" y="389" on="1"/>
        <pt x="177" y="137" on="1"/>
        <pt x="176" y="127" on="0"/>
        <pt x="174" y="106" on="0"/>
        <pt x="174" y="103" on="1"/>
        <pt x="174" y="85" on="0"/>
        <pt x="187" y="70" on="0"/>
        <pt x="204" y="70" on="1"/>
        <pt x="212" y="70" on="0"/>
        <pt x="227" y="74" on="0"/>
        <pt x="231" y="75" on="1"/>
      </contour>
    </TTGlyph>
    <TTGlyph name="m" xMin="70" yMin="0" xMax="675" yMax="507">
      <contour>
        <pt x="70" y="0" on="1"/>
        <pt x="113" y="500" on="1"/>
        <pt x="183" y="500" on="1"/>
        <pt x="184" y="446" on="1"/>
        <pt x="204" y="475" on="0"/>
        <pt x="261" y="507" on="0"/>
        <pt x="304" y="507" on="1"/>
        <pt x="354" y="507" on="0"/>
        <pt x="409" y="472" on="0"/>
        <pt x="420" y="440" on="1"/>
        <pt x="440" y="472" on="0"/>
        <pt x="501" y="507" on="0"/>
        <pt x="549" y="507" on="1"/>
        <pt x="586" y="507" on="0"/>
        <pt x="634" y="488" on="0"/>
        <pt x="663" y="452" on="0"/>
        <pt x="675" y="400" on="0"/>
        <pt x="675" y="367" on="1"/>
        <pt x="675" y="343" on="0"/>
        <pt x="672" y="310" on="1"/>
        <pt x="646" y="0" on="1"/>
        <pt x="561" y="0" on="1"/>
        <pt x="588" y="320" on="1"/>
        <pt x="589" y="329" on="0"/>
        <pt x="591" y="357" on="0"/>
        <pt x="591" y="365" on="1"/>
        <pt x="591" y="396" on="0"/>
        <pt x="566" y="435" on="0"/>
        <pt x="527" y="435" on="1"/>
        <pt x="499" y="435" on="0"/>
        <pt x="462" y="409" on="0"/>
        <pt x="439" y="370" on="0"/>
        <pt x="428" y="322" on="0"/>
        <pt x="426" y="299" on="1"/>
        <pt x="401" y="0" on="1"/>
        <pt x="316" y="0" on="1"/>
        <pt x="343" y="320" on="1"/>
        <pt x="344" y="329" on="0"/>
        <pt x="346" y="357" on="0"/>
        <pt x="346" y="365" on="1"/>
        <pt x="346" y="396" on="0"/>
        <pt x="321" y="435" on="0"/>
        <pt x="282" y="435" on="1"/>
        <pt x="254" y="435" on="0"/>
        <pt x="216" y="409" on="0"/>
        <pt x="193" y="368" on="0"/>
        <pt x="182" y="319" on="0"/>
        <pt x="180" y="296" on="1"/>
        <pt x="155" y="0" on="1"/>
      </contour>
    </TTGlyph>
    <TTGlyph name="macron" xMin="77" yMin="605" xMax="339" yMax="675">
      <contour>
        <pt x="77" y="605" on="1"/>
        <pt x="84" y="675" on="1"/>
        <pt x="339" y="675" on="1"/>
        <pt x="332" y="605" on="1"/>
      </contour>
    </TTGlyph>
    <TTGlyph name="minus" xMin="99" yMin="275" xMax="485" yMax="350">
      <contour>
        <pt x="99" y="275" on="1"/>
        <pt x="105" y="350" on="1"/>
        <pt x="485" y="350" on="1"/>
        <pt x="479" y="275" on="1"/>
      </contour>
    </TTGlyph>
    <TTGlyph name="mu" xMin="50" yMin="-170" xMax="444" yMax="500">
      <contour>
        <pt x="162" y="132" on="1"/>
        <pt x="162" y="103" on="0"/>
        <pt x="187" y="65" on="0"/>
        <pt x="227" y="65" on="1"/>
        <pt x="256" y="65" on="0"/>
        <pt x="296" y="93" on="0"/>
        <pt x="321" y="137" on="0"/>
        <pt x="333" y="188" on="0"/>
        <pt x="335" y="211" on="1"/>
        <pt x="359" y="500" on="1"/>
        <pt x="444" y="500" on="1"/>
        <pt x="401" y="0" on="1"/>
        <pt x="331" y="0" on="1"/>
        <pt x="329" y="53" on="1"/>
        <pt x="309" y="25" on="0"/>
        <pt x="251" y="-7" on="0"/>
        <pt x="207" y="-7" on="1"/>
        <pt x="190" y="-7" on="0"/>
        <pt x="161" y="-2" on="0"/>
        <pt x="150" y="1" on="1"/>
        <pt x="135" y="-170" on="1"/>
        <pt x="50" y="-170" on="1"/>
        <pt x="108" y="500" on="1"/>
        <pt x="193" y="500" on="1"/>
        <pt x="165" y="172" on="1"/>
        <pt x="164" y="163" on="0"/>
        <pt x="162" y="135" on="0"/>
      </contour>
    </TTGlyph>
    <TTGlyph name="multiply" xMin="120" yMin="137" xMax="466" yMax="483">
      <contour>
        <pt x="293" y="253" on="1"/>
        <pt x="176" y="137" on="1"/>
        <pt x="120" y="193" on="1"/>
        <pt x="236" y="310" on="1"/>
        <pt x="120" y="427" on="1"/>
        <pt x="176" y="483" on="1"/>
        <pt x="293" y="367" on="1"/>
        <pt x="410" y="483" on="1"/>
        <pt x="466" y="427" on="1"/>
        <pt x="350" y="310" on="1"/>
        <pt x="466" y="193" on="1"/>
        <pt x="410" y="137" on="1"/>
      </contour>
    </TTGlyph>
    <TTGlyph name="n" xMin="70" yMin="0" xMax="450" yMax="507">
      <contour>
        <pt x="70" y="0" on="1"/>
        <pt x="113" y="500" on="1"/>
        <pt x="183" y="500" on="1"/>
        <pt x="184" y="442" on="1"/>
        <pt x="206" y="472" on="0"/>
        <pt x="268" y="507" on="0"/>
        <pt x="314" y="507" on="1"/>
        <pt x="392" y="507" on="0"/>
        <pt x="450" y="432" on="0"/>
        <pt x="450" y="363" on="1"/>
        <pt x="450" y="353" on="0"/>
        <pt x="449" y="331" on="0"/>
        <pt x="448" y="320" on="1"/>
        <pt x="421" y="0" on="1"/>
        <pt x="336" y="0" on="1"/>
        <pt x="363" y="320" on="1"/>
        <pt x="364" y="328" on="0"/>
        <pt x="366" y="351" on="0"/>
        <pt x="366" y="358" on="1"/>
        <pt x="366" y="392" on="0"/>
        <pt x="336" y="435" on="0"/>
        <pt x="292" y="435" on="1"/>
        <pt x="264" y="435" on="0"/>
        <pt x="223" y="409" on="0"/>
        <pt x="196" y="369" on="0"/>
        <pt x="182" y="319" on="0"/>
        <pt x="180" y="296" on="1"/>
        <pt x="155" y="0" on="1"/>
      </contour>
    </TTGlyph>
    <TTGlyph name="nine" xMin="84" yMin="-7" xMax="430" yMax="707">
      <contour>
        <pt x="84" y="421" on="1"/>
        <pt x="84" y="557" on="0"/>
        <pt x="178" y="707" on="0"/>
        <pt x="280" y="707" on="1"/>
        <pt x="319" y="707" on="0"/>
        <pt x="375" y="691" on="0"/>
        <pt x="412" y="644" on="0"/>
        <pt x="430" y="559" on="0"/>
        <pt x="430" y="491" on="1"/>
        <pt x="430" y="422" on="0"/>
        <pt x="421" y="320" on="1"/>
        <pt x="412" y="217" on="0"/>
        <pt x="380" y="89" on="0"/>
        <pt x="327" y="18" on="0"/>
        <pt x="249" y="-7" on="0"/>
        <pt x="195" y="-7" on="1"/>
        <pt x="183" y="-7" on="0"/>
        <pt x="156" y="-4" on="0"/>
        <pt x="129" y="1" on="0"/>
        <pt x="106" y="6" on="0"/>
        <pt x="100" y="8" on="1"/>
        <pt x="107" y="81" on="1"/>
        <pt x="126" y="76" on="0"/>
        <pt x="179" y="65" on="0"/>
        <pt x="211" y="65" on="1"/>
        <pt x="237" y="65" on="0"/>
        <pt x="276" y="80" on="0"/>
        <pt x="305" y="126" on="0"/>
        <pt x="325" y="214" on="0"/>
        <pt x="333" y="286" on="1"/>
        <pt x="316" y="275" on="0"/>
        <pt x="262" y="256" on="0"/>
        <pt x="225" y="256" on="1"/>
        <pt x="185" y="256" on="0"/>
        <pt x="130" y="279" on="0"/>
        <pt x="98" y="321" on="0"/>
        <pt x="84" y="382" on="0"/>
      </contour>
      <contour>
        <pt x="238" y="328" on="1"/>
        <pt x="275" y="328" on="0"/>
        <pt x="328" y="349" on="0"/>
        <pt x="339" y="354" on="1"/>
        <pt x="343" y="400" on="0"/>
        <pt x="347" y="472" on="0"/>
        <pt x="347" y="501" on="1"/>
        <pt x="347" y="545" on="0"/>
        <pt x="338" y="597" on="0"/>
        <pt x="319" y="626" on="0"/>
        <pt x="292" y="635" on="0"/>
        <pt x="274" y="635" on="1"/>
        <pt x="217" y="635" on="0"/>
        <pt x="169" y="520" on="0"/>
        <pt x="169" y="417" on="1"/>
        <pt x="169" y="371" on="0"/>
        <pt x="197" y="328" on="0"/>
      </contour>
    </TTGlyph>
    <TTGlyph name="notequal" xMin="81" yMin="70" xMax="503" yMax="555">
      <contour>
        <pt x="376" y="375" on="1"/>
        <pt x="288" y="250" on="1"/>
        <pt x="476" y="250" on="1"/>
        <pt x="470" y="175" on="1"/>
        <pt x="235" y="175" on="1"/>
        <pt x="161" y="70" on="1"/>
        <pt x="81" y="70" on="1"/>
        <pt x="155" y="175" on="1"/>
        <pt x="90" y="175" on="1"/>
        <pt x="96" y="250" on="1"/>
        <pt x="208" y="250" on="1"/>
        <pt x="296" y="375" on="1"/>
        <pt x="107" y="375" on="1"/>
        <pt x="114" y="450" on="1"/>
        <pt x="349" y="450" on="1"/>
        <pt x="423" y="555" on="1"/>
        <pt x="503" y="555" on="1"/>
        <pt x="429" y="450" on="1"/>
        <pt x="494" y="450" on="1"/>
        <pt x="487" y="375" on="1"/>
      </contour>
    </TTGlyph>
</ttFont>
